STARTFONT 2.1
COMMENT
COMMENT Converted from OpenType font "Hack-Bold.ttf" by "otf2bdf 3.0".
COMMENT
FONT -FreeType-Hack-Bold-R-Normal--21-150-100-100-P-102-ISO10646-1
SIZE 15 100 100
FONTBOUNDINGBOX 30 29 -15 -8
STARTPROPERTIES 19
FOUNDRY "FreeType"
FAMILY_NAME "Hack"
WEIGHT_NAME "Bold"
SLANT "R"
SETWIDTH_NAME "Normal"
ADD_STYLE_NAME ""
PIXEL_SIZE 21
POINT_SIZE 150
RESOLUTION_X 100
RESOLUTION_Y 100
SPACING "P"
AVERAGE_WIDTH 102
CHARSET_REGISTRY "ISO10646"
CHARSET_ENCODING "1"
FONT_ASCENT 19
FONT_DESCENT 4
COPYRIGHT "Copyright (c) 2018 Source Foundry Authors / Copyright (c) 2003 by Bitstream, Inc. All Rights Reserved."
_OTF_FONTFILE "Hack-Bold.ttf"
_OTF_PSNAME "Hack-Bold"
ENDPROPERTIES
CHARS 1624
STARTCHAR 0000
ENCODING 0
SWIDTH 0 0
DWIDTH 0 0
BBX 0 0 0 0
BITMAP
ENDCHAR
STARTCHAR 000D
ENCODING 13
SWIDTH 624 0
DWIDTH 13 0
BBX 0 0 0 0
BITMAP
ENDCHAR
STARTCHAR 0020
ENCODING 32
SWIDTH 624 0
DWIDTH 13 0
BBX 0 0 0 0
BITMAP
ENDCHAR
STARTCHAR 0021
ENCODING 33
SWIDTH 624 0
DWIDTH 13 0
BBX 4 16 4 0
BITMAP
70
70
70
70
70
70
60
60
60
60
20
00
00
70
F0
70
ENDCHAR
STARTCHAR 0022
ENCODING 34
SWIDTH 624 0
DWIDTH 13 0
BBX 8 6 2 10
BITMAP
E3
E3
E3
E3
E3
E3
ENDCHAR
STARTCHAR 0023
ENCODING 35
SWIDTH 624 0
DWIDTH 13 0
BBX 13 16 0 0
BITMAP
0670
0660
0E60
0CE0
7FF8
7FF8
1CC0
19C0
19C0
1980
FFE0
FFE0
3380
3300
3300
7700
ENDCHAR
STARTCHAR 0024
ENCODING 36
SWIDTH 624 0
DWIDTH 13 0
BBX 9 19 2 -3
BITMAP
1800
1800
1800
7F00
FF00
E900
C800
E800
FC00
7F00
1F80
0B80
0B80
8B80
FF00
FE00
1800
1800
1800
ENDCHAR
STARTCHAR 0025
ENCODING 37
SWIDTH 624 0
DWIDTH 13 0
BBX 12 15 0 0
BITMAP
7C00
7C00
C600
C600
EE10
7C70
39C0
0F00
39E0
E3F0
83F0
0310
03F0
03F0
01E0
ENDCHAR
STARTCHAR 0026
ENCODING 38
SWIDTH 624 0
DWIDTH 13 0
BBX 13 16 0 0
BITMAP
0F80
1F80
3D80
3800
3800
1C00
1E00
3E00
7730
67B0
E3B0
E1F0
71E0
7FE0
3FF0
1F78
ENDCHAR
STARTCHAR 0027
ENCODING 39
SWIDTH 624 0
DWIDTH 13 0
BBX 3 6 5 10
BITMAP
E0
E0
E0
E0
E0
E0
ENDCHAR
STARTCHAR 0028
ENCODING 40
SWIDTH 624 0
DWIDTH 13 0
BBX 5 19 3 -3
BITMAP
18
38
30
70
60
E0
E0
E0
E0
E0
E0
E0
E0
E0
60
70
30
38
18
ENDCHAR
STARTCHAR 0029
ENCODING 41
SWIDTH 624 0
DWIDTH 13 0
BBX 6 19 4 -3
BITMAP
E0
60
70
30
38
38
18
1C
1C
1C
1C
1C
18
38
38
30
70
60
E0
ENDCHAR
STARTCHAR 002A
ENCODING 42
SWIDTH 624 0
DWIDTH 13 0
BBX 11 11 1 4
BITMAP
0C00
0C00
0C00
CC40
FFE0
3F80
1E00
1F00
3300
7180
2080
ENDCHAR
STARTCHAR 002B
ENCODING 43
SWIDTH 624 0
DWIDTH 13 0
BBX 11 12 1 1
BITMAP
0C00
0C00
0C00
0C00
0C00
FFE0
FFE0
0C00
0C00
0C00
0C00
0C00
ENDCHAR
STARTCHAR 002C
ENCODING 44
SWIDTH 624 0
DWIDTH 13 0
BBX 4 8 4 -5
BITMAP
70
F0
70
30
30
60
C0
80
ENDCHAR
STARTCHAR 002D
ENCODING 45
SWIDTH 624 0
DWIDTH 13 0
BBX 8 2 2 5
BITMAP
FF
FF
ENDCHAR
STARTCHAR 002E
ENCODING 46
SWIDTH 624 0
DWIDTH 13 0
BBX 4 4 4 0
BITMAP
60
F0
F0
60
ENDCHAR
STARTCHAR 002F
ENCODING 47
SWIDTH 624 0
DWIDTH 13 0
BBX 10 17 1 -1
BITMAP
00C0
01C0
0180
0180
0300
0300
0600
0600
0E00
0C00
1C00
1800
3800
3000
3000
6000
E000
ENDCHAR
STARTCHAR 0030
ENCODING 48
SWIDTH 624 0
DWIDTH 13 0
BBX 10 16 1 0
BITMAP
1E00
3F80
7F80
71C0
71C0
E5C0
E5C0
E5C0
E5C0
E5C0
E5C0
71C0
71C0
7F80
3F80
1E00
ENDCHAR
STARTCHAR 0031
ENCODING 49
SWIDTH 624 0
DWIDTH 13 0
BBX 10 16 2 0
BITMAP
1C00
3C00
7C00
FC00
DC00
9C00
1C00
1C00
1C00
1C00
1C00
1C00
1C00
FFC0
FFC0
FFC0
ENDCHAR
STARTCHAR 0032
ENCODING 50
SWIDTH 624 0
DWIDTH 13 0
BBX 10 16 1 0
BITMAP
3E00
FF80
F780
83C0
01C0
01C0
0380
0780
0700
0E00
1C00
3800
7000
E000
FFC0
FFC0
ENDCHAR
STARTCHAR 0033
ENCODING 51
SWIDTH 624 0
DWIDTH 13 0
BBX 10 16 1 0
BITMAP
7F00
7F80
77C0
01C0
01C0
0380
1F80
1F00
0780
01C0
01C0
01C0
81C0
F7C0
FF80
7F00
ENDCHAR
STARTCHAR 0034
ENCODING 52
SWIDTH 624 0
DWIDTH 13 0
BBX 11 16 1 0
BITMAP
0780
0780
0F80
0F80
1F80
1B80
3380
7380
6380
E380
FFE0
FFE0
FFE0
0380
0380
0380
ENDCHAR
STARTCHAR 0035
ENCODING 53
SWIDTH 624 0
DWIDTH 13 0
BBX 10 16 1 0
BITMAP
7F80
7F80
6000
6000
6000
6000
7F00
7F80
43C0
01C0
01C0
01C0
01C0
FF80
FF80
7E00
ENDCHAR
STARTCHAR 0036
ENCODING 54
SWIDTH 624 0
DWIDTH 13 0
BBX 10 16 1 0
BITMAP
0F80
3F80
3D80
7000
7000
6000
FF80
FFC0
F1C0
F1C0
F0C0
70C0
71C0
7BC0
3F80
1F00
ENDCHAR
STARTCHAR 0037
ENCODING 55
SWIDTH 624 0
DWIDTH 13 0
BBX 10 16 1 0
BITMAP
FFC0
FFC0
01C0
0380
0380
0380
0700
0700
0700
0E00
0E00
1C00
1C00
1C00
3800
3800
ENDCHAR
STARTCHAR 0038
ENCODING 56
SWIDTH 624 0
DWIDTH 13 0
BBX 10 16 1 0
BITMAP
1F00
3F80
7FC0
71C0
61C0
71C0
7F80
1F00
3F80
71C0
E1C0
E0C0
E1C0
7FC0
7F80
1F00
ENDCHAR
STARTCHAR 0039
ENCODING 57
SWIDTH 624 0
DWIDTH 13 0
BBX 10 16 1 0
BITMAP
1E00
7F80
7F80
E1C0
E1C0
E1C0
E1C0
F3C0
7FC0
3FC0
01C0
01C0
03C0
7F80
7F00
7E00
ENDCHAR
STARTCHAR 003A
ENCODING 58
SWIDTH 624 0
DWIDTH 13 0
BBX 3 12 5 0
BITMAP
E0
E0
E0
E0
00
00
00
00
E0
E0
E0
E0
ENDCHAR
STARTCHAR 003B
ENCODING 59
SWIDTH 624 0
DWIDTH 13 0
BBX 4 17 4 -5
BITMAP
70
F0
F0
70
00
00
00
00
70
70
F0
70
30
30
60
E0
80
ENDCHAR
STARTCHAR 003C
ENCODING 60
SWIDTH 624 0
DWIDTH 13 0
BBX 11 11 1 1
BITMAP
0060
01E0
0FE0
3F00
F800
E000
F800
3F00
07E0
01E0
0020
ENDCHAR
STARTCHAR 003D
ENCODING 61
SWIDTH 624 0
DWIDTH 13 0
BBX 11 7 1 3
BITMAP
FFE0
FFE0
0000
0000
0000
FFE0
FFE0
ENDCHAR
STARTCHAR 003E
ENCODING 62
SWIDTH 624 0
DWIDTH 13 0
BBX 11 11 1 1
BITMAP
8000
F000
FC00
3F80
07E0
00E0
07E0
3F80
FC00
E000
8000
ENDCHAR
STARTCHAR 003F
ENCODING 63
SWIDTH 624 0
DWIDTH 13 0
BBX 9 16 2 0
BITMAP
3E00
FF00
FF80
8380
0380
0300
0700
0E00
1C00
1800
1800
0000
0000
1800
3C00
1800
ENDCHAR
STARTCHAR 0040
ENCODING 64
SWIDTH 624 0
DWIDTH 13 0
BBX 12 18 0 -3
BITMAP
0F80
1FE0
3FE0
7030
67F0
EFF0
CE70
CC30
CC30
CC30
CE70
C7F0
63B0
6000
7000
3EE0
1FF0
07C0
ENDCHAR
STARTCHAR 0041
ENCODING 65
SWIDTH 624 0
DWIDTH 13 0
BBX 12 16 0 0
BITMAP
0F00
0F00
0F80
0F80
1D80
1DC0
19C0
19C0
39C0
3FE0
3FE0
7FE0
70E0
7070
7070
E070
ENDCHAR
STARTCHAR 0042
ENCODING 66
SWIDTH 624 0
DWIDTH 13 0
BBX 11 16 1 0
BITMAP
FF00
FF80
E7C0
E1C0
E1C0
E1C0
E7C0
FF00
FF80
E1C0
E0E0
E0E0
E0E0
E7E0
FFC0
FF80
ENDCHAR
STARTCHAR 0043
ENCODING 67
SWIDTH 624 0
DWIDTH 13 0
BBX 10 16 1 0
BITMAP
0F80
1FC0
3FC0
7840
7000
7000
7000
F000
F000
7000
7000
7000
7840
3FC0
1FC0
0FC0
ENDCHAR
STARTCHAR 0044
ENCODING 68
SWIDTH 624 0
DWIDTH 13 0
BBX 11 16 1 0
BITMAP
FE00
FF80
E780
E1C0
E1C0
E1C0
E1E0
E1E0
E1E0
E1E0
E1C0
E1C0
E1C0
E780
FF80
FE00
ENDCHAR
STARTCHAR 0045
ENCODING 69
SWIDTH 624 0
DWIDTH 13 0
BBX 9 16 2 0
BITMAP
FF80
FF80
E000
E000
E000
E000
E000
FF80
FF80
E000
E000
E000
E000
E000
FF80
FF80
ENDCHAR
STARTCHAR 0046
ENCODING 70
SWIDTH 624 0
DWIDTH 13 0
BBX 9 16 2 0
BITMAP
FF80
FF80
E000
E000
E000
E000
E000
FF80
FF80
E000
E000
E000
E000
E000
E000
E000
ENDCHAR
STARTCHAR 0047
ENCODING 71
SWIDTH 624 0
DWIDTH 13 0
BBX 10 16 1 0
BITMAP
0F80
3FC0
7DC0
7040
7000
F000
E000
E000
E3C0
E3C0
F0C0
70C0
70C0
7DC0
3FC0
0F80
ENDCHAR
STARTCHAR 0048
ENCODING 72
SWIDTH 624 0
DWIDTH 13 0
BBX 10 16 1 0
BITMAP
E1C0
E1C0
E1C0
E1C0
E1C0
E1C0
E1C0
FFC0
FFC0
E1C0
E1C0
E1C0
E1C0
E1C0
E1C0
E1C0
ENDCHAR
STARTCHAR 0049
ENCODING 73
SWIDTH 624 0
DWIDTH 13 0
BBX 9 16 2 0
BITMAP
FF80
FF80
1C00
1C00
1C00
1C00
1C00
1C00
1C00
1C00
1C00
1C00
1C00
1C00
FF80
FF80
ENDCHAR
STARTCHAR 004A
ENCODING 74
SWIDTH 624 0
DWIDTH 13 0
BBX 9 16 1 0
BITMAP
1F80
1F80
0380
0380
0380
0380
0380
0380
0380
0380
0380
0380
8380
FF80
FF00
7E00
ENDCHAR
STARTCHAR 004B
ENCODING 75
SWIDTH 624 0
DWIDTH 13 0
BBX 11 16 1 0
BITMAP
E0E0
E1C0
E380
E780
E700
EE00
FE00
FE00
FF00
F700
E780
E380
E3C0
E1C0
E1E0
E0E0
ENDCHAR
STARTCHAR 004C
ENCODING 76
SWIDTH 624 0
DWIDTH 13 0
BBX 10 16 2 0
BITMAP
E000
E000
E000
E000
E000
E000
E000
E000
E000
E000
E000
E000
E000
FFC0
FFC0
FFC0
ENDCHAR
STARTCHAR 004D
ENCODING 77
SWIDTH 624 0
DWIDTH 13 0
BBX 11 16 1 0
BITMAP
F1E0
F1E0
F3E0
D3E0
DBE0
DBE0
DEE0
DEE0
CEE0
CEE0
C0E0
C0E0
C0E0
C0E0
C0E0
C0E0
ENDCHAR
STARTCHAR 004E
ENCODING 78
SWIDTH 624 0
DWIDTH 13 0
BBX 10 16 1 0
BITMAP
F0C0
F0C0
F0C0
F8C0
F8C0
F8C0
ECC0
ECC0
EEC0
E6C0
E6C0
E7C0
E3C0
E3C0
E1C0
E1C0
ENDCHAR
STARTCHAR 004F
ENCODING 79
SWIDTH 624 0
DWIDTH 13 0
BBX 11 16 1 0
BITMAP
1F00
3F80
7FC0
71C0
E1C0
E1C0
E1E0
E1E0
E1E0
E1E0
E1C0
E1C0
71C0
7FC0
3F80
1F00
ENDCHAR
STARTCHAR 0050
ENCODING 80
SWIDTH 624 0
DWIDTH 13 0
BBX 10 16 2 0
BITMAP
FE00
FF80
EF80
E3C0
E1C0
E1C0
E3C0
EF80
FF80
FE00
E000
E000
E000
E000
E000
E000
ENDCHAR
STARTCHAR 0051
ENCODING 81
SWIDTH 624 0
DWIDTH 13 0
BBX 12 19 1 -3
BITMAP
1F00
3F80
7FC0
71C0
E1C0
E1C0
E1E0
E1E0
E1E0
E1E0
E1C0
E1C0
71C0
7FC0
3F80
1F00
0380
01C0
01F0
ENDCHAR
STARTCHAR 0052
ENCODING 82
SWIDTH 624 0
DWIDTH 13 0
BBX 12 16 1 0
BITMAP
FF00
FF80
E7C0
E1C0
E1C0
E1C0
E1C0
E7C0
FF00
FF00
E780
E380
E1C0
E1C0
E0E0
E0F0
ENDCHAR
STARTCHAR 0053
ENCODING 83
SWIDTH 624 0
DWIDTH 13 0
BBX 10 16 1 0
BITMAP
1F00
7F80
7B80
E040
E000
F000
7C00
3F00
1F80
03C0
01C0
01C0
81C0
FFC0
FF80
3F00
ENDCHAR
STARTCHAR 0054
ENCODING 84
SWIDTH 624 0
DWIDTH 13 0
BBX 11 16 1 0
BITMAP
FFE0
FFE0
0E00
0E00
0E00
0E00
0E00
0E00
0E00
0E00
0E00
0E00
0E00
0E00
0E00
0E00
ENDCHAR
STARTCHAR 0055
ENCODING 85
SWIDTH 624 0
DWIDTH 13 0
BBX 10 16 1 0
BITMAP
E1C0
E1C0
E1C0
E1C0
E1C0
E1C0
E1C0
E1C0
E1C0
E1C0
E1C0
E1C0
F1C0
7FC0
7F80
1F00
ENDCHAR
STARTCHAR 0056
ENCODING 86
SWIDTH 624 0
DWIDTH 13 0
BBX 11 16 1 0
BITMAP
E0E0
E0E0
E1C0
E1C0
61C0
71C0
7180
7380
7380
3380
3B80
3B00
3F00
1F00
1F00
1E00
ENDCHAR
STARTCHAR 0057
ENCODING 87
SWIDTH 624 0
DWIDTH 13 0
BBX 13 16 0 0
BITMAP
E038
E030
E030
E030
6730
6770
6770
6F70
6F70
7DF0
7DE0
7DE0
79E0
39E0
38E0
38E0
ENDCHAR
STARTCHAR 0058
ENCODING 88
SWIDTH 624 0
DWIDTH 13 0
BBX 12 16 0 0
BITMAP
F070
70E0
38E0
39C0
1DC0
1F80
0F80
0700
0F00
0F80
1F80
1DC0
39C0
38E0
70E0
F070
ENDCHAR
STARTCHAR 0059
ENCODING 89
SWIDTH 624 0
DWIDTH 13 0
BBX 12 16 0 0
BITMAP
F070
7070
70E0
38E0
39C0
1DC0
1F80
0F80
0F00
0700
0700
0700
0700
0700
0700
0700
ENDCHAR
STARTCHAR 005A
ENCODING 90
SWIDTH 624 0
DWIDTH 13 0
BBX 11 16 1 0
BITMAP
FFC0
FFC0
01C0
03C0
0380
0700
0F00
0E00
1E00
1C00
3800
7800
7000
E000
FFE0
FFE0
ENDCHAR
STARTCHAR 005B
ENCODING 91
SWIDTH 624 0
DWIDTH 13 0
BBX 7 20 3 -3
BITMAP
FE
FE
E0
E0
E0
E0
E0
E0
E0
E0
E0
E0
E0
E0
E0
E0
E0
E0
FE
FE
ENDCHAR
STARTCHAR 005C
ENCODING 92
SWIDTH 624 0
DWIDTH 13 0
BBX 10 17 1 -1
BITMAP
E000
6000
7000
3000
3000
1800
1800
0C00
0C00
0E00
0600
0700
0300
0380
0180
0180
00C0
ENDCHAR
STARTCHAR 005D
ENCODING 93
SWIDTH 624 0
DWIDTH 13 0
BBX 8 20 2 -3
BITMAP
FF
FF
07
07
07
07
07
07
07
07
07
07
07
07
07
07
07
07
FF
FF
ENDCHAR
STARTCHAR 005E
ENCODING 94
SWIDTH 624 0
DWIDTH 13 0
BBX 11 6 1 10
BITMAP
0E00
1F00
3F00
7B80
71C0
E0E0
ENDCHAR
STARTCHAR 005F
ENCODING 95
SWIDTH 624 0
DWIDTH 13 0
BBX 11 2 1 -4
BITMAP
FFE0
FFE0
ENDCHAR
STARTCHAR 0060
ENCODING 96
SWIDTH 624 0
DWIDTH 13 0
BBX 6 4 2 13
BITMAP
E0
70
38
1C
ENDCHAR
STARTCHAR 0061
ENCODING 97
SWIDTH 624 0
DWIDTH 13 0
BBX 11 12 1 0
BITMAP
3F00
7F80
7BC0
01C0
3FC0
7FC0
FDC0
E1C0
E1C0
FFC0
7FC0
3CE0
ENDCHAR
STARTCHAR 0062
ENCODING 98
SWIDTH 624 0
DWIDTH 13 0
BBX 10 16 2 0
BITMAP
E000
E000
E000
E000
EE00
FF00
F780
E380
E1C0
E1C0
E1C0
E3C0
E380
F780
DF00
CE00
ENDCHAR
STARTCHAR 0063
ENCODING 99
SWIDTH 624 0
DWIDTH 13 0
BBX 9 12 2 0
BITMAP
1F00
7F80
FB80
E080
E000
E000
E000
E000
E080
FB80
7F80
1F00
ENDCHAR
STARTCHAR 0064
ENCODING 100
SWIDTH 624 0
DWIDTH 13 0
BBX 10 16 1 0
BITMAP
01C0
01C0
01C0
01C0
3DC0
7FC0
7FC0
E1C0
E1C0
E1C0
E1C0
E1C0
E1C0
7FC0
7FC0
3DC0
ENDCHAR
STARTCHAR 0065
ENCODING 101
SWIDTH 624 0
DWIDTH 13 0
BBX 11 12 1 0
BITMAP
1F00
7F80
7BC0
E1C0
E0C0
FFE0
FFE0
E000
E040
7FC0
7FC0
1F80
ENDCHAR
STARTCHAR 0066
ENCODING 102
SWIDTH 624 0
DWIDTH 13 0
BBX 9 16 2 0
BITMAP
0F80
1F80
3C00
3800
FF80
FF80
3800
3800
3800
3800
3800
3800
3800
3800
3800
3800
ENDCHAR
STARTCHAR 0067
ENCODING 103
SWIDTH 624 0
DWIDTH 13 0
BBX 10 16 1 -4
BITMAP
3DC0
7FC0
7FC0
F1C0
E1C0
E1C0
E1C0
E1C0
F1C0
7BC0
7FC0
3DC0
01C0
77C0
7F80
7F00
ENDCHAR
STARTCHAR 0068
ENCODING 104
SWIDTH 624 0
DWIDTH 13 0
BBX 9 16 2 0
BITMAP
E000
E000
E000
E000
EE00
FF00
F780
E380
E380
E380
E380
E380
E380
E380
E380
E380
ENDCHAR
STARTCHAR 0069
ENCODING 105
SWIDTH 624 0
DWIDTH 13 0
BBX 9 16 2 0
BITMAP
3800
3800
3800
0000
F800
F800
3800
3800
3800
3800
3800
3800
3800
1E00
1F80
0F80
ENDCHAR
STARTCHAR 006A
ENCODING 106
SWIDTH 624 0
DWIDTH 13 0
BBX 7 20 2 -4
BITMAP
0E
0E
0E
00
7E
7E
0E
0E
0E
0E
0E
0E
0E
0E
0E
0E
0E
3E
FC
F8
ENDCHAR
STARTCHAR 006B
ENCODING 107
SWIDTH 624 0
DWIDTH 13 0
BBX 10 16 2 0
BITMAP
E000
E000
E000
E000
E3C0
E780
EF00
FE00
FC00
FC00
FE00
EE00
E700
E780
E380
E1C0
ENDCHAR
STARTCHAR 006C
ENCODING 108
SWIDTH 624 0
DWIDTH 13 0
BBX 10 16 1 0
BITMAP
FC00
FC00
1C00
1C00
1C00
1C00
1C00
1C00
1C00
1C00
1C00
1C00
1C00
1F00
0FC0
07C0
ENDCHAR
STARTCHAR 006D
ENCODING 109
SWIDTH 624 0
DWIDTH 13 0
BBX 11 12 1 0
BITMAP
D9C0
FFC0
FEE0
CEE0
CEE0
CEE0
CEE0
CEE0
CEE0
CEE0
CEE0
CEE0
ENDCHAR
STARTCHAR 006E
ENCODING 110
SWIDTH 624 0
DWIDTH 13 0
BBX 9 12 2 0
BITMAP
CE00
FF00
F780
E380
E380
E380
E380
E380
E380
E380
E380
E380
ENDCHAR
STARTCHAR 006F
ENCODING 111
SWIDTH 624 0
DWIDTH 13 0
BBX 11 12 1 0
BITMAP
1F00
3F80
7FC0
F1C0
E1C0
E0E0
E0E0
E1C0
F1C0
7FC0
3F80
1F00
ENDCHAR
STARTCHAR 0070
ENCODING 112
SWIDTH 624 0
DWIDTH 13 0
BBX 10 16 2 -4
BITMAP
CE00
DF00
F780
E380
E1C0
E1C0
E1C0
E3C0
E380
F780
FF00
EE00
E000
E000
E000
E000
ENDCHAR
STARTCHAR 0071
ENCODING 113
SWIDTH 624 0
DWIDTH 13 0
BBX 10 16 1 -4
BITMAP
3DC0
7FC0
7FC0
E1C0
E1C0
E1C0
E1C0
E1C0
E1C0
7FC0
7FC0
3DC0
01C0
01C0
01C0
01C0
ENDCHAR
STARTCHAR 0072
ENCODING 114
SWIDTH 624 0
DWIDTH 13 0
BBX 9 12 2 0
BITMAP
E780
EF80
FD80
F080
F000
E000
E000
E000
E000
E000
E000
E000
ENDCHAR
STARTCHAR 0073
ENCODING 115
SWIDTH 624 0
DWIDTH 13 0
BBX 9 12 2 0
BITMAP
3E00
FF00
F700
E080
E000
7E00
3F00
0380
8380
EF80
FF00
7E00
ENDCHAR
STARTCHAR 0074
ENCODING 116
SWIDTH 624 0
DWIDTH 13 0
BBX 10 17 1 0
BITMAP
0400
0C00
1C00
1C00
1C00
FFC0
FFC0
1C00
1C00
1C00
1C00
1C00
1C00
1C00
1E00
1FC0
0FC0
ENDCHAR
STARTCHAR 0075
ENCODING 117
SWIDTH 624 0
DWIDTH 13 0
BBX 9 12 2 0
BITMAP
E380
E380
E380
E380
E380
E380
E380
E380
E780
FF80
FF80
7B80
ENDCHAR
STARTCHAR 0076
ENCODING 118
SWIDTH 624 0
DWIDTH 13 0
BBX 11 12 1 0
BITMAP
E0E0
E1C0
61C0
71C0
7180
7380
3B80
3B00
3F00
1F00
1F00
1E00
ENDCHAR
STARTCHAR 0077
ENCODING 119
SWIDTH 624 0
DWIDTH 13 0
BBX 13 12 0 0
BITMAP
E038
E030
E030
6730
6770
6770
6F60
7D60
7DE0
39E0
39E0
38E0
ENDCHAR
STARTCHAR 0078
ENCODING 120
SWIDTH 624 0
DWIDTH 13 0
BBX 11 12 1 0
BITMAP
F1E0
73C0
3B80
3F00
1F00
0E00
1E00
1F00
3B80
7380
71C0
E1E0
ENDCHAR
STARTCHAR 0079
ENCODING 121
SWIDTH 624 0
DWIDTH 13 0
BBX 11 16 1 -4
BITMAP
E0E0
E1E0
71C0
71C0
7380
3B80
3B80
1F00
1F00
1F00
0E00
0E00
0C00
1C00
FC00
F800
ENDCHAR
STARTCHAR 007A
ENCODING 122
SWIDTH 624 0
DWIDTH 13 0
BBX 9 12 2 0
BITMAP
FF80
FF80
0380
0700
0E00
1C00
3C00
7800
F000
E000
FF80
FF80
ENDCHAR
STARTCHAR 007B
ENCODING 123
SWIDTH 624 0
DWIDTH 13 0
BBX 9 20 1 -4
BITMAP
0780
0F80
0F00
1C00
1C00
1C00
1C00
1C00
1C00
FC00
F800
7C00
1C00
1C00
1C00
1C00
1C00
1C00
0F80
0F80
ENDCHAR
STARTCHAR 007C
ENCODING 124
SWIDTH 624 0
DWIDTH 13 0
BBX 2 21 5 -5
BITMAP
C0
C0
C0
C0
C0
C0
C0
C0
C0
C0
C0
C0
C0
C0
C0
C0
C0
C0
C0
C0
C0
ENDCHAR
STARTCHAR 007D
ENCODING 125
SWIDTH 624 0
DWIDTH 13 0
BBX 10 20 2 -4
BITMAP
F800
FC00
3C00
1C00
1C00
1C00
1C00
1C00
0E00
0FC0
07C0
0F00
1C00
1C00
1C00
1C00
1C00
1C00
FC00
F800
ENDCHAR
STARTCHAR 007E
ENCODING 126
SWIDTH 624 0
DWIDTH 13 0
BBX 11 6 1 3
BITMAP
78E0
7CE0
FCE0
CFC0
C7C0
C380
ENDCHAR
STARTCHAR 00A0
ENCODING 160
SWIDTH 624 0
DWIDTH 13 0
BBX 0 0 0 0
BITMAP
ENDCHAR
STARTCHAR 00A1
ENCODING 161
SWIDTH 624 0
DWIDTH 13 0
BBX 4 17 4 -1
BITMAP
60
70
F0
60
00
00
20
60
60
60
60
70
70
70
70
70
70
ENDCHAR
STARTCHAR 00A2
ENCODING 162
SWIDTH 624 0
DWIDTH 13 0
BBX 9 18 2 -3
BITMAP
0400
0400
0400
3F00
7F80
F580
E400
C400
C400
C400
C400
E400
F580
7F80
1F00
0400
0400
0400
ENDCHAR
STARTCHAR 00A3
ENCODING 163
SWIDTH 624 0
DWIDTH 13 0
BBX 10 16 1 0
BITMAP
07C0
0FC0
1EC0
1C00
1C00
1C00
1C00
1C00
7F80
7F80
1C00
1C00
1C00
1C00
FFC0
FFC0
ENDCHAR
STARTCHAR 00A4
ENCODING 164
SWIDTH 624 0
DWIDTH 13 0
BBX 9 9 2 2
BITMAP
C180
FF80
7F00
6300
6300
6300
7F00
FF80
C180
ENDCHAR
STARTCHAR 00A5
ENCODING 165
SWIDTH 624 0
DWIDTH 13 0
BBX 12 16 0 0
BITMAP
F070
7070
70E0
38E0
39C0
1DC0
7FF0
7FF0
0F00
7FF0
7FF0
0700
0700
0700
0700
0700
ENDCHAR
STARTCHAR 00A6
ENCODING 166
SWIDTH 624 0
DWIDTH 13 0
BBX 2 19 5 -4
BITMAP
C0
C0
C0
C0
C0
C0
C0
C0
00
00
00
C0
C0
C0
C0
C0
C0
C0
C0
ENDCHAR
STARTCHAR 00A7
ENCODING 167
SWIDTH 624 0
DWIDTH 13 0
BBX 9 18 2 -2
BITMAP
3E00
7E00
F600
E000
7000
7800
7E00
EF00
C380
E380
7380
3F00
1E00
0700
0700
7F00
7F00
7E00
ENDCHAR
STARTCHAR 00A8
ENCODING 168
SWIDTH 624 0
DWIDTH 13 0
BBX 6 2 3 14
BITMAP
CC
CC
ENDCHAR
STARTCHAR 00A9
ENCODING 169
SWIDTH 624 0
DWIDTH 13 0
BBX 13 13 0 2
BITMAP
0F80
38C0
6020
4FB0
D890
9810
9818
9810
D890
4FB0
6020
30C0
0F80
ENDCHAR
STARTCHAR 00AA
ENCODING 170
SWIDTH 624 0
DWIDTH 13 0
BBX 7 10 3 5
BITMAP
FC
8E
06
FE
C6
CE
FE
00
00
FE
ENDCHAR
STARTCHAR 00AB
ENCODING 171
SWIDTH 624 0
DWIDTH 13 0
BBX 9 10 1 1
BITMAP
0880
1180
3380
E700
CE00
CE00
7700
3180
1080
0880
ENDCHAR
STARTCHAR 00AC
ENCODING 172
SWIDTH 624 0
DWIDTH 13 0
BBX 11 5 1 4
BITMAP
FFE0
FFE0
00E0
00E0
00E0
ENDCHAR
STARTCHAR 00AD
ENCODING 173
SWIDTH 624 0
DWIDTH 13 0
BBX 6 2 3 5
BITMAP
FC
FC
ENDCHAR
STARTCHAR 00AE
ENCODING 174
SWIDTH 624 0
DWIDTH 13 0
BBX 13 13 0 2
BITMAP
0F80
38C0
6060
4030
CF10
8990
8F18
8910
C990
49B0
6020
30C0
1F80
ENDCHAR
STARTCHAR 00AF
ENCODING 175
SWIDTH 624 0
DWIDTH 13 0
BBX 6 2 3 14
BITMAP
FC
FC
ENDCHAR
STARTCHAR 00B0
ENCODING 176
SWIDTH 624 0
DWIDTH 13 0
BBX 7 7 3 9
BITMAP
78
FC
C6
C6
C6
FC
78
ENDCHAR
STARTCHAR 00B1
ENCODING 177
SWIDTH 624 0
DWIDTH 13 0
BBX 11 13 1 0
BITMAP
0C00
0C00
0C00
0C00
FFE0
FFE0
0C00
0C00
0C00
0C00
0000
FFE0
FFE0
ENDCHAR
STARTCHAR 00B2
ENCODING 178
SWIDTH 624 0
DWIDTH 13 0
BBX 7 9 3 11
BITMAP
F8
DC
0E
0C
18
38
60
C0
FE
ENDCHAR
STARTCHAR 00B3
ENCODING 179
SWIDTH 624 0
DWIDTH 13 0
BBX 7 9 3 11
BITMAP
F8
CC
06
0C
38
0C
06
CE
FC
ENDCHAR
STARTCHAR 00B4
ENCODING 180
SWIDTH 624 0
DWIDTH 13 0
BBX 6 4 5 13
BITMAP
3C
30
60
C0
ENDCHAR
STARTCHAR 00B5
ENCODING 181
SWIDTH 624 0
DWIDTH 13 0
BBX 10 16 2 -4
BITMAP
C380
C380
C380
C380
C380
C380
C380
C380
E380
FFC0
FFC0
DDC0
C000
C000
C000
E000
ENDCHAR
STARTCHAR 00B6
ENCODING 182
SWIDTH 624 0
DWIDTH 13 0
BBX 10 18 1 -2
BITMAP
3FC0
7FC0
FCC0
FCC0
FCC0
FCC0
FCC0
7CC0
3CC0
0CC0
0CC0
0CC0
0CC0
0CC0
0CC0
0CC0
0CC0
0CC0
ENDCHAR
STARTCHAR 00B7
ENCODING 183
SWIDTH 624 0
DWIDTH 13 0
BBX 3 4 5 6
BITMAP
C0
E0
E0
C0
ENDCHAR
STARTCHAR 00B8
ENCODING 184
SWIDTH 624 0
DWIDTH 13 0
BBX 4 4 4 -4
BITMAP
30
10
F0
F0
ENDCHAR
STARTCHAR 00B9
ENCODING 185
SWIDTH 624 0
DWIDTH 13 0
BBX 7 9 3 11
BITMAP
F0
F0
30
30
30
30
30
30
FE
ENDCHAR
STARTCHAR 00BA
ENCODING 186
SWIDTH 624 0
DWIDTH 13 0
BBX 7 10 3 5
BITMAP
7C
EE
C6
C6
C6
EE
7C
00
00
FE
ENDCHAR
STARTCHAR 00BB
ENCODING 187
SWIDTH 624 0
DWIDTH 13 0
BBX 9 10 3 1
BITMAP
8800
8C00
CE00
6700
3180
3380
E700
CE00
8800
8800
ENDCHAR
STARTCHAR 00BC
ENCODING 188
SWIDTH 624 0
DWIDTH 13 0
BBX 12 20 0 -3
BITMAP
7800
7800
1800
1800
1800
1800
1800
7E00
7E10
01F0
1F00
F000
00C0
01C0
03C0
06C0
0CC0
0FE0
00C0
00C0
ENDCHAR
STARTCHAR 00BD
ENCODING 189
SWIDTH 624 0
DWIDTH 13 0
BBX 12 20 0 -3
BITMAP
7800
7800
1800
1800
1800
1800
1800
7E00
7E20
07F0
FC00
47C0
0460
0070
0060
00C0
0180
0300
07F0
07F0
ENDCHAR
STARTCHAR 00BE
ENCODING 190
SWIDTH 624 0
DWIDTH 13 0
BBX 12 20 0 -3
BITMAP
7C00
4600
0600
3E00
3E00
0600
0600
8600
7E00
01F0
1F80
F800
00C0
01C0
03C0
06C0
0CC0
0FE0
00C0
00C0
ENDCHAR
STARTCHAR 00BF
ENCODING 191
SWIDTH 624 0
DWIDTH 13 0
BBX 8 16 2 0
BITMAP
0C
1C
0C
00
1C
1C
1C
1C
38
70
E0
E0
E1
F7
7F
3E
ENDCHAR
STARTCHAR 00C0
ENCODING 192
SWIDTH 624 0
DWIDTH 13 0
BBX 12 20 0 0
BITMAP
1C00
0C00
0600
0300
0F00
0F00
0F80
0F80
1D80
1DC0
19C0
19C0
39C0
3FE0
3FE0
7FE0
70E0
7070
7070
E070
ENDCHAR
STARTCHAR 00C1
ENCODING 193
SWIDTH 624 0
DWIDTH 13 0
BBX 12 20 0 0
BITMAP
01C0
0380
0700
0600
0F00
0F00
0F80
0F80
1D80
1DC0
19C0
19C0
39C0
3FE0
3FE0
7FE0
70E0
7070
7070
E070
ENDCHAR
STARTCHAR 00C2
ENCODING 194
SWIDTH 624 0
DWIDTH 13 0
BBX 12 20 0 0
BITMAP
0700
0F80
1980
30C0
0F00
0F00
0F80
0F80
1D80
1DC0
19C0
19C0
39C0
3FE0
3FE0
7FE0
70E0
7070
7070
E070
ENDCHAR
STARTCHAR 00C3
ENCODING 195
SWIDTH 624 0
DWIDTH 13 0
BBX 12 19 0 0
BITMAP
1CC0
1FC0
1380
0F00
0F00
0F80
0F80
1D80
1DC0
19C0
19C0
39C0
3FE0
3FE0
7FE0
70E0
7070
7070
E070
ENDCHAR
STARTCHAR 00C4
ENCODING 196
SWIDTH 624 0
DWIDTH 13 0
BBX 12 20 0 0
BITMAP
1980
1980
1980
0000
0F00
0F00
0F80
0F80
1D80
1DC0
19C0
19C0
39C0
3FE0
3FE0
7FE0
70E0
7070
7070
E070
ENDCHAR
STARTCHAR 00C5
ENCODING 197
SWIDTH 624 0
DWIDTH 13 0
BBX 12 19 0 0
BITMAP
0700
0F80
1880
1F80
0F00
0F80
0F80
0D80
1DC0
19C0
19C0
39C0
3FE0
3FE0
3FE0
70E0
7070
7070
E070
ENDCHAR
STARTCHAR 00C6
ENCODING 198
SWIDTH 624 0
DWIDTH 13 0
BBX 12 16 0 0
BITMAP
0FF0
1FF0
1B80
1B80
1B80
3B80
3B80
33E0
33E0
7380
7F80
7F80
6380
6380
E3F0
E3F0
ENDCHAR
STARTCHAR 00C7
ENCODING 199
SWIDTH 624 0
DWIDTH 13 0
BBX 10 20 1 -4
BITMAP
0F80
1FC0
3FC0
7840
7000
7000
7000
F000
F000
F000
7000
7000
7840
3FC0
3FC0
0FC0
0300
0100
0F00
0F00
ENDCHAR
STARTCHAR 00C8
ENCODING 200
SWIDTH 624 0
DWIDTH 13 0
BBX 9 20 2 0
BITMAP
7000
3800
1800
0C00
FF80
FF80
E000
E000
E000
E000
E000
FF80
FF80
E000
E000
E000
E000
E000
FF80
FF80
ENDCHAR
STARTCHAR 00C9
ENCODING 201
SWIDTH 624 0
DWIDTH 13 0
BBX 9 19 2 0
BITMAP
0700
0C00
1800
FF80
FF80
E000
E000
E000
E000
E000
FF80
FF80
E000
E000
E000
E000
E000
FF80
FF80
ENDCHAR
STARTCHAR 00CA
ENCODING 202
SWIDTH 624 0
DWIDTH 13 0
BBX 9 20 2 0
BITMAP
1C00
3E00
7700
6100
FF80
FF80
E000
E000
E000
E000
E000
FF80
FF80
E000
E000
E000
E000
E000
FF80
FF80
ENDCHAR
STARTCHAR 00CB
ENCODING 203
SWIDTH 624 0
DWIDTH 13 0
BBX 9 19 2 0
BITMAP
7700
7700
0000
FF80
FF80
E000
E000
E000
E000
E000
FF80
FF80
E000
E000
E000
E000
E000
FF80
FF80
ENDCHAR
STARTCHAR 00CC
ENCODING 204
SWIDTH 624 0
DWIDTH 13 0
BBX 9 20 2 0
BITMAP
7000
3000
1800
0C00
FF80
FF80
1C00
1C00
1C00
1C00
1C00
1C00
1C00
1C00
1C00
1C00
1C00
1C00
FF80
FF80
ENDCHAR
STARTCHAR 00CD
ENCODING 205
SWIDTH 624 0
DWIDTH 13 0
BBX 9 20 2 0
BITMAP
0700
0E00
1C00
1800
FF80
FF80
1C00
1C00
1C00
1C00
1C00
1C00
1C00
1C00
1C00
1C00
1C00
1C00
FF80
FF80
ENDCHAR
STARTCHAR 00CE
ENCODING 206
SWIDTH 624 0
DWIDTH 13 0
BBX 9 20 2 0
BITMAP
1C00
3E00
6600
C300
FF80
FF80
1C00
1C00
1C00
1C00
1C00
1C00
1C00
1C00
1C00
1C00
1C00
1C00
FF80
FF80
ENDCHAR
STARTCHAR 00CF
ENCODING 207
SWIDTH 624 0
DWIDTH 13 0
BBX 9 19 2 0
BITMAP
6600
6600
0000
FF80
FF80
1C00
1C00
1C00
1C00
1C00
1C00
1C00
1C00
1C00
1C00
1C00
1C00
FF80
FF80
ENDCHAR
STARTCHAR 00D0
ENCODING 208
SWIDTH 624 0
DWIDTH 13 0
BBX 12 16 0 0
BITMAP
7F00
7FC0
73C0
70E0
70E0
70E0
70F0
FEF0
FEF0
70F0
70E0
70E0
70E0
73C0
7FC0
7F00
ENDCHAR
STARTCHAR 00D1
ENCODING 209
SWIDTH 624 0
DWIDTH 13 0
BBX 10 19 1 0
BITMAP
3980
3F80
2700
F0C0
F0C0
F0C0
F8C0
F8C0
F8C0
ECC0
ECC0
EEC0
E6C0
E6C0
E7C0
E3C0
E3C0
E1C0
E1C0
ENDCHAR
STARTCHAR 00D2
ENCODING 210
SWIDTH 624 0
DWIDTH 13 0
BBX 11 20 1 0
BITMAP
3800
1C00
0E00
0000
1F00
3F80
7FC0
71C0
E1C0
E1C0
E1E0
E1E0
E1E0
E1E0
E1C0
E1C0
71C0
7FC0
3F80
1F00
ENDCHAR
STARTCHAR 00D3
ENCODING 211
SWIDTH 624 0
DWIDTH 13 0
BBX 11 20 1 0
BITMAP
0380
0700
0C00
0000
1F00
3F80
7FC0
71C0
E1C0
E1C0
E1E0
E1E0
E1E0
E1E0
E1C0
E1C0
71C0
7FC0
3F80
1F00
ENDCHAR
STARTCHAR 00D4
ENCODING 212
SWIDTH 624 0
DWIDTH 13 0
BBX 11 20 1 0
BITMAP
0E00
1F00
7180
0000
1F00
3F80
7FC0
71C0
E1C0
E1C0
E1E0
E1E0
E1E0
E1E0
E1C0
E1C0
71C0
7FC0
3F80
1F00
ENDCHAR
STARTCHAR 00D5
ENCODING 213
SWIDTH 624 0
DWIDTH 13 0
BBX 11 19 1 0
BITMAP
3F80
3F00
0000
1F00
3F80
7FC0
71C0
E1C0
E1C0
E1E0
E1E0
E1E0
E1E0
E1C0
E1C0
71C0
7FC0
3F80
1F00
ENDCHAR
STARTCHAR 00D6
ENCODING 214
SWIDTH 624 0
DWIDTH 13 0
BBX 11 19 1 0
BITMAP
3300
3300
0000
1F00
3F80
7FC0
71C0
E1C0
E1C0
E1E0
E1E0
E1E0
E1E0
E1C0
E1C0
71C0
7FC0
3F80
1F00
ENDCHAR
STARTCHAR 00D7
ENCODING 215
SWIDTH 624 0
DWIDTH 13 0
BBX 10 10 1 2
BITMAP
4080
60C0
F1C0
3B80
1F00
0E00
1F00
3B80
F1C0
60C0
ENDCHAR
STARTCHAR 00D8
ENCODING 216
SWIDTH 624 0
DWIDTH 13 0
BBX 12 16 0 0
BITMAP
0FB0
1FF0
3DE0
38E0
71E0
71E0
73F0
77F0
76F0
7CF0
7CE0
78E0
78E0
7FE0
7FC0
CF80
ENDCHAR
STARTCHAR 00D9
ENCODING 217
SWIDTH 624 0
DWIDTH 13 0
BBX 10 20 1 0
BITMAP
3800
1C00
0E00
0000
E1C0
E1C0
E1C0
E1C0
E1C0
E1C0
E1C0
E1C0
E1C0
E1C0
E1C0
E1C0
F1C0
7FC0
7F80
1F00
ENDCHAR
STARTCHAR 00DA
ENCODING 218
SWIDTH 624 0
DWIDTH 13 0
BBX 10 20 1 0
BITMAP
0380
0700
0C00
0000
E1C0
E1C0
E1C0
E1C0
E1C0
E1C0
E1C0
E1C0
E1C0
E1C0
E1C0
E1C0
F1C0
7FC0
7F80
1F00
ENDCHAR
STARTCHAR 00DB
ENCODING 219
SWIDTH 624 0
DWIDTH 13 0
BBX 10 20 1 0
BITMAP
0E00
1F00
7180
0000
E1C0
E1C0
E1C0
E1C0
E1C0
E1C0
E1C0
E1C0
E1C0
E1C0
E1C0
E1C0
F1C0
7FC0
7F80
1F00
ENDCHAR
STARTCHAR 00DC
ENCODING 220
SWIDTH 624 0
DWIDTH 13 0
BBX 10 19 1 0
BITMAP
3300
3300
0000
E1C0
E1C0
E1C0
E1C0
E1C0
E1C0
E1C0
E1C0
E1C0
E1C0
E1C0
E1C0
F1C0
7FC0
7F80
1F00
ENDCHAR
STARTCHAR 00DD
ENCODING 221
SWIDTH 624 0
DWIDTH 13 0
BBX 12 19 0 0
BITMAP
03C0
0700
0000
F070
7070
70E0
38E0
39C0
1DC0
1F80
0F80
0F00
0700
0700
0700
0700
0700
0700
0700
ENDCHAR
STARTCHAR 00DE
ENCODING 222
SWIDTH 624 0
DWIDTH 13 0
BBX 10 16 2 0
BITMAP
E000
E000
E000
FE00
FF80
EF80
E3C0
E1C0
E3C0
E380
FF80
FF00
E000
E000
E000
E000
ENDCHAR
STARTCHAR 00DF
ENCODING 223
SWIDTH 624 0
DWIDTH 13 0
BBX 11 16 1 0
BITMAP
3E00
7F80
7B80
E180
E3C0
E700
EE00
EE00
E700
E780
E1C0
E0E0
E0E0
EDE0
EFC0
EF80
ENDCHAR
STARTCHAR 00E0
ENCODING 224
SWIDTH 624 0
DWIDTH 13 0
BBX 11 18 1 0
BITMAP
7000
3800
1C00
0E00
0000
0000
3F00
7F80
7BC0
01C0
3FC0
7FC0
FDC0
E1C0
E1C0
F3C0
7FC0
3CE0
ENDCHAR
STARTCHAR 00E1
ENCODING 225
SWIDTH 624 0
DWIDTH 13 0
BBX 11 18 1 0
BITMAP
03C0
0300
0600
0C00
0000
0000
3F00
7F80
7BC0
01C0
3FC0
7FC0
FDC0
E1C0
E1C0
FFC0
7FC0
3CE0
ENDCHAR
STARTCHAR 00E2
ENCODING 226
SWIDTH 624 0
DWIDTH 13 0
BBX 11 18 1 0
BITMAP
0E00
1E00
3B00
7180
0000
0000
3F00
7F80
7BC0
01C0
3FC0
7FC0
FDC0
E1C0
E1C0
FFC0
7FC0
3CE0
ENDCHAR
STARTCHAR 00E3
ENCODING 227
SWIDTH 624 0
DWIDTH 13 0
BBX 11 16 1 0
BITMAP
3F80
3F00
0000
0000
3F00
7F80
7BC0
01C0
3FC0
7FC0
FDC0
E1C0
E1C0
FFC0
7FC0
3CE0
ENDCHAR
STARTCHAR 00E4
ENCODING 228
SWIDTH 624 0
DWIDTH 13 0
BBX 11 16 1 0
BITMAP
3300
3300
0000
0000
3F00
7F80
7BC0
01C0
3FC0
7FC0
FDC0
E1C0
E1C0
FFC0
7FC0
3CE0
ENDCHAR
STARTCHAR 00E5
ENCODING 229
SWIDTH 624 0
DWIDTH 13 0
BBX 11 19 1 0
BITMAP
0E00
1F00
3100
3300
1F00
0E00
0000
3F00
7F80
7BC0
01C0
3FC0
7FC0
FDC0
E1C0
E1C0
FFC0
7FC0
3CE0
ENDCHAR
STARTCHAR 00E6
ENCODING 230
SWIDTH 624 0
DWIDTH 13 0
BBX 12 12 0 0
BITMAP
39E0
7FE0
6F70
0730
0730
7FF0
FFF0
E700
C700
EFB0
7FF0
39E0
ENDCHAR
STARTCHAR 00E7
ENCODING 231
SWIDTH 624 0
DWIDTH 13 0
BBX 9 16 2 -4
BITMAP
1F00
7F80
7F80
E080
E000
E000
E000
E000
E080
F980
7F80
3F00
0400
0600
3E00
3C00
ENDCHAR
STARTCHAR 00E8
ENCODING 232
SWIDTH 624 0
DWIDTH 13 0
BBX 11 18 1 0
BITMAP
7800
1800
0C00
0600
0000
0000
1F00
3F80
7BC0
E1C0
E0E0
FFE0
FFE0
E000
E020
7DC0
7FC0
1F80
ENDCHAR
STARTCHAR 00E9
ENCODING 233
SWIDTH 624 0
DWIDTH 13 0
BBX 11 18 1 0
BITMAP
01C0
0300
0600
0E00
0000
0000
1F00
7F80
7BC0
E1C0
E0E0
FFE0
FFE0
E000
E040
7FC0
7FC0
1F80
ENDCHAR
STARTCHAR 00EA
ENCODING 234
SWIDTH 624 0
DWIDTH 13 0
BBX 11 18 1 0
BITMAP
0E00
1F00
1B00
3180
0000
0000
1F00
7F80
7BC0
E1C0
E0E0
FFE0
FFE0
E000
E040
7FC0
7FC0
1F80
ENDCHAR
STARTCHAR 00EB
ENCODING 235
SWIDTH 624 0
DWIDTH 13 0
BBX 11 16 1 0
BITMAP
3B80
3B80
0000
0000
1F00
7F80
7BC0
E1C0
E0E0
FFE0
FFE0
E000
E040
7FC0
7FC0
1F80
ENDCHAR
STARTCHAR 00EC
ENCODING 236
SWIDTH 624 0
DWIDTH 13 0
BBX 10 18 2 0
BITMAP
C000
6000
3000
1800
0000
0000
F800
F800
3800
3800
3800
3800
3800
3800
3C00
1E00
1FC0
0FC0
ENDCHAR
STARTCHAR 00ED
ENCODING 237
SWIDTH 624 0
DWIDTH 13 0
BBX 9 18 2 0
BITMAP
0700
0E00
0C00
1800
3000
0000
F800
F800
3800
3800
3800
3800
3800
3800
3800
3C00
1F80
0F80
ENDCHAR
STARTCHAR 00EE
ENCODING 238
SWIDTH 624 0
DWIDTH 13 0
BBX 9 18 2 0
BITMAP
3800
3C00
6C00
6600
C300
0000
F800
F800
3800
3800
3800
3800
3800
3800
3800
1C00
1F80
0F80
ENDCHAR
STARTCHAR 00EF
ENCODING 239
SWIDTH 624 0
DWIDTH 13 0
BBX 9 16 2 0
BITMAP
EE00
EE00
0000
0000
F800
F800
3800
3800
3800
3800
3800
3800
3800
1E00
1F80
0F80
ENDCHAR
STARTCHAR 00F0
ENCODING 240
SWIDTH 624 0
DWIDTH 13 0
BBX 10 16 1 0
BITMAP
39C0
1F00
3E00
4700
0380
3F80
7FC0
F1C0
E1C0
E1C0
E1C0
E1C0
F1C0
7FC0
3F80
1F00
ENDCHAR
STARTCHAR 00F1
ENCODING 241
SWIDTH 624 0
DWIDTH 13 0
BBX 9 16 2 0
BITMAP
7F00
7E00
0000
0000
CE00
FF00
F780
E380
E380
E380
E380
E380
E380
E380
E380
E380
ENDCHAR
STARTCHAR 00F2
ENCODING 242
SWIDTH 624 0
DWIDTH 13 0
BBX 11 16 1 0
BITMAP
7000
1C00
0600
0000
1F00
3F80
7FC0
F1C0
E1C0
E0E0
E0E0
E1C0
F1C0
7FC0
3F80
1F00
ENDCHAR
STARTCHAR 00F3
ENCODING 243
SWIDTH 624 0
DWIDTH 13 0
BBX 11 16 1 0
BITMAP
03C0
0600
0C00
0000
1F00
3F80
7FC0
F1C0
E1C0
E0E0
E0E0
E1C0
F1C0
7FC0
3F80
1F00
ENDCHAR
STARTCHAR 00F4
ENCODING 244
SWIDTH 624 0
DWIDTH 13 0
BBX 11 16 1 0
BITMAP
0E00
1B00
6180
0000
1F00
3F80
7FC0
F1C0
E1C0
E0E0
E0E0
E1C0
F1C0
7FC0
3F80
1F00
ENDCHAR
STARTCHAR 00F5
ENCODING 245
SWIDTH 624 0
DWIDTH 13 0
BBX 11 16 1 0
BITMAP
3F80
3F00
0000
0000
1F00
3F80
7FC0
F1C0
E1C0
E0E0
E0E0
E1C0
F1C0
7FC0
3F80
1F00
ENDCHAR
STARTCHAR 00F6
ENCODING 246
SWIDTH 624 0
DWIDTH 13 0
BBX 11 16 1 0
BITMAP
3300
3300
0000
0000
1F00
3F80
7FC0
F1C0
E1C0
E0E0
E0E0
E1C0
F1C0
7FC0
3F80
1F00
ENDCHAR
STARTCHAR 00F7
ENCODING 247
SWIDTH 624 0
DWIDTH 13 0
BBX 11 12 1 1
BITMAP
0E00
0E00
0E00
0000
0000
FFE0
FFE0
0000
0000
0E00
0E00
0E00
ENDCHAR
STARTCHAR 00F8
ENCODING 248
SWIDTH 624 0
DWIDTH 13 0
BBX 12 14 0 -1
BITMAP
0020
0FB0
1FE0
3FE0
79E0
73E0
7770
7670
7CE0
78E0
3FE0
7FC0
EF80
4000
ENDCHAR
STARTCHAR 00F9
ENCODING 249
SWIDTH 624 0
DWIDTH 13 0
BBX 9 18 2 0
BITMAP
E000
7000
3000
1800
0C00
0000
E380
E380
E380
E380
E380
E380
E380
E380
E380
FF80
FF80
7B80
ENDCHAR
STARTCHAR 00FA
ENCODING 250
SWIDTH 624 0
DWIDTH 13 0
BBX 9 18 2 0
BITMAP
0380
0700
0E00
1C00
1800
0000
E380
E380
E380
E380
E380
E380
E380
E380
E380
FF80
FF80
7B80
ENDCHAR
STARTCHAR 00FB
ENCODING 251
SWIDTH 624 0
DWIDTH 13 0
BBX 9 18 2 0
BITMAP
1C00
3C00
3600
6600
C300
0000
E380
E380
E380
E380
E380
E380
E380
E380
E380
FF80
FF80
7B80
ENDCHAR
STARTCHAR 00FC
ENCODING 252
SWIDTH 624 0
DWIDTH 13 0
BBX 9 16 2 0
BITMAP
6600
6600
0000
0000
E380
E380
E380
E380
E380
E380
E380
E380
E380
FF80
FF80
7B80
ENDCHAR
STARTCHAR 00FD
ENCODING 253
SWIDTH 624 0
DWIDTH 13 0
BBX 11 22 1 -4
BITMAP
01C0
0380
0700
0600
0C00
0000
E0E0
E1E0
71C0
71C0
7380
3B80
3B80
1F00
1F00
1F00
0E00
0E00
0C00
1C00
FC00
F800
ENDCHAR
STARTCHAR 00FE
ENCODING 254
SWIDTH 624 0
DWIDTH 13 0
BBX 10 20 2 -4
BITMAP
E000
E000
E000
E000
EE00
FF80
F780
E380
E3C0
E1C0
E1C0
E3C0
E380
F780
FF00
EE00
E000
E000
E000
E000
ENDCHAR
STARTCHAR 00FF
ENCODING 255
SWIDTH 624 0
DWIDTH 13 0
BBX 11 20 1 -4
BITMAP
3B80
3B80
0000
0000
E0E0
E1E0
71C0
71C0
7380
3B80
3B80
1F00
1F00
1F00
0E00
0E00
0C00
1C00
FC00
F800
ENDCHAR
STARTCHAR 0100
ENCODING 256
SWIDTH 624 0
DWIDTH 13 0
BBX 12 19 0 0
BITMAP
1F80
1F80
0000
0F00
0F00
0F80
0F80
1D80
1DC0
19C0
19C0
39C0
3FE0
3FE0
7FE0
70E0
7070
7070
E070
ENDCHAR
STARTCHAR 0101
ENCODING 257
SWIDTH 624 0
DWIDTH 13 0
BBX 11 16 1 0
BITMAP
3F00
3F00
0000
0000
3F00
7F80
7BC0
01C0
3FC0
7FC0
FDC0
E1C0
E1C0
FFC0
7FC0
3CE0
ENDCHAR
STARTCHAR 0102
ENCODING 258
SWIDTH 624 0
DWIDTH 13 0
BBX 12 19 0 0
BITMAP
18C0
0F80
0000
0F00
0F00
0F80
0F80
1D80
1DC0
19C0
19C0
39C0
3FE0
3FE0
7FE0
70E0
7070
7070
E070
ENDCHAR
STARTCHAR 0103
ENCODING 259
SWIDTH 624 0
DWIDTH 13 0
BBX 11 16 1 0
BITMAP
3F80
1E00
0000
0000
3F00
7F80
7BC0
01C0
3FC0
7FC0
FDC0
E1C0
E1C0
F3C0
7FC0
3CE0
ENDCHAR
STARTCHAR 0104
ENCODING 260
SWIDTH 624 0
DWIDTH 13 0
BBX 13 20 0 -4
BITMAP
0F00
0F00
0F80
0F80
1D80
1DC0
19C0
19C0
39C0
3FE0
3FE0
7FE0
70E0
7070
7070
E070
0040
00C0
00F8
0078
ENDCHAR
STARTCHAR 0105
ENCODING 261
SWIDTH 624 0
DWIDTH 13 0
BBX 11 16 1 -4
BITMAP
3F00
7F80
7BC0
01C0
3FC0
7FC0
FDC0
E1C0
E1C0
FFC0
7FC0
3CE0
0180
0100
01E0
01E0
ENDCHAR
STARTCHAR 0106
ENCODING 262
SWIDTH 624 0
DWIDTH 13 0
BBX 10 20 1 0
BITMAP
01C0
0380
0700
0000
0F80
1FC0
3FC0
7840
7000
7000
7000
F000
F000
7000
7000
7000
7840
3FC0
1FC0
0FC0
ENDCHAR
STARTCHAR 0107
ENCODING 263
SWIDTH 624 0
DWIDTH 13 0
BBX 10 18 2 0
BITMAP
03C0
0300
0600
0C00
0000
0000
1F00
7F80
7F80
E080
E000
E000
E000
E000
E080
7F80
7F80
1F00
ENDCHAR
STARTCHAR 0108
ENCODING 264
SWIDTH 624 0
DWIDTH 13 0
BBX 10 20 1 0
BITMAP
0E00
1F00
31C0
0000
0F80
1FC0
3FC0
7840
7000
7000
7000
F000
F000
7000
7000
7000
7840
3FC0
1FC0
0FC0
ENDCHAR
STARTCHAR 0109
ENCODING 265
SWIDTH 624 0
DWIDTH 13 0
BBX 9 16 2 0
BITMAP
1C00
3600
6380
0000
1F00
7F80
FB80
E080
E000
E000
E000
E000
E080
FB80
7F80
1F00
ENDCHAR
STARTCHAR 010A
ENCODING 266
SWIDTH 624 0
DWIDTH 13 0
BBX 10 19 1 0
BITMAP
0700
0700
0000
0F80
1FC0
3FC0
7840
7000
7000
7000
F000
F000
7000
7000
7000
7840
3FC0
1FC0
0FC0
ENDCHAR
STARTCHAR 010B
ENCODING 267
SWIDTH 624 0
DWIDTH 13 0
BBX 9 16 2 0
BITMAP
0C00
0C00
0000
0000
1F00
7F80
7F80
E080
E000
E000
E000
E000
E080
7F80
7F80
1F00
ENDCHAR
STARTCHAR 010C
ENCODING 268
SWIDTH 624 0
DWIDTH 13 0
BBX 10 20 1 0
BITMAP
1840
0D80
0780
0000
0F80
1FC0
3FC0
7840
7000
7000
7000
F000
F000
7000
7000
7000
7840
3FC0
1FC0
0F80
ENDCHAR
STARTCHAR 010D
ENCODING 269
SWIDTH 624 0
DWIDTH 13 0
BBX 9 18 2 0
BITMAP
7180
3B00
1F00
0E00
0000
0000
1F00
7F80
7B80
E080
E000
E000
E000
E000
E080
7B80
7F80
1F00
ENDCHAR
STARTCHAR 010E
ENCODING 270
SWIDTH 624 0
DWIDTH 13 0
BBX 11 19 1 0
BITMAP
7380
1E00
0000
FE00
FF80
FF80
E3C0
E1C0
E1C0
E1E0
E1E0
E1E0
E1E0
E1C0
E1C0
E3C0
FF80
FF80
FE00
ENDCHAR
STARTCHAR 010F
ENCODING 271
SWIDTH 624 0
DWIDTH 13 0
BBX 14 16 1 0
BITMAP
01DC
01D8
01F8
01F0
3DC0
7FC0
7FC0
E1C0
E1C0
E1C0
E1C0
E1C0
E1C0
7FC0
7FC0
3DC0
ENDCHAR
STARTCHAR 0110
ENCODING 272
SWIDTH 624 0
DWIDTH 13 0
BBX 12 16 0 0
BITMAP
7F00
7FC0
73C0
70E0
70E0
70E0
70F0
FEF0
FEF0
70F0
70E0
70E0
70E0
73C0
7FC0
7F00
ENDCHAR
STARTCHAR 0111
ENCODING 273
SWIDTH 624 0
DWIDTH 13 0
BBX 12 16 1 0
BITMAP
01C0
0FF0
0FF0
01C0
3DC0
7FC0
FFC0
E1C0
E1C0
E1C0
E1C0
E1C0
E1C0
FFC0
7FC0
3DC0
ENDCHAR
STARTCHAR 0112
ENCODING 274
SWIDTH 624 0
DWIDTH 13 0
BBX 9 19 2 0
BITMAP
7F00
7F00
0000
FF80
FF80
E000
E000
E000
E000
E000
FF80
FF80
E000
E000
E000
E000
E000
FF80
FF80
ENDCHAR
STARTCHAR 0113
ENCODING 275
SWIDTH 624 0
DWIDTH 13 0
BBX 11 16 1 0
BITMAP
3F80
3F80
0000
0000
1F00
7F80
7BC0
E1C0
E0C0
FFE0
FFE0
E000
E040
7FC0
7FC0
1F80
ENDCHAR
STARTCHAR 0114
ENCODING 276
SWIDTH 624 0
DWIDTH 13 0
BBX 9 19 2 0
BITMAP
7F00
1E00
0000
FF80
FF80
E000
E000
E000
E000
E000
FF80
FF80
E000
E000
E000
E000
E000
FF80
FF80
ENDCHAR
STARTCHAR 0115
ENCODING 277
SWIDTH 624 0
DWIDTH 13 0
BBX 11 16 1 0
BITMAP
3F80
1E00
0000
0000
1F00
7F80
7BC0
E1C0
E0E0
FFE0
FFE0
E000
E040
7FC0
7FC0
1F80
ENDCHAR
STARTCHAR 0116
ENCODING 278
SWIDTH 624 0
DWIDTH 13 0
BBX 9 19 2 0
BITMAP
1C00
1C00
0000
FF80
FF80
E000
E000
E000
E000
E000
FF80
FF80
E000
E000
E000
E000
E000
FF80
FF80
ENDCHAR
STARTCHAR 0117
ENCODING 279
SWIDTH 624 0
DWIDTH 13 0
BBX 11 16 1 0
BITMAP
0E00
0E00
0000
0000
1F00
7F80
7BC0
E1C0
E0C0
FFE0
FFE0
E000
E040
7FC0
7FC0
1F80
ENDCHAR
STARTCHAR 0118
ENCODING 280
SWIDTH 624 0
DWIDTH 13 0
BBX 9 20 2 -4
BITMAP
FF80
FF80
E000
E000
E000
E000
E000
FF80
FF80
E000
E000
E000
E000
E000
FF80
FF80
0200
0400
0780
0780
ENDCHAR
STARTCHAR 0119
ENCODING 281
SWIDTH 624 0
DWIDTH 13 0
BBX 11 16 1 -4
BITMAP
1F00
7F80
7BC0
E1C0
E0C0
FFE0
FFE0
E000
E040
7FC0
7FC0
1F80
0300
0200
03C0
03C0
ENDCHAR
STARTCHAR 011A
ENCODING 282
SWIDTH 624 0
DWIDTH 13 0
BBX 9 20 2 0
BITMAP
6180
3300
3E00
1C00
FF80
FF80
E000
E000
E000
E000
E000
FF80
FF80
E000
E000
E000
E000
E000
FF80
FF80
ENDCHAR
STARTCHAR 011B
ENCODING 283
SWIDTH 624 0
DWIDTH 13 0
BBX 11 18 1 0
BITMAP
3180
3B00
1F00
0E00
0000
0000
1F00
7F80
7BC0
E1C0
E0C0
FFE0
FFE0
E000
E040
7FC0
7FC0
1F80
ENDCHAR
STARTCHAR 011C
ENCODING 284
SWIDTH 624 0
DWIDTH 13 0
BBX 10 20 1 0
BITMAP
0E00
1F00
31C0
0000
0F80
3FC0
7DC0
7040
7000
F000
E000
E000
E3C0
E3C0
F0C0
70C0
70C0
3DC0
3FC0
0F80
ENDCHAR
STARTCHAR 011D
ENCODING 285
SWIDTH 624 0
DWIDTH 13 0
BBX 10 22 1 -4
BITMAP
0E00
1F00
1B00
3180
0000
0000
3DC0
7FC0
7FC0
F1C0
E1C0
E1C0
E1C0
E1C0
F1C0
7FC0
7FC0
3DC0
01C0
77C0
7F80
7F00
ENDCHAR
STARTCHAR 011E
ENCODING 286
SWIDTH 624 0
DWIDTH 13 0
BBX 10 20 1 0
BITMAP
3080
1180
0F00
0000
0F80
3FC0
7FC0
7840
7000
F000
E000
E000
E3C0
E3C0
F0C0
70C0
78C0
7FC0
3FC0
0F80
ENDCHAR
STARTCHAR 011F
ENCODING 287
SWIDTH 624 0
DWIDTH 13 0
BBX 10 20 1 -4
BITMAP
3F80
1E00
0000
0000
3DC0
7FC0
7FC0
F1C0
E1C0
E1C0
E1C0
E1C0
E1C0
7BC0
7FC0
3DC0
01C0
63C0
7F80
7F00
ENDCHAR
STARTCHAR 0120
ENCODING 288
SWIDTH 624 0
DWIDTH 13 0
BBX 10 19 1 0
BITMAP
0600
0600
0000
0F80
3FC0
7DC0
7040
7000
F000
E000
E000
E3C0
E3C0
F0C0
70C0
70C0
3DC0
3FC0
0F80
ENDCHAR
STARTCHAR 0121
ENCODING 289
SWIDTH 624 0
DWIDTH 13 0
BBX 10 20 1 -4
BITMAP
0E00
0E00
0000
0000
3DC0
7FC0
7FC0
F1C0
E1C0
E1C0
E1C0
E1C0
E1C0
7BC0
7FC0
3DC0
01C0
77C0
7F80
7F00
ENDCHAR
STARTCHAR 0122
ENCODING 290
SWIDTH 624 0
DWIDTH 13 0
BBX 10 21 1 -5
BITMAP
0F80
3FC0
7DC0
7040
7000
F000
E000
E000
E3C0
E3C0
F0C0
70C0
70C0
3DC0
3FC0
0F80
0000
0000
0700
0600
0E00
ENDCHAR
STARTCHAR 0123
ENCODING 291
SWIDTH 624 0
DWIDTH 13 0
BBX 10 20 1 -4
BITMAP
0600
0600
0E00
0000
3DC0
7FC0
7FC0
F1C0
E1C0
E1C0
E1C0
E1C0
E1C0
7BC0
7FC0
3DC0
01C0
77C0
7F80
7F00
ENDCHAR
STARTCHAR 0124
ENCODING 292
SWIDTH 624 0
DWIDTH 13 0
BBX 10 20 1 0
BITMAP
0E00
1F00
3300
6180
E1C0
E1C0
E1C0
E1C0
E1C0
E1C0
FFC0
FFC0
FFC0
E1C0
E1C0
E1C0
E1C0
E1C0
E1C0
E1C0
ENDCHAR
STARTCHAR 0125
ENCODING 293
SWIDTH 624 0
DWIDTH 13 0
BBX 9 19 2 0
BITMAP
1E00
3380
4000
E000
E000
E000
E000
EE00
FF00
F780
E380
E380
E380
E380
E380
E380
E380
E380
E380
ENDCHAR
STARTCHAR 0126
ENCODING 294
SWIDTH 624 0
DWIDTH 13 0
BBX 13 16 0 0
BITMAP
70E0
70E0
70E0
FFF8
FFF8
70E0
70E0
7FE0
7FE0
70E0
70E0
70E0
70E0
70E0
70E0
70E0
ENDCHAR
STARTCHAR 0127
ENCODING 295
SWIDTH 624 0
DWIDTH 13 0
BBX 11 16 0 0
BITMAP
3800
FF00
FF00
3800
3B80
3FC0
3DE0
38E0
38E0
38E0
38E0
38E0
38E0
38E0
38E0
38E0
ENDCHAR
STARTCHAR 0128
ENCODING 296
SWIDTH 624 0
DWIDTH 13 0
BBX 9 19 2 0
BITMAP
7300
7F00
4E00
FF80
FF80
1C00
1C00
1C00
1C00
1C00
1C00
1C00
1C00
1C00
1C00
1C00
1C00
FF80
FF80
ENDCHAR
STARTCHAR 0129
ENCODING 297
SWIDTH 624 0
DWIDTH 13 0
BBX 9 16 2 0
BITMAP
7200
FE00
CC00
0000
F800
F800
3800
3800
3800
3800
3800
3800
3800
1E00
1F80
0F80
ENDCHAR
STARTCHAR 012A
ENCODING 298
SWIDTH 624 0
DWIDTH 13 0
BBX 9 19 2 0
BITMAP
7E00
7E00
0000
FF80
FF80
1C00
1C00
1C00
1C00
1C00
1C00
1C00
1C00
1C00
1C00
1C00
1C00
FF80
FF80
ENDCHAR
STARTCHAR 012B
ENCODING 299
SWIDTH 624 0
DWIDTH 13 0
BBX 9 16 2 0
BITMAP
FE00
FE00
0000
0000
F800
F800
3800
3800
3800
3800
3800
3800
3800
1E00
1F80
0F80
ENDCHAR
STARTCHAR 012C
ENCODING 300
SWIDTH 624 0
DWIDTH 13 0
BBX 9 19 2 0
BITMAP
7F00
3E00
0000
FF80
FF80
1C00
1C00
1C00
1C00
1C00
1C00
1C00
1C00
1C00
1C00
1C00
1C00
FF80
FF80
ENDCHAR
STARTCHAR 012D
ENCODING 301
SWIDTH 624 0
DWIDTH 13 0
BBX 9 16 2 0
BITMAP
FE00
3C00
0000
0000
F800
F800
3800
3800
3800
3800
3800
3800
3800
1E00
1F80
0F80
ENDCHAR
STARTCHAR 012E
ENCODING 302
SWIDTH 624 0
DWIDTH 13 0
BBX 9 20 2 -4
BITMAP
FF80
FF80
1C00
1C00
1C00
1C00
1C00
1C00
1C00
1C00
1C00
1C00
1C00
1C00
FF80
FF80
0800
1800
1F00
0F00
ENDCHAR
STARTCHAR 012F
ENCODING 303
SWIDTH 624 0
DWIDTH 13 0
BBX 9 22 2 -4
BITMAP
3800
3800
3800
3800
0000
0000
F800
F800
3800
3800
3800
3800
3800
3800
3800
1E00
1F80
0F80
0200
0600
0780
0380
ENDCHAR
STARTCHAR 0130
ENCODING 304
SWIDTH 624 0
DWIDTH 13 0
BBX 9 19 2 0
BITMAP
1C00
1C00
0000
FF80
FF80
1C00
1C00
1C00
1C00
1C00
1C00
1C00
1C00
1C00
1C00
1C00
1C00
FF80
FF80
ENDCHAR
STARTCHAR 0131
ENCODING 305
SWIDTH 624 0
DWIDTH 13 0
BBX 9 12 2 0
BITMAP
F800
F800
3800
3800
3800
3800
3800
3800
3800
1E00
1F80
0F80
ENDCHAR
STARTCHAR 0132
ENCODING 306
SWIDTH 624 0
DWIDTH 13 0
BBX 10 16 1 0
BITMAP
E1C0
E1C0
E1C0
E1C0
E1C0
E1C0
E1C0
E1C0
E1C0
01C0
01C0
01C0
03C0
0F80
FF00
FE00
ENDCHAR
STARTCHAR 0133
ENCODING 307
SWIDTH 624 0
DWIDTH 13 0
BBX 10 20 1 -4
BITMAP
E1C0
E1C0
E1C0
0000
E1C0
E1C0
E1C0
E1C0
E1C0
E1C0
E1C0
E1C0
E1C0
E1C0
E1C0
E1C0
01C0
03C0
1F80
1F00
ENDCHAR
STARTCHAR 0134
ENCODING 308
SWIDTH 624 0
DWIDTH 13 0
BBX 12 20 1 0
BITMAP
0380
07C0
0C70
0000
1F80
1F80
0380
0380
0380
0380
0380
0380
0380
0380
0380
0380
8380
FF80
FF00
7E00
ENDCHAR
STARTCHAR 0135
ENCODING 309
SWIDTH 624 0
DWIDTH 13 0
BBX 9 22 2 -4
BITMAP
0E00
1F00
1B00
3180
0000
0000
7E00
7E00
0E00
0E00
0E00
0E00
0E00
0E00
0E00
0E00
0E00
0E00
0E00
1E00
FC00
F800
ENDCHAR
STARTCHAR 0136
ENCODING 310
SWIDTH 624 0
DWIDTH 13 0
BBX 11 21 1 -5
BITMAP
E0E0
E1C0
E380
E780
E700
EE00
FE00
FE00
FF00
F700
E780
E380
E3C0
E1C0
E1E0
E0E0
0000
0000
0700
0E00
0C00
ENDCHAR
STARTCHAR 0137
ENCODING 311
SWIDTH 624 0
DWIDTH 13 0
BBX 10 21 2 -5
BITMAP
E000
E000
E000
E000
E3C0
E780
EF00
FE00
FC00
FC00
FE00
EE00
E700
E780
E380
E1C0
0000
0000
0E00
0C00
1800
ENDCHAR
STARTCHAR 0138
ENCODING 312
SWIDTH 624 0
DWIDTH 13 0
BBX 10 12 2 0
BITMAP
E3C0
E780
EF00
FE00
FC00
FC00
FE00
EE00
E700
E780
E380
E1C0
ENDCHAR
STARTCHAR 0139
ENCODING 313
SWIDTH 624 0
DWIDTH 13 0
BBX 10 20 2 0
BITMAP
0700
0E00
1C00
1800
E000
E000
E000
E000
E000
E000
E000
E000
E000
E000
E000
E000
E000
FFC0
FFC0
FFC0
ENDCHAR
STARTCHAR 013A
ENCODING 314
SWIDTH 624 0
DWIDTH 13 0
BBX 10 19 1 0
BITMAP
0780
0E00
0000
FC00
FC00
1C00
1C00
1C00
1C00
1C00
1C00
1C00
1C00
1C00
1C00
1C00
1E00
0FC0
07C0
ENDCHAR
STARTCHAR 013B
ENCODING 315
SWIDTH 624 0
DWIDTH 13 0
BBX 10 21 2 -5
BITMAP
E000
E000
E000
E000
E000
E000
E000
E000
E000
E000
E000
E000
E000
FFC0
FFC0
FFC0
0000
0000
0E00
0C00
1800
ENDCHAR
STARTCHAR 013C
ENCODING 316
SWIDTH 624 0
DWIDTH 13 0
BBX 10 21 1 -5
BITMAP
FC00
FC00
1C00
1C00
1C00
1C00
1C00
1C00
1C00
1C00
1C00
1C00
1C00
1F00
0FC0
07C0
0000
0000
0E00
1C00
1800
ENDCHAR
STARTCHAR 013D
ENCODING 317
SWIDTH 624 0
DWIDTH 13 0
BBX 10 16 2 0
BITMAP
E1C0
E180
E380
E300
E000
E000
E000
E000
E000
E000
E000
E000
E000
FFC0
FFC0
FFC0
ENDCHAR
STARTCHAR 013E
ENCODING 318
SWIDTH 624 0
DWIDTH 13 0
BBX 11 16 1 0
BITMAP
FCE0
FCC0
1CC0
1DC0
1C00
1C00
1C00
1C00
1C00
1C00
1C00
1C00
1C00
1F00
0FC0
07C0
ENDCHAR
STARTCHAR 013F
ENCODING 319
SWIDTH 624 0
DWIDTH 13 0
BBX 10 16 2 0
BITMAP
E000
E000
E000
E000
E000
E000
E000
E700
E700
E000
E000
E000
E000
FFC0
FFC0
FFC0
ENDCHAR
STARTCHAR 0140
ENCODING 320
SWIDTH 624 0
DWIDTH 13 0
BBX 11 16 0 0
BITMAP
FC00
FC00
1C00
1C00
1C00
1C00
1C00
1CE0
1CE0
1C00
1C00
1C00
1E00
0F00
0FE0
07E0
ENDCHAR
STARTCHAR 0141
ENCODING 321
SWIDTH 624 0
DWIDTH 13 0
BBX 12 16 0 0
BITMAP
3800
3800
3800
3800
3980
3B80
3F00
3C00
7800
F800
F800
B800
3800
3FF0
3FF0
3FF0
ENDCHAR
STARTCHAR 0142
ENCODING 322
SWIDTH 624 0
DWIDTH 13 0
BBX 11 16 0 0
BITMAP
7E00
7E00
0E00
0E20
0EE0
0FC0
0F80
0E00
3E00
FE00
6E00
0E00
0E00
0F80
07E0
03E0
ENDCHAR
STARTCHAR 0143
ENCODING 323
SWIDTH 624 0
DWIDTH 13 0
BBX 10 20 1 0
BITMAP
0380
0700
0600
0C00
F0C0
F0C0
F0C0
F8C0
F8C0
F8C0
ECC0
ECC0
EEC0
E6C0
E6C0
E7C0
E3C0
E3C0
E1C0
E1C0
ENDCHAR
STARTCHAR 0144
ENCODING 324
SWIDTH 624 0
DWIDTH 13 0
BBX 9 18 2 0
BITMAP
0380
0700
0E00
1C00
1800
0000
CE00
FF00
F780
E380
E380
E380
E380
E380
E380
E380
E380
E380
ENDCHAR
STARTCHAR 0145
ENCODING 325
SWIDTH 624 0
DWIDTH 13 0
BBX 10 21 1 -5
BITMAP
F0C0
F0C0
F0C0
F8C0
F8C0
F8C0
ECC0
ECC0
EEC0
E6C0
E6C0
E7C0
E3C0
E3C0
E1C0
E1C0
0000
0000
0E00
0C00
1C00
ENDCHAR
STARTCHAR 0146
ENCODING 326
SWIDTH 624 0
DWIDTH 13 0
BBX 9 17 2 -5
BITMAP
CE00
FF00
F780
E380
E380
E380
E380
E380
E380
E380
E380
E380
0000
0000
1C00
1800
3800
ENDCHAR
STARTCHAR 0147
ENCODING 327
SWIDTH 624 0
DWIDTH 13 0
BBX 10 20 1 0
BITMAP
30C0
1980
1F00
0E00
F0C0
F0C0
F0C0
F8C0
F8C0
F8C0
ECC0
ECC0
EEC0
E6C0
E6C0
E7C0
E3C0
E3C0
E1C0
E1C0
ENDCHAR
STARTCHAR 0148
ENCODING 328
SWIDTH 624 0
DWIDTH 13 0
BBX 9 18 2 0
BITMAP
6100
6300
3600
1E00
1C00
0000
CE00
FF00
F780
E380
E380
E380
E380
E380
E380
E380
E380
E380
ENDCHAR
STARTCHAR 0149
ENCODING 329
SWIDTH 624 0
DWIDTH 13 0
BBX 14 16 -1 0
BITMAP
7800
7800
7800
7000
7E70
6EF8
EFF8
0F3C
0E1C
0E1C
0E1C
0E1C
0E1C
0E1C
0E1C
0E1C
ENDCHAR
STARTCHAR 014A
ENCODING 330
SWIDTH 624 0
DWIDTH 13 0
BBX 10 20 1 -4
BITMAP
E700
EF80
FBC0
F1C0
E1C0
E1C0
E1C0
E1C0
E1C0
E1C0
E1C0
E1C0
E1C0
E1C0
E1C0
E1C0
01C0
03C0
07C0
0780
ENDCHAR
STARTCHAR 014B
ENCODING 331
SWIDTH 624 0
DWIDTH 13 0
BBX 9 16 2 -4
BITMAP
CE00
FF00
F780
E380
E380
E380
E380
E380
E380
E380
E380
E380
0380
0F80
0F00
0E00
ENDCHAR
STARTCHAR 014C
ENCODING 332
SWIDTH 624 0
DWIDTH 13 0
BBX 11 19 1 0
BITMAP
3F00
3F00
0000
1F00
3F80
7FC0
71C0
E1C0
E1C0
E1E0
E1E0
E1E0
E1E0
E1C0
E1C0
71C0
7FC0
3F80
1F00
ENDCHAR
STARTCHAR 014D
ENCODING 333
SWIDTH 624 0
DWIDTH 13 0
BBX 11 16 1 0
BITMAP
3F00
3F00
0000
0000
1F00
3F80
7FC0
F1C0
E1C0
E0E0
E0E0
E1C0
F1C0
7FC0
3F80
1F00
ENDCHAR
STARTCHAR 014E
ENCODING 334
SWIDTH 624 0
DWIDTH 13 0
BBX 11 20 1 0
BITMAP
2180
3100
1F00
0000
1F00
3F80
7FC0
71C0
E1C0
E1C0
E1E0
E1E0
E1E0
E1E0
E1C0
E1C0
71C0
7FC0
3F80
1F00
ENDCHAR
STARTCHAR 014F
ENCODING 335
SWIDTH 624 0
DWIDTH 13 0
BBX 11 16 1 0
BITMAP
3F80
1E00
0000
0000
1F00
3F80
7FC0
F1C0
E1C0
E0E0
E0E0
E1C0
F1C0
7FC0
3F80
1F00
ENDCHAR
STARTCHAR 0150
ENCODING 336
SWIDTH 624 0
DWIDTH 13 0
BBX 11 20 1 0
BITMAP
0FC0
1980
3300
0400
1F00
3F80
7FC0
71C0
E1C0
E1C0
E1E0
E1E0
E1E0
E1E0
E1C0
E1C0
71C0
7FC0
3F80
1F00
ENDCHAR
STARTCHAR 0151
ENCODING 337
SWIDTH 624 0
DWIDTH 13 0
BBX 11 18 1 0
BITMAP
0DC0
1980
1B00
3300
0400
0000
1F00
3F80
7FC0
F1C0
E1C0
E0E0
E0E0
E1C0
F1C0
7FC0
3F80
1F00
ENDCHAR
STARTCHAR 0152
ENCODING 338
SWIDTH 624 0
DWIDTH 13 0
BBX 11 16 1 0
BITMAP
3FE0
7FE0
F700
E700
E700
E700
E700
E7E0
E7E0
E700
E700
E700
E700
FF00
7FE0
3FE0
ENDCHAR
STARTCHAR 0153
ENCODING 339
SWIDTH 624 0
DWIDTH 13 0
BBX 12 12 0 0
BITMAP
3DE0
7FF0
7FF0
E730
E730
E7F0
E7F0
E700
E700
7FF0
7DF0
3CF0
ENDCHAR
STARTCHAR 0154
ENCODING 340
SWIDTH 624 0
DWIDTH 13 0
BBX 12 20 1 0
BITMAP
0380
0700
0E00
0C00
FF00
FF80
E7C0
E1C0
E1C0
E1C0
E1C0
E7C0
FF00
FF00
E780
E380
E1C0
E1C0
E0E0
E0F0
ENDCHAR
STARTCHAR 0155
ENCODING 341
SWIDTH 624 0
DWIDTH 13 0
BBX 9 18 3 0
BITMAP
0380
0700
0E00
0C00
1800
0000
EF80
FF80
FD80
F080
E000
E000
E000
E000
E000
E000
E000
E000
ENDCHAR
STARTCHAR 0156
ENCODING 342
SWIDTH 624 0
DWIDTH 13 0
BBX 12 21 1 -5
BITMAP
FF00
FF80
E7C0
E1C0
E1C0
E1C0
E1C0
E7C0
FF00
FF00
E780
E380
E1C0
E1C0
E0E0
E0F0
0000
0000
0700
0600
0C00
ENDCHAR
STARTCHAR 0157
ENCODING 343
SWIDTH 624 0
DWIDTH 13 0
BBX 9 17 3 -5
BITMAP
EF80
FF80
FD80
F080
E000
E000
E000
E000
E000
E000
E000
E000
0000
0000
E000
C000
C000
ENDCHAR
STARTCHAR 0158
ENCODING 344
SWIDTH 624 0
DWIDTH 13 0
BBX 12 19 1 0
BITMAP
7380
1E00
0000
FF00
FF80
E7C0
E1C0
E1C0
E1C0
E1C0
E7C0
FF00
FF00
E780
E380
E1C0
E1C0
E0E0
E0F0
ENDCHAR
STARTCHAR 0159
ENCODING 345
SWIDTH 624 0
DWIDTH 13 0
BBX 9 18 3 0
BITMAP
C300
6600
3600
3C00
1C00
0000
EF80
FF80
FD80
F080
E000
E000
E000
E000
E000
E000
E000
E000
ENDCHAR
STARTCHAR 015A
ENCODING 346
SWIDTH 624 0
DWIDTH 13 0
BBX 10 20 1 0
BITMAP
0380
0700
0E00
0000
1F00
7F80
7B80
E040
E000
F000
7C00
3F00
1F80
03C0
01C0
01C0
81C0
FFC0
FF80
3F00
ENDCHAR
STARTCHAR 015B
ENCODING 347
SWIDTH 624 0
DWIDTH 13 0
BBX 9 18 2 0
BITMAP
0780
0600
0C00
1800
0000
0000
3E00
FF00
F700
E080
E000
7E00
3F00
0380
8380
FF80
FF00
7E00
ENDCHAR
STARTCHAR 015C
ENCODING 348
SWIDTH 624 0
DWIDTH 13 0
BBX 10 20 1 0
BITMAP
0E00
1F00
7180
0000
1F00
7F80
7B80
E040
E000
F000
7C00
3F00
1F80
03C0
01C0
01C0
81C0
FFC0
FF80
3F00
ENDCHAR
STARTCHAR 015D
ENCODING 349
SWIDTH 624 0
DWIDTH 13 0
BBX 9 16 2 0
BITMAP
1C00
3600
C300
0000
3E00
FF00
F700
E080
E000
7E00
3F00
0380
8380
FF80
FF00
7E00
ENDCHAR
STARTCHAR 015E
ENCODING 350
SWIDTH 624 0
DWIDTH 13 0
BBX 10 20 1 -4
BITMAP
1F00
7F80
7B80
E040
E000
F000
7C00
3F00
1F80
03C0
01C0
01C0
81C0
FFC0
FF80
3F00
0600
0200
1E00
1E00
ENDCHAR
STARTCHAR 015F
ENCODING 351
SWIDTH 624 0
DWIDTH 13 0
BBX 9 16 2 -4
BITMAP
3E00
FF00
F700
E080
E000
7E00
3F00
0380
8380
EF80
FF00
7E00
0C00
0400
3C00
3C00
ENDCHAR
STARTCHAR 0160
ENCODING 352
SWIDTH 624 0
DWIDTH 13 0
BBX 10 20 1 0
BITMAP
6180
3B00
1E00
0000
1F00
7F80
7B80
E040
E000
F000
7C00
3F00
1F80
03C0
01C0
01C0
81C0
FFC0
FF80
3F00
ENDCHAR
STARTCHAR 0161
ENCODING 353
SWIDTH 624 0
DWIDTH 13 0
BBX 9 18 2 0
BITMAP
E300
7600
3C00
1C00
0000
0000
3F00
FF00
E300
E000
F000
FE00
3F00
0780
0380
C780
FF00
7E00
ENDCHAR
STARTCHAR 0162
ENCODING 354
SWIDTH 624 0
DWIDTH 13 0
BBX 11 20 1 -4
BITMAP
FFE0
FFE0
0E00
0E00
0E00
0E00
0E00
0E00
0E00
0E00
0E00
0E00
0E00
0E00
0E00
0E00
0600
0200
1E00
1E00
ENDCHAR
STARTCHAR 0163
ENCODING 355
SWIDTH 624 0
DWIDTH 13 0
BBX 10 21 1 -4
BITMAP
0400
0C00
1C00
1C00
1C00
FFC0
FFC0
1C00
1C00
1C00
1C00
1C00
1C00
1C00
1E00
1FC0
0FC0
0180
0180
0780
0780
ENDCHAR
STARTCHAR 0164
ENCODING 356
SWIDTH 624 0
DWIDTH 13 0
BBX 11 19 1 0
BITMAP
7380
1E00
0000
FFE0
FFE0
0E00
0E00
0E00
0E00
0E00
0E00
0E00
0E00
0E00
0E00
0E00
0E00
0E00
0E00
ENDCHAR
STARTCHAR 0165
ENCODING 357
SWIDTH 624 0
DWIDTH 13 0
BBX 11 18 1 0
BITMAP
00E0
04C0
0CC0
1DC0
1C00
1C00
FFC0
FFC0
1C00
1C00
1C00
1C00
1C00
1C00
1C00
1E00
1FC0
0FC0
ENDCHAR
STARTCHAR 0166
ENCODING 358
SWIDTH 624 0
DWIDTH 13 0
BBX 11 16 1 0
BITMAP
FFE0
FFE0
0E00
0E00
0E00
0E00
0E00
0E00
7F80
7F80
0E00
0E00
0E00
0E00
0E00
0E00
ENDCHAR
STARTCHAR 0167
ENCODING 359
SWIDTH 624 0
DWIDTH 13 0
BBX 10 17 1 0
BITMAP
0400
0C00
1C00
1C00
1C00
FFC0
FFC0
1C00
1C00
7F00
7F00
1C00
1C00
1C00
1E00
1FC0
0FC0
ENDCHAR
STARTCHAR 0168
ENCODING 360
SWIDTH 624 0
DWIDTH 13 0
BBX 10 19 1 0
BITMAP
3F80
3F00
0000
E1C0
E1C0
E1C0
E1C0
E1C0
E1C0
E1C0
E1C0
E1C0
E1C0
E1C0
E1C0
F1C0
7FC0
7F80
1F00
ENDCHAR
STARTCHAR 0169
ENCODING 361
SWIDTH 624 0
DWIDTH 13 0
BBX 9 16 2 0
BITMAP
7300
7F00
4E00
0000
E380
E380
E380
E380
E380
E380
E380
E380
E380
FF80
FF80
7B80
ENDCHAR
STARTCHAR 016A
ENCODING 362
SWIDTH 624 0
DWIDTH 13 0
BBX 10 19 1 0
BITMAP
3F00
3F00
0000
E1C0
E1C0
E1C0
E1C0
E1C0
E1C0
E1C0
E1C0
E1C0
E1C0
E1C0
E1C0
F1C0
7FC0
7F80
1F00
ENDCHAR
STARTCHAR 016B
ENCODING 363
SWIDTH 624 0
DWIDTH 13 0
BBX 9 16 2 0
BITMAP
7E00
7E00
0000
0000
E380
E380
E380
E380
E380
E380
E380
E380
E380
FF80
FF80
7B80
ENDCHAR
STARTCHAR 016C
ENCODING 364
SWIDTH 624 0
DWIDTH 13 0
BBX 10 20 1 0
BITMAP
2180
3100
1F00
0000
E1C0
E1C0
E1C0
E1C0
E1C0
E1C0
E1C0
E1C0
E1C0
E1C0
E1C0
E1C0
E1C0
7FC0
7F80
1F00
ENDCHAR
STARTCHAR 016D
ENCODING 365
SWIDTH 624 0
DWIDTH 13 0
BBX 9 16 2 0
BITMAP
7F00
3C00
0000
0000
E380
E380
E380
E380
E380
E380
E380
E380
E380
FF80
FF80
7B80
ENDCHAR
STARTCHAR 016E
ENCODING 366
SWIDTH 624 0
DWIDTH 13 0
BBX 10 19 1 0
BITMAP
1E00
1F00
3100
FFC0
EFC0
E1C0
E1C0
E1C0
E1C0
E1C0
E1C0
E1C0
E1C0
E1C0
E1C0
F1C0
7FC0
7F80
1F00
ENDCHAR
STARTCHAR 016F
ENCODING 367
SWIDTH 624 0
DWIDTH 13 0
BBX 9 19 2 0
BITMAP
1C00
3E00
6200
6600
3E00
1C00
0000
E380
E380
E380
E380
E380
E380
E380
E380
E380
FF80
FF80
7B80
ENDCHAR
STARTCHAR 0170
ENCODING 368
SWIDTH 624 0
DWIDTH 13 0
BBX 10 20 1 0
BITMAP
0FC0
1980
3300
0400
E1C0
E1C0
E1C0
E1C0
E1C0
E1C0
E1C0
E1C0
E1C0
E1C0
E1C0
E1C0
F1C0
7FC0
7F80
1F00
ENDCHAR
STARTCHAR 0171
ENCODING 369
SWIDTH 624 0
DWIDTH 13 0
BBX 9 18 2 0
BITMAP
1B80
3300
3600
6600
0800
0000
E380
E380
E380
E380
E380
E380
E380
E380
E380
FF80
FF80
7B80
ENDCHAR
STARTCHAR 0172
ENCODING 370
SWIDTH 624 0
DWIDTH 13 0
BBX 10 20 1 -4
BITMAP
E1C0
E1C0
E1C0
E1C0
E1C0
E1C0
E1C0
E1C0
E1C0
E1C0
E1C0
E1C0
F1C0
7FC0
7F80
3F00
0800
0800
1F00
0F00
ENDCHAR
STARTCHAR 0173
ENCODING 371
SWIDTH 624 0
DWIDTH 13 0
BBX 10 16 2 -4
BITMAP
E380
E380
E380
E380
E380
E380
E380
E380
E380
FF80
FF80
7B80
0100
0300
03C0
01C0
ENDCHAR
STARTCHAR 0174
ENCODING 372
SWIDTH 624 0
DWIDTH 13 0
BBX 13 19 0 0
BITMAP
0F00
19C0
2000
E038
E030
E030
E030
6730
6770
6770
6F70
6F70
7DF0
7DE0
7DE0
79E0
39E0
38E0
38E0
ENDCHAR
STARTCHAR 0175
ENCODING 373
SWIDTH 624 0
DWIDTH 13 0
BBX 13 17 0 0
BITMAP
0700
0F80
1980
30C0
0000
E038
E030
E030
6730
6770
6770
6F60
7D60
7DE0
39E0
39E0
38E0
ENDCHAR
STARTCHAR 0176
ENCODING 374
SWIDTH 624 0
DWIDTH 13 0
BBX 12 19 0 0
BITMAP
0F00
19C0
2000
F070
7070
70E0
38E0
39C0
1DC0
1F80
0F80
0F00
0700
0700
0700
0700
0700
0700
0700
ENDCHAR
STARTCHAR 0177
ENCODING 375
SWIDTH 624 0
DWIDTH 13 0
BBX 11 22 1 -4
BITMAP
0E00
0E00
1B00
3180
2180
0000
E0E0
E1E0
71C0
71C0
7380
3B80
3B80
1F00
1F00
1F00
0E00
0E00
0C00
1C00
FC00
F800
ENDCHAR
STARTCHAR 0178
ENCODING 376
SWIDTH 624 0
DWIDTH 13 0
BBX 12 19 0 0
BITMAP
1980
1980
0000
F070
7070
70E0
38E0
39C0
1DC0
1F80
0F80
0F00
0700
0700
0700
0700
0700
0700
0700
ENDCHAR
STARTCHAR 0179
ENCODING 377
SWIDTH 624 0
DWIDTH 13 0
BBX 11 20 1 0
BITMAP
0380
0700
0600
0C00
FFE0
FFE0
01E0
03C0
0380
0780
0700
0E00
1E00
1C00
3C00
3800
7000
F000
FFE0
FFE0
ENDCHAR
STARTCHAR 017A
ENCODING 378
SWIDTH 624 0
DWIDTH 13 0
BBX 9 17 2 0
BITMAP
0780
0E00
0C00
1800
0000
FF80
FF80
0780
0700
0E00
1C00
3C00
7800
7000
E000
FF80
FF80
ENDCHAR
STARTCHAR 017B
ENCODING 379
SWIDTH 624 0
DWIDTH 13 0
BBX 11 19 1 0
BITMAP
0E00
0E00
0000
FFE0
FFE0
01E0
03C0
0380
0780
0700
0E00
1E00
1C00
3C00
3800
7000
F000
FFE0
FFE0
ENDCHAR
STARTCHAR 017C
ENCODING 380
SWIDTH 624 0
DWIDTH 13 0
BBX 9 16 2 0
BITMAP
1C00
1C00
0000
0000
FF80
FF80
0380
0700
0E00
1C00
3C00
7800
F000
E000
FF80
FF80
ENDCHAR
STARTCHAR 017D
ENCODING 381
SWIDTH 624 0
DWIDTH 13 0
BBX 11 20 1 0
BITMAP
6180
3300
1F00
0E00
FFE0
FFE0
01E0
03C0
0380
0780
0700
0E00
1E00
1C00
3C00
3800
7000
F000
FFE0
FFE0
ENDCHAR
STARTCHAR 017E
ENCODING 382
SWIDTH 624 0
DWIDTH 13 0
BBX 9 17 2 0
BITMAP
E300
3600
3C00
1C00
0000
FF80
FF80
0380
0700
0E00
1C00
3C00
7800
F000
E000
FF80
FF80
ENDCHAR
STARTCHAR 017F
ENCODING 383
SWIDTH 624 0
DWIDTH 13 0
BBX 9 18 2 -2
BITMAP
0F80
1F80
1E00
1C00
FC00
FC00
1C00
1C00
1C00
1C00
1C00
1C00
1C00
1C00
1C00
1C00
1C00
1C00
ENDCHAR
STARTCHAR 0192
ENCODING 402
SWIDTH 624 0
DWIDTH 13 0
BBX 12 20 0 -4
BITMAP
01F0
03F0
03F0
0700
0700
0700
3FC0
3FC0
0600
0600
0600
0E00
0E00
0E00
0E00
0C00
0C00
FC00
FC00
F000
ENDCHAR
STARTCHAR 01A0
ENCODING 416
SWIDTH 624 0
DWIDTH 13 0
BBX 13 16 0 0
BITMAP
1F10
3F98
7BF0
71F0
E1C0
E1E0
E0E0
E0E0
E0E0
E0E0
E1E0
E1C0
71C0
7BC0
3F80
1F00
ENDCHAR
STARTCHAR 01A1
ENCODING 417
SWIDTH 624 0
DWIDTH 13 0
BBX 12 12 0 0
BITMAP
1F10
3F90
7FF0
F1F0
E1E0
E0E0
E0E0
E1E0
F1C0
7FC0
3F80
1F00
ENDCHAR
STARTCHAR 01A4
ENCODING 420
SWIDTH 624 0
DWIDTH 13 0
BBX 12 16 0 0
BITMAP
7FC0
FFE0
F9F0
F870
F870
3870
3870
39F0
3FE0
3FC0
3800
3800
3800
3800
3800
3800
ENDCHAR
STARTCHAR 01AF
ENCODING 431
SWIDTH 624 0
DWIDTH 13 0
BBX 12 16 0 0
BITMAP
E1D0
E1D0
E1F0
E1F0
E1C0
E1C0
E1C0
E1C0
E1C0
E1C0
E1C0
E1C0
F1C0
7FC0
7F80
1F00
ENDCHAR
STARTCHAR 01B0
ENCODING 432
SWIDTH 624 0
DWIDTH 13 0
BBX 12 12 0 0
BITMAP
E390
E390
E3F0
E3F0
E380
E380
E380
E380
E380
F780
7F80
3B80
ENDCHAR
STARTCHAR 01E6
ENCODING 486
SWIDTH 624 0
DWIDTH 13 0
BBX 10 20 1 0
BITMAP
30C0
1D80
0F00
0000
0F80
3FC0
7DC0
7040
7000
F000
E000
E000
E3C0
E3C0
F0C0
70C0
70C0
3DC0
3FC0
0F80
ENDCHAR
STARTCHAR 01E7
ENCODING 487
SWIDTH 624 0
DWIDTH 13 0
BBX 10 22 1 -4
BITMAP
6180
3300
1E00
0E00
0000
0000
3DC0
7FC0
7FC0
F1C0
E1C0
E1C0
E1C0
E1C0
E1C0
7BC0
7FC0
3DC0
01C0
73C0
7F80
7F00
ENDCHAR
STARTCHAR 01FE
ENCODING 510
SWIDTH 624 0
DWIDTH 13 0
BBX 12 20 0 0
BITMAP
01C0
0380
0600
0020
0FB0
1FF0
3FE0
38E0
71E0
71E0
73F0
77F0
76F0
7CF0
7CE0
78E0
78E0
7FE0
7FC0
CF80
ENDCHAR
STARTCHAR 01FF
ENCODING 511
SWIDTH 624 0
DWIDTH 13 0
BBX 12 19 0 -1
BITMAP
01E0
0180
0300
0600
0000
0020
0FB0
1FE0
3DE0
79E0
73E0
7770
7670
7CE0
78E0
3DE0
7FC0
EF80
4000
ENDCHAR
STARTCHAR 0218
ENCODING 536
SWIDTH 624 0
DWIDTH 13 0
BBX 10 21 1 -5
BITMAP
1F00
7F80
7B80
E040
E000
F000
7C00
3F00
1F80
03C0
01C0
01C0
81C0
FFC0
FF80
3F00
0000
0000
0E00
1C00
1800
ENDCHAR
STARTCHAR 0219
ENCODING 537
SWIDTH 624 0
DWIDTH 13 0
BBX 9 17 2 -5
BITMAP
3E00
FF00
F700
E080
E000
7E00
3F00
0380
8380
FF80
FF00
7E00
0000
0000
1C00
3800
3000
ENDCHAR
STARTCHAR 021A
ENCODING 538
SWIDTH 624 0
DWIDTH 13 0
BBX 11 20 1 -4
BITMAP
FFE0
FFE0
0E00
0E00
0E00
0E00
0E00
0E00
0E00
0E00
0E00
0E00
0E00
0E00
0E00
0E00
0600
0200
1E00
1E00
ENDCHAR
STARTCHAR 021B
ENCODING 539
SWIDTH 624 0
DWIDTH 13 0
BBX 10 21 1 -4
BITMAP
0400
0C00
1C00
1C00
1C00
FFC0
FFC0
1C00
1C00
1C00
1C00
1C00
1C00
1C00
1E00
1FC0
0FC0
0180
0180
0780
0780
ENDCHAR
STARTCHAR 02B9
ENCODING 697
SWIDTH 624 0
DWIDTH 13 0
BBX 3 5 5 12
BITMAP
60
60
C0
C0
C0
ENDCHAR
STARTCHAR 02BB
ENCODING 699
SWIDTH 624 0
DWIDTH 13 0
BBX 5 7 4 9
BITMAP
38
30
70
70
F0
F0
F0
ENDCHAR
STARTCHAR 02BC
ENCODING 700
SWIDTH 624 0
DWIDTH 13 0
BBX 5 7 4 9
BITMAP
78
78
78
70
70
60
E0
ENDCHAR
STARTCHAR 02BD
ENCODING 701
SWIDTH 624 0
DWIDTH 13 0
BBX 3 5 5 13
BITMAP
E0
E0
80
C0
60
ENDCHAR
STARTCHAR 02BE
ENCODING 702
SWIDTH 624 0
DWIDTH 13 0
BBX 3 6 5 10
BITMAP
80
C0
60
60
C0
80
ENDCHAR
STARTCHAR 02BF
ENCODING 703
SWIDTH 624 0
DWIDTH 13 0
BBX 3 6 5 10
BITMAP
60
E0
C0
C0
E0
60
ENDCHAR
STARTCHAR 02C0
ENCODING 704
SWIDTH 624 0
DWIDTH 13 0
BBX 6 9 3 7
BITMAP
F8
FC
0C
0C
0C
78
70
70
70
ENDCHAR
STARTCHAR 02C1
ENCODING 705
SWIDTH 624 0
DWIDTH 13 0
BBX 6 9 3 7
BITMAP
3C
7C
E0
C0
E0
78
18
18
18
ENDCHAR
STARTCHAR 02C6
ENCODING 710
SWIDTH 624 0
DWIDTH 13 0
BBX 8 4 2 13
BITMAP
1C
3C
76
E3
ENDCHAR
STARTCHAR 02C7
ENCODING 711
SWIDTH 624 0
DWIDTH 13 0
BBX 8 4 2 13
BITMAP
E3
66
3C
1C
ENDCHAR
STARTCHAR 02C8
ENCODING 712
SWIDTH 624 0
DWIDTH 13 0
BBX 2 6 5 10
BITMAP
C0
C0
C0
C0
C0
C0
ENDCHAR
STARTCHAR 02C9
ENCODING 713
SWIDTH 624 0
DWIDTH 13 0
BBX 6 2 3 14
BITMAP
FC
FC
ENDCHAR
STARTCHAR 02CC
ENCODING 716
SWIDTH 624 0
DWIDTH 13 0
BBX 2 6 5 -2
BITMAP
C0
C0
C0
C0
C0
C0
ENDCHAR
STARTCHAR 02CD
ENCODING 717
SWIDTH 624 0
DWIDTH 13 0
BBX 6 2 3 -4
BITMAP
FC
FC
ENDCHAR
STARTCHAR 02CE
ENCODING 718
SWIDTH 624 0
DWIDTH 13 0
BBX 6 4 3 -6
BITMAP
E0
70
38
1C
ENDCHAR
STARTCHAR 02CF
ENCODING 719
SWIDTH 624 0
DWIDTH 13 0
BBX 6 4 4 -6
BITMAP
3C
30
60
C0
ENDCHAR
STARTCHAR 02D0
ENCODING 720
SWIDTH 624 0
DWIDTH 13 0
BBX 4 12 4 0
BITMAP
F0
70
60
20
00
00
00
00
20
20
70
F0
ENDCHAR
STARTCHAR 02D1
ENCODING 721
SWIDTH 624 0
DWIDTH 13 0
BBX 4 4 4 8
BITMAP
F0
70
60
20
ENDCHAR
STARTCHAR 02D8
ENCODING 728
SWIDTH 624 0
DWIDTH 13 0
BBX 7 3 3 14
BITMAP
C6
FC
78
ENDCHAR
STARTCHAR 02D9
ENCODING 729
SWIDTH 624 0
DWIDTH 13 0
BBX 3 2 5 14
BITMAP
E0
E0
ENDCHAR
STARTCHAR 02DA
ENCODING 730
SWIDTH 624 0
DWIDTH 13 0
BBX 6 6 3 13
BITMAP
38
7C
CC
CC
7C
38
ENDCHAR
STARTCHAR 02DB
ENCODING 731
SWIDTH 624 0
DWIDTH 13 0
BBX 4 4 5 -4
BITMAP
C0
80
F0
F0
ENDCHAR
STARTCHAR 02DC
ENCODING 732
SWIDTH 624 0
DWIDTH 13 0
BBX 7 3 3 14
BITMAP
E6
FE
9C
ENDCHAR
STARTCHAR 02DD
ENCODING 733
SWIDTH 624 0
DWIDTH 13 0
BBX 8 4 3 13
BITMAP
37
66
6C
DC
ENDCHAR
STARTCHAR 0300
ENCODING 768
SWIDTH 0 0
DWIDTH 0 0
BBX 6 4 -11 13
BITMAP
F0
30
18
0C
ENDCHAR
STARTCHAR 0301
ENCODING 769
SWIDTH 0 0
DWIDTH 0 0
BBX 6 4 -8 13
BITMAP
1C
38
70
E0
ENDCHAR
STARTCHAR 0302
ENCODING 770
SWIDTH 0 0
DWIDTH 0 0
BBX 8 4 -10 13
BITMAP
38
3C
6E
C7
ENDCHAR
STARTCHAR 0303
ENCODING 771
SWIDTH 0 0
DWIDTH 0 0
BBX 7 3 -10 14
BITMAP
72
FE
CE
ENDCHAR
STARTCHAR 0304
ENCODING 772
SWIDTH 0 0
DWIDTH 0 0
BBX 6 2 -9 14
BITMAP
FC
FC
ENDCHAR
STARTCHAR 0305
ENCODING 773
SWIDTH 0 0
DWIDTH 0 0
BBX 13 2 -13 14
BITMAP
FFF8
FFF8
ENDCHAR
STARTCHAR 0306
ENCODING 774
SWIDTH 0 0
DWIDTH 0 0
BBX 7 3 -10 14
BITMAP
C6
7E
3C
ENDCHAR
STARTCHAR 0307
ENCODING 775
SWIDTH 0 0
DWIDTH 0 0
BBX 3 2 -8 14
BITMAP
E0
E0
ENDCHAR
STARTCHAR 0308
ENCODING 776
SWIDTH 0 0
DWIDTH 0 0
BBX 6 2 -9 14
BITMAP
CC
CC
ENDCHAR
STARTCHAR 0309
ENCODING 777
SWIDTH 0 0
DWIDTH 0 0
BBX 5 5 -9 14
BITMAP
F0
F8
18
18
30
ENDCHAR
STARTCHAR 030A
ENCODING 778
SWIDTH 0 0
DWIDTH 0 0
BBX 6 6 -9 13
BITMAP
70
F8
CC
CC
F8
70
ENDCHAR
STARTCHAR 030B
ENCODING 779
SWIDTH 0 0
DWIDTH 0 0
BBX 9 4 -10 13
BITMAP
3B80
3600
6600
CC00
ENDCHAR
STARTCHAR 030C
ENCODING 780
SWIDTH 0 0
DWIDTH 0 0
BBX 8 4 -10 13
BITMAP
C7
6E
3C
38
ENDCHAR
STARTCHAR 030D
ENCODING 781
SWIDTH 0 0
DWIDTH 0 0
BBX 2 5 -7 13
BITMAP
C0
C0
C0
C0
C0
ENDCHAR
STARTCHAR 030E
ENCODING 782
SWIDTH 0 0
DWIDTH 0 0
BBX 8 5 -10 13
BITMAP
C3
C3
C3
C3
C3
ENDCHAR
STARTCHAR 030F
ENCODING 783
SWIDTH 0 0
DWIDTH 0 0
BBX 8 4 -11 13
BITMAP
EC
66
36
33
ENDCHAR
STARTCHAR 0310
ENCODING 784
SWIDTH 0 0
DWIDTH 0 0
BBX 7 5 -10 14
BITMAP
38
38
C6
7E
3C
ENDCHAR
STARTCHAR 0311
ENCODING 785
SWIDTH 0 0
DWIDTH 0 0
BBX 7 3 -10 14
BITMAP
38
7E
C6
ENDCHAR
STARTCHAR 0312
ENCODING 786
SWIDTH 0 0
DWIDTH 0 0
BBX 4 3 -8 9
BITMAP
30
60
E0
ENDCHAR
STARTCHAR 0313
ENCODING 787
SWIDTH 0 0
DWIDTH 0 0
BBX 3 5 -8 13
BITMAP
E0
E0
20
60
C0
ENDCHAR
STARTCHAR 0314
ENCODING 788
SWIDTH 0 0
DWIDTH 0 0
BBX 3 5 -8 13
BITMAP
E0
E0
C0
C0
60
ENDCHAR
STARTCHAR 0315
ENCODING 789
SWIDTH 0 0
DWIDTH 0 0
BBX 4 4 -8 13
BITMAP
70
60
60
C0
ENDCHAR
STARTCHAR 0316
ENCODING 790
SWIDTH 0 0
DWIDTH 0 0
BBX 6 4 -9 -6
BITMAP
E0
70
38
1C
ENDCHAR
STARTCHAR 0317
ENCODING 791
SWIDTH 0 0
DWIDTH 0 0
BBX 6 4 -9 -6
BITMAP
3C
30
60
C0
ENDCHAR
STARTCHAR 0318
ENCODING 792
SWIDTH 0 0
DWIDTH 0 0
BBX 4 6 -9 -8
BITMAP
30
30
F0
F0
30
30
ENDCHAR
STARTCHAR 0319
ENCODING 793
SWIDTH 0 0
DWIDTH 0 0
BBX 4 6 -8 -8
BITMAP
C0
C0
F0
F0
C0
C0
ENDCHAR
STARTCHAR 031A
ENCODING 794
SWIDTH 0 0
DWIDTH 0 0
BBX 6 6 -9 14
BITMAP
FC
FC
0C
0C
0C
0C
ENDCHAR
STARTCHAR 031B
ENCODING 795
SWIDTH 0 0
DWIDTH 0 0
BBX 4 5 -8 8
BITMAP
30
30
B0
F0
E0
ENDCHAR
STARTCHAR 031C
ENCODING 796
SWIDTH 0 0
DWIDTH 0 0
BBX 2 4 -7 -5
BITMAP
C0
80
80
C0
ENDCHAR
STARTCHAR 031D
ENCODING 797
SWIDTH 0 0
DWIDTH 0 0
BBX 6 4 -9 -6
BITMAP
30
30
FC
FC
ENDCHAR
STARTCHAR 031E
ENCODING 798
SWIDTH 0 0
DWIDTH 0 0
BBX 5 4 -9 -8
BITMAP
F8
F8
20
20
ENDCHAR
STARTCHAR 031F
ENCODING 799
SWIDTH 0 0
DWIDTH 0 0
BBX 6 6 -9 -8
BITMAP
30
30
FC
FC
30
30
ENDCHAR
STARTCHAR 0320
ENCODING 800
SWIDTH 0 0
DWIDTH 0 0
BBX 6 2 -9 -5
BITMAP
FC
FC
ENDCHAR
STARTCHAR 0321
ENCODING 801
SWIDTH 0 0
DWIDTH 0 0
BBX 5 6 -7 -4
BITMAP
38
38
38
78
F8
F0
ENDCHAR
STARTCHAR 0322
ENCODING 802
SWIDTH 0 0
DWIDTH 0 0
BBX 5 6 -11 -4
BITMAP
E0
E0
E0
F0
78
38
ENDCHAR
STARTCHAR 0323
ENCODING 803
SWIDTH 0 0
DWIDTH 0 0
BBX 3 2 -8 -5
BITMAP
E0
E0
ENDCHAR
STARTCHAR 0324
ENCODING 804
SWIDTH 0 0
DWIDTH 0 0
BBX 6 2 -9 -5
BITMAP
CC
CC
ENDCHAR
STARTCHAR 0325
ENCODING 805
SWIDTH 0 0
DWIDTH 0 0
BBX 4 4 -8 -5
BITMAP
E0
B0
90
E0
ENDCHAR
STARTCHAR 0326
ENCODING 806
SWIDTH 0 0
DWIDTH 0 0
BBX 4 3 -9 -5
BITMAP
70
60
E0
ENDCHAR
STARTCHAR 0327
ENCODING 807
SWIDTH 0 0
DWIDTH 0 0
BBX 5 4 -9 -4
BITMAP
30
18
F8
F0
ENDCHAR
STARTCHAR 0328
ENCODING 808
SWIDTH 0 0
DWIDTH 0 0
BBX 4 4 -8 -4
BITMAP
C0
80
F0
F0
ENDCHAR
STARTCHAR 0329
ENCODING 809
SWIDTH 0 0
DWIDTH 0 0
BBX 2 5 -7 -7
BITMAP
C0
C0
C0
C0
C0
ENDCHAR
STARTCHAR 032A
ENCODING 810
SWIDTH 0 0
DWIDTH 0 0
BBX 6 4 -9 -6
BITMAP
FC
FC
8C
8C
ENDCHAR
STARTCHAR 032B
ENCODING 811
SWIDTH 0 0
DWIDTH 0 0
BBX 8 3 -10 -5
BITMAP
9B
FF
7E
ENDCHAR
STARTCHAR 032C
ENCODING 812
SWIDTH 0 0
DWIDTH 0 0
BBX 8 4 -10 -5
BITMAP
C7
6E
3C
38
ENDCHAR
STARTCHAR 032D
ENCODING 813
SWIDTH 0 0
DWIDTH 0 0
BBX 8 4 -10 -5
BITMAP
38
3C
6E
C7
ENDCHAR
STARTCHAR 032E
ENCODING 814
SWIDTH 0 0
DWIDTH 0 0
BBX 7 3 -10 -5
BITMAP
C6
7E
3C
ENDCHAR
STARTCHAR 032F
ENCODING 815
SWIDTH 0 0
DWIDTH 0 0
BBX 7 3 -10 -5
BITMAP
38
7E
C6
ENDCHAR
STARTCHAR 0330
ENCODING 816
SWIDTH 0 0
DWIDTH 0 0
BBX 7 3 -10 -5
BITMAP
72
FE
CE
ENDCHAR
STARTCHAR 0331
ENCODING 817
SWIDTH 0 0
DWIDTH 0 0
BBX 6 2 -9 -4
BITMAP
FC
FC
ENDCHAR
STARTCHAR 0332
ENCODING 818
SWIDTH 0 0
DWIDTH 0 0
BBX 13 2 -13 -5
BITMAP
FFF8
FFF8
ENDCHAR
STARTCHAR 0333
ENCODING 819
SWIDTH 0 0
DWIDTH 0 0
BBX 13 5 -13 -5
BITMAP
FFF8
FFF8
0000
FFF8
FFF8
ENDCHAR
STARTCHAR 0334
ENCODING 820
SWIDTH 0 0
DWIDTH 0 0
BBX 11 4 -12 5
BITMAP
0020
FF60
FFE0
83C0
ENDCHAR
STARTCHAR 0335
ENCODING 821
SWIDTH 0 0
DWIDTH 0 0
BBX 8 2 -11 5
BITMAP
FF
FF
ENDCHAR
STARTCHAR 0336
ENCODING 822
SWIDTH 0 0
DWIDTH 0 0
BBX 13 2 -13 5
BITMAP
FFF8
FFF8
ENDCHAR
STARTCHAR 0337
ENCODING 823
SWIDTH 0 0
DWIDTH 0 0
BBX 12 14 -12 -1
BITMAP
0020
0070
0060
00C0
0180
0300
0700
0E00
1C00
1800
3000
6000
E000
C000
ENDCHAR
STARTCHAR 0338
ENCODING 824
SWIDTH 0 0
DWIDTH 0 0
BBX 13 17 -13 -1
BITMAP
0010
0038
0030
0060
00E0
01C0
0180
0380
0700
0600
0C00
1C00
1800
3000
7000
E000
4000
ENDCHAR
STARTCHAR 0339
ENCODING 825
SWIDTH 0 0
DWIDTH 0 0
BBX 2 4 -7 -5
BITMAP
80
C0
C0
80
ENDCHAR
STARTCHAR 033A
ENCODING 826
SWIDTH 0 0
DWIDTH 0 0
BBX 6 4 -9 -5
BITMAP
8C
8C
FC
FC
ENDCHAR
STARTCHAR 033B
ENCODING 827
SWIDTH 0 0
DWIDTH 0 0
BBX 6 6 -9 -8
BITMAP
FC
FC
CC
CC
FC
FC
ENDCHAR
STARTCHAR 033C
ENCODING 828
SWIDTH 0 0
DWIDTH 0 0
BBX 8 3 -10 -5
BITMAP
6E
FE
9B
ENDCHAR
STARTCHAR 033D
ENCODING 829
SWIDTH 0 0
DWIDTH 0 0
BBX 5 5 -9 12
BITMAP
D8
78
70
F8
48
ENDCHAR
STARTCHAR 033E
ENCODING 830
SWIDTH 0 0
DWIDTH 0 0
BBX 3 6 -8 13
BITMAP
60
C0
C0
60
20
E0
ENDCHAR
STARTCHAR 033F
ENCODING 831
SWIDTH 0 0
DWIDTH 0 0
BBX 13 2 -13 11
BITMAP
FFF8
FFF8
ENDCHAR
STARTCHAR 0358
ENCODING 856
SWIDTH 0 0
DWIDTH 0 0
BBX 3 2 -3 14
BITMAP
E0
E0
ENDCHAR
STARTCHAR 0361
ENCODING 865
SWIDTH 0 0
DWIDTH 0 0
BBX 17 3 -15 16
BITMAP
0FFC00
7FFF00
E00380
ENDCHAR
STARTCHAR 0384
ENCODING 900
SWIDTH 624 0
DWIDTH 13 0
BBX 6 4 5 13
BITMAP
3C
30
60
C0
ENDCHAR
STARTCHAR 0385
ENCODING 901
SWIDTH 624 0
DWIDTH 13 0
BBX 9 6 2 14
BITMAP
0780
0600
0C00
DB00
C300
C300
ENDCHAR
STARTCHAR 0386
ENCODING 902
SWIDTH 624 0
DWIDTH 13 0
BBX 13 17 -1 0
BITMAP
1C00
3800
7780
E7C0
07C0
0FC0
0EC0
0EE0
0CE0
1CE0
1FE0
1FF0
1FF0
3870
3838
3838
7038
ENDCHAR
STARTCHAR 0388
ENCODING 904
SWIDTH 624 0
DWIDTH 13 0
BBX 15 17 -4 0
BITMAP
1C00
3800
33FE
63FE
83FE
0380
0380
03FE
03FE
03FE
0380
0380
0380
0380
03FE
03FE
03FE
ENDCHAR
STARTCHAR 0389
ENCODING 905
SWIDTH 624 0
DWIDTH 13 0
BBX 15 17 -4 0
BITMAP
1C00
3000
770E
E70E
070E
070E
070E
070E
07FE
07FE
070E
070E
070E
070E
070E
070E
070E
ENDCHAR
STARTCHAR 038A
ENCODING 906
SWIDTH 624 0
DWIDTH 13 0
BBX 14 17 -3 0
BITMAP
3800
7000
67FC
C7FC
00E0
00E0
00E0
00E0
00E0
00E0
00E0
00E0
00E0
00E0
00E0
07FC
07FC
ENDCHAR
STARTCHAR 038C
ENCODING 908
SWIDTH 624 0
DWIDTH 13 0
BBX 14 18 -2 0
BITMAP
1C00
3800
33E0
67F0
8FF8
0E38
1C38
1C38
1C3C
1C3C
1C3C
1C3C
1C38
1C38
0E38
0FF8
07F0
03E0
ENDCHAR
STARTCHAR 038E
ENCODING 910
SWIDTH 624 0
DWIDTH 13 0
BBX 17 17 -5 0
BITMAP
380000
300000
678380
E7C780
C7EF80
00FD80
007C00
007800
007800
003800
003800
003800
003800
003800
003800
003800
003800
ENDCHAR
STARTCHAR 038F
ENCODING 911
SWIDTH 624 0
DWIDTH 13 0
BBX 13 17 -1 0
BITMAP
3800
7000
6780
CFE0
1FF0
1C70
3870
3870
3878
3878
3870
3870
1C70
1CE0
0EE0
3EF8
3EF8
ENDCHAR
STARTCHAR 0390
ENCODING 912
SWIDTH 624 0
DWIDTH 13 0
BBX 9 19 2 0
BITMAP
0780
0E00
0C00
DB00
C300
0000
0000
7C00
7C00
1C00
1C00
1C00
1C00
1C00
1C00
1C00
1E00
1F00
0F00
ENDCHAR
STARTCHAR 0391
ENCODING 913
SWIDTH 624 0
DWIDTH 13 0
BBX 12 15 0 0
BITMAP
0F00
0F80
0F80
1F80
1D80
1DC0
19C0
39C0
3FC0
3FE0
3FE0
70E0
7070
7070
E070
ENDCHAR
STARTCHAR 0392
ENCODING 914
SWIDTH 624 0
DWIDTH 13 0
BBX 11 15 1 0
BITMAP
FF00
FFC0
E3C0
E1C0
E1C0
E3C0
FF00
FF80
E1C0
E0E0
E0E0
E0E0
E7E0
FFC0
FF80
ENDCHAR
STARTCHAR 0393
ENCODING 915
SWIDTH 624 0
DWIDTH 13 0
BBX 9 15 2 0
BITMAP
FF80
FF80
E000
E000
E000
E000
E000
E000
E000
E000
E000
E000
E000
E000
E000
ENDCHAR
STARTCHAR 0394
ENCODING 916
SWIDTH 624 0
DWIDTH 13 0
BBX 12 15 0 0
BITMAP
0F00
0F80
0F80
1F80
1D80
1DC0
19C0
39C0
38C0
38E0
30E0
70E0
7FF0
7FF0
FFF0
ENDCHAR
STARTCHAR 0395
ENCODING 917
SWIDTH 624 0
DWIDTH 13 0
BBX 9 15 2 0
BITMAP
FF80
FF80
E000
E000
E000
E000
FF80
FF80
E000
E000
E000
E000
E000
FF80
FF80
ENDCHAR
STARTCHAR 0396
ENCODING 918
SWIDTH 624 0
DWIDTH 13 0
BBX 11 15 1 0
BITMAP
FFE0
FFE0
01E0
03C0
0380
0700
0F00
0E00
1C00
3C00
3800
7000
F000
FFE0
FFE0
ENDCHAR
STARTCHAR 0397
ENCODING 919
SWIDTH 624 0
DWIDTH 13 0
BBX 10 15 1 0
BITMAP
E1C0
E1C0
E1C0
E1C0
E1C0
E1C0
FFC0
FFC0
E1C0
E1C0
E1C0
E1C0
E1C0
E1C0
E1C0
ENDCHAR
STARTCHAR 0398
ENCODING 920
SWIDTH 624 0
DWIDTH 13 0
BBX 12 15 0 0
BITMAP
0F80
3FC0
7DE0
7070
E070
E070
E030
EF30
EF30
E070
E070
7070
7DE0
3FE0
0F80
ENDCHAR
STARTCHAR 0399
ENCODING 921
SWIDTH 624 0
DWIDTH 13 0
BBX 9 15 2 0
BITMAP
FF80
FF80
1C00
1C00
1C00
1C00
1C00
1C00
1C00
1C00
1C00
1C00
1C00
FF80
FF80
ENDCHAR
STARTCHAR 039A
ENCODING 922
SWIDTH 624 0
DWIDTH 13 0
BBX 11 15 1 0
BITMAP
E1E0
E1C0
E380
E700
EF00
EE00
FE00
FE00
F700
F700
E380
E3C0
E1C0
E1E0
E0E0
ENDCHAR
STARTCHAR 039B
ENCODING 923
SWIDTH 624 0
DWIDTH 13 0
BBX 12 15 0 0
BITMAP
0F00
0F80
0F80
1F80
1D80
1DC0
19C0
39C0
38C0
38E0
30E0
70E0
7070
7070
E070
ENDCHAR
STARTCHAR 039C
ENCODING 924
SWIDTH 624 0
DWIDTH 13 0
BBX 11 15 1 0
BITMAP
F1E0
F1E0
F3E0
D3E0
DBE0
DAE0
DEE0
CEE0
CEE0
CCE0
C0E0
C0E0
C0E0
C0E0
C0E0
ENDCHAR
STARTCHAR 039D
ENCODING 925
SWIDTH 624 0
DWIDTH 13 0
BBX 10 15 1 0
BITMAP
F0C0
F0C0
F0C0
F8C0
F8C0
FCC0
ECC0
ECC0
E6C0
E6C0
E7C0
E3C0
E3C0
E1C0
E1C0
ENDCHAR
STARTCHAR 039E
ENCODING 926
SWIDTH 624 0
DWIDTH 13 0
BBX 10 15 1 0
BITMAP
FFC0
FFC0
0000
0000
0000
0000
1F00
1F00
0000
0000
0000
0000
0000
FFC0
FFC0
ENDCHAR
STARTCHAR 039F
ENCODING 927
SWIDTH 624 0
DWIDTH 13 0
BBX 11 16 1 0
BITMAP
1F00
3F80
7FC0
71C0
E1C0
E1C0
E1E0
E1E0
E1E0
E1E0
E1C0
E1C0
71C0
7FC0
3F80
1F00
ENDCHAR
STARTCHAR 03A0
ENCODING 928
SWIDTH 624 0
DWIDTH 13 0
BBX 10 15 1 0
BITMAP
FFC0
FFC0
E1C0
E1C0
E1C0
E1C0
E1C0
E1C0
E1C0
E1C0
E1C0
E1C0
E1C0
E1C0
E1C0
ENDCHAR
STARTCHAR 03A1
ENCODING 929
SWIDTH 624 0
DWIDTH 13 0
BBX 10 15 2 0
BITMAP
FE00
FF80
EF80
E3C0
E1C0
E3C0
EF80
FF80
FE00
E000
E000
E000
E000
E000
E000
ENDCHAR
STARTCHAR 03A3
ENCODING 931
SWIDTH 624 0
DWIDTH 13 0
BBX 11 15 1 0
BITMAP
FFE0
FFE0
E000
7000
3800
3C00
1E00
0F00
1E00
3C00
3800
7000
E000
FFE0
FFE0
ENDCHAR
STARTCHAR 03A4
ENCODING 932
SWIDTH 624 0
DWIDTH 13 0
BBX 11 15 1 0
BITMAP
FFE0
FFE0
0E00
0E00
0E00
0E00
0E00
0E00
0E00
0E00
0E00
0E00
0E00
0E00
0E00
ENDCHAR
STARTCHAR 03A5
ENCODING 933
SWIDTH 624 0
DWIDTH 13 0
BBX 12 15 0 0
BITMAP
F070
F9F0
F9F0
1FB0
0F80
0F00
0F00
0700
0700
0700
0700
0700
0700
0700
0700
ENDCHAR
STARTCHAR 03A6
ENCODING 934
SWIDTH 624 0
DWIDTH 13 0
BBX 11 15 1 0
BITMAP
1F00
1F00
0E00
1F00
7FC0
EFC0
EEE0
EEE0
EEE0
EFC0
7FC0
1F00
0E00
1F00
1F00
ENDCHAR
STARTCHAR 03A7
ENCODING 935
SWIDTH 624 0
DWIDTH 13 0
BBX 12 15 0 0
BITMAP
F070
70E0
38E0
39C0
1FC0
0F80
0F00
0700
0F00
1F80
1DC0
39C0
38E0
70E0
F070
ENDCHAR
STARTCHAR 03A8
ENCODING 936
SWIDTH 624 0
DWIDTH 13 0
BBX 11 15 1 0
BITMAP
EEE0
EEE0
EEE0
EEE0
EEE0
EEE0
EFC0
EFC0
7FC0
7F80
1F00
0E00
1F00
1F00
1F00
ENDCHAR
STARTCHAR 03A9
ENCODING 937
SWIDTH 624 0
DWIDTH 13 0
BBX 11 15 1 0
BITMAP
1E00
3F80
7FC0
71C0
E1C0
E1C0
E1E0
E1C0
E1C0
E1C0
71C0
7380
3B00
FBE0
FBE0
ENDCHAR
STARTCHAR 03AA
ENCODING 938
SWIDTH 624 0
DWIDTH 13 0
BBX 9 19 2 0
BITMAP
6600
6600
0000
0000
FF80
FF80
1C00
1C00
1C00
1C00
1C00
1C00
1C00
1C00
1C00
1C00
1C00
FF80
FF80
ENDCHAR
STARTCHAR 03AB
ENCODING 939
SWIDTH 624 0
DWIDTH 13 0
BBX 12 19 0 0
BITMAP
1980
1980
0000
0000
F070
F9F0
F9F0
1FB0
0F80
0F00
0F00
0700
0700
0700
0700
0700
0700
0700
0700
ENDCHAR
STARTCHAR 03AC
ENCODING 940
SWIDTH 624 0
DWIDTH 13 0
BBX 11 18 1 0
BITMAP
01C0
0300
0600
0C00
0000
0000
3EE0
7FC0
FFC0
E7C0
E380
C380
C380
C380
E780
E7C0
7FE0
3EE0
ENDCHAR
STARTCHAR 03AD
ENCODING 941
SWIDTH 624 0
DWIDTH 13 0
BBX 9 18 2 0
BITMAP
0380
0700
0E00
1C00
1800
0000
3F00
FF00
FF00
E000
F000
3C00
7C00
E000
C000
FB80
FF80
3F00
ENDCHAR
STARTCHAR 03AE
ENCODING 942
SWIDTH 624 0
DWIDTH 13 0
BBX 9 22 2 -4
BITMAP
0780
0600
0C00
1800
0000
0000
CE00
FF00
F780
E380
E380
E380
E380
E380
E380
E380
E380
E380
0380
0380
0380
0380
ENDCHAR
STARTCHAR 03AF
ENCODING 943
SWIDTH 624 0
DWIDTH 13 0
BBX 8 18 3 0
BITMAP
07
0E
1C
38
30
00
F8
F8
38
38
38
38
38
38
38
38
3E
1E
ENDCHAR
STARTCHAR 03B0
ENCODING 944
SWIDTH 624 0
DWIDTH 13 0
BBX 11 19 1 0
BITMAP
03C0
0700
0600
6D80
6180
0000
0000
F3C0
F1C0
70C0
70E0
70E0
70E0
70E0
70E0
71C0
3BC0
3F80
1F00
ENDCHAR
STARTCHAR 03B1
ENCODING 945
SWIDTH 624 0
DWIDTH 13 0
BBX 11 12 1 0
BITMAP
3EE0
7FC0
FFC0
E7C0
E380
C380
C380
C380
E780
E7C0
7FE0
3EE0
ENDCHAR
STARTCHAR 03B2
ENCODING 946
SWIDTH 624 0
DWIDTH 13 0
BBX 11 20 1 -4
BITMAP
3E00
7F80
7F80
E3C0
E1C0
E380
E780
E780
E7C0
E1C0
E1E0
E1E0
F1C0
FFC0
FFC0
EF80
E000
E000
E000
E000
ENDCHAR
STARTCHAR 03B3
ENCODING 947
SWIDTH 624 0
DWIDTH 13 0
BBX 11 16 1 -4
BITMAP
C0E0
E1C0
F1C0
71C0
3B80
3B80
3B80
1F00
1F00
1F00
0E00
0E00
0E00
0E00
0E00
0E00
ENDCHAR
STARTCHAR 03B4
ENCODING 948
SWIDTH 624 0
DWIDTH 13 0
BBX 11 16 1 0
BITMAP
1F80
7F80
7B80
7000
7000
3F00
7F80
F1C0
E1C0
E0E0
E0E0
E1C0
E1C0
7FC0
3F80
1F00
ENDCHAR
STARTCHAR 03B5
ENCODING 949
SWIDTH 624 0
DWIDTH 13 0
BBX 9 12 2 0
BITMAP
3F00
FF00
FF00
E000
F000
3C00
FC00
E000
C000
FB80
FF80
3F00
ENDCHAR
STARTCHAR 03B6
ENCODING 950
SWIDTH 624 0
DWIDTH 13 0
BBX 9 20 2 -4
BITMAP
FF80
FF80
0780
1E00
3C00
7800
7000
E000
E000
E000
E000
E000
E000
FC00
7F00
1F80
0180
0380
0380
0300
ENDCHAR
STARTCHAR 03B7
ENCODING 951
SWIDTH 624 0
DWIDTH 13 0
BBX 9 16 2 -4
BITMAP
CE00
FF00
F780
E380
E380
E380
E380
E380
E380
E380
E380
E380
0380
0380
0380
0380
ENDCHAR
STARTCHAR 03B8
ENCODING 952
SWIDTH 624 0
DWIDTH 13 0
BBX 11 16 1 0
BITMAP
1E00
3F80
7F80
71C0
E1C0
E1C0
E0C0
FFE0
FFE0
E1C0
E1C0
E1C0
71C0
7F80
3F80
1E00
ENDCHAR
STARTCHAR 03B9
ENCODING 953
SWIDTH 624 0
DWIDTH 13 0
BBX 7 12 3 0
BITMAP
F8
F8
38
38
38
38
38
38
38
3C
3E
1E
ENDCHAR
STARTCHAR 03BA
ENCODING 954
SWIDTH 624 0
DWIDTH 13 0
BBX 10 12 2 0
BITMAP
E3C0
E780
EF00
FE00
FC00
FC00
FE00
EE00
E700
E780
E380
E1C0
ENDCHAR
STARTCHAR 03BB
ENCODING 955
SWIDTH 624 0
DWIDTH 13 0
BBX 11 16 1 0
BITMAP
F000
FC00
3C00
1E00
0E00
0E00
1F00
1F00
1F00
3B80
3B80
3B80
71C0
71C0
E1C0
E0E0
ENDCHAR
STARTCHAR 03BC
ENCODING 956
SWIDTH 624 0
DWIDTH 13 0
BBX 10 16 2 -4
BITMAP
E380
E380
E380
E380
E380
E380
E380
E380
E380
F7C0
FFC0
FDC0
E000
E000
E000
E000
ENDCHAR
STARTCHAR 03BD
ENCODING 957
SWIDTH 624 0
DWIDTH 13 0
BBX 12 12 0 0
BITMAP
F1C0
70E0
70E0
70F0
38F0
38F0
38E0
3DE0
1FC0
1F80
1F80
1F00
ENDCHAR
STARTCHAR 03BE
ENCODING 958
SWIDTH 624 0
DWIDTH 13 0
BBX 9 20 2 -4
BITMAP
FF80
FF80
3F00
7000
E000
E000
7E00
1F00
7F00
F000
E000
E000
E000
FC00
7F00
3F80
0180
0380
0300
0300
ENDCHAR
STARTCHAR 03BF
ENCODING 959
SWIDTH 624 0
DWIDTH 13 0
BBX 11 12 1 0
BITMAP
1F00
3F80
7FC0
F1C0
E1C0
E0E0
E0E0
E1C0
F1C0
7FC0
3F80
1F00
ENDCHAR
STARTCHAR 03C0
ENCODING 960
SWIDTH 624 0
DWIDTH 13 0
BBX 12 12 0 0
BITMAP
FFF0
FFF0
39C0
39C0
39C0
39C0
39C0
39C0
39C0
39C0
38F0
38F0
ENDCHAR
STARTCHAR 03C1
ENCODING 961
SWIDTH 624 0
DWIDTH 13 0
BBX 10 16 2 -4
BITMAP
3E00
7F00
F780
E380
E3C0
E1C0
E1C0
E3C0
E380
F780
FF00
EE00
E000
E000
E000
E000
ENDCHAR
STARTCHAR 03C2
ENCODING 962
SWIDTH 624 0
DWIDTH 13 0
BBX 9 16 2 -4
BITMAP
1F00
7F80
7F80
E080
E000
E000
E000
E000
E000
FC00
7F00
3F80
0180
0380
0300
0200
ENDCHAR
STARTCHAR 03C3
ENCODING 963
SWIDTH 624 0
DWIDTH 13 0
BBX 11 12 1 0
BITMAP
1FE0
7FE0
7F80
E3C0
E1C0
E1C0
E1C0
E1C0
E1C0
7FC0
7F80
1E00
ENDCHAR
STARTCHAR 03C4
ENCODING 964
SWIDTH 624 0
DWIDTH 13 0
BBX 10 12 1 0
BITMAP
FFC0
FFC0
0E00
0E00
0E00
0E00
0E00
0E00
0E00
0F00
0F80
0780
ENDCHAR
STARTCHAR 03C5
ENCODING 965
SWIDTH 624 0
DWIDTH 13 0
BBX 11 12 1 0
BITMAP
F3C0
F1C0
70C0
70E0
70E0
70E0
70E0
70E0
71C0
3BC0
3F80
1F00
ENDCHAR
STARTCHAR 03C6
ENCODING 966
SWIDTH 624 0
DWIDTH 13 0
BBX 11 16 1 -4
BITMAP
2780
6FC0
EFC0
EEE0
CEE0
CEE0
CEE0
EEE0
EFE0
FFC0
7F80
1E00
0E00
0E00
0E00
0E00
ENDCHAR
STARTCHAR 03C7
ENCODING 967
SWIDTH 624 0
DWIDTH 13 0
BBX 11 16 1 -4
BITMAP
E1E0
F1C0
7380
3B80
3F00
1F00
1F00
0E00
0E00
1E00
1F00
3F00
3B80
73C0
71E0
E0E0
ENDCHAR
STARTCHAR 03C8
ENCODING 968
SWIDTH 624 0
DWIDTH 13 0
BBX 11 16 1 -4
BITMAP
EEE0
EEE0
EEE0
EEE0
EEE0
EEE0
EEE0
EEE0
EFC0
7FC0
7F80
1E00
0E00
0E00
0E00
0E00
ENDCHAR
STARTCHAR 03C9
ENCODING 969
SWIDTH 624 0
DWIDTH 13 0
BBX 11 12 1 0
BITMAP
61C0
E0C0
E0E0
E0E0
E0E0
EEE0
EEE0
EEE0
EEE0
FEE0
FFC0
7380
ENDCHAR
STARTCHAR 03CA
ENCODING 970
SWIDTH 624 0
DWIDTH 13 0
BBX 7 16 3 0
BITMAP
CC
CC
00
00
F8
F8
38
38
38
38
38
38
38
3C
3E
1E
ENDCHAR
STARTCHAR 03CB
ENCODING 971
SWIDTH 624 0
DWIDTH 13 0
BBX 11 16 1 0
BITMAP
3300
3300
0000
0000
F3C0
F1C0
70C0
70E0
70E0
70E0
70E0
70E0
71C0
3BC0
3F80
1F00
ENDCHAR
STARTCHAR 03CC
ENCODING 972
SWIDTH 624 0
DWIDTH 13 0
BBX 11 18 1 0
BITMAP
03C0
0300
0600
0C00
0000
0000
1F00
3F80
7BC0
F1C0
E1C0
E0E0
E0E0
E1C0
F1C0
7BC0
3F80
1F00
ENDCHAR
STARTCHAR 03CD
ENCODING 973
SWIDTH 624 0
DWIDTH 13 0
BBX 11 17 1 0
BITMAP
03C0
0700
0600
0C00
0000
F3C0
F1C0
70C0
70E0
70E0
70E0
70E0
70E0
71C0
3BC0
3F80
1F00
ENDCHAR
STARTCHAR 03CE
ENCODING 974
SWIDTH 624 0
DWIDTH 13 0
BBX 11 18 1 0
BITMAP
01C0
0380
0700
0E00
0C00
0000
61C0
E0C0
E0E0
E0E0
E0E0
EEE0
EEE0
EEE0
EEE0
FEE0
FFC0
7380
ENDCHAR
STARTCHAR 03F4
ENCODING 1012
SWIDTH 624 0
DWIDTH 13 0
BBX 11 16 1 0
BITMAP
1F00
3F80
7FC0
71C0
E1C0
E1C0
E1E0
FFE0
FFE0
E1E0
E1C0
E1C0
71C0
7BC0
3F80
1F00
ENDCHAR
STARTCHAR 0400
ENCODING 1024
SWIDTH 624 0
DWIDTH 13 0
BBX 9 20 2 0
BITMAP
7000
3800
1800
0C00
FF80
FF80
E000
E000
E000
E000
E000
FF00
FF00
E000
E000
E000
E000
E000
FF80
FF80
ENDCHAR
STARTCHAR 0401
ENCODING 1025
SWIDTH 624 0
DWIDTH 13 0
BBX 9 19 2 0
BITMAP
7700
7700
0000
FF80
FF80
E000
E000
E000
E000
E000
FF00
FF00
E000
E000
E000
E000
E000
FF80
FF80
ENDCHAR
STARTCHAR 0402
ENCODING 1026
SWIDTH 624 0
DWIDTH 13 0
BBX 12 21 0 -4
BITMAP
FF80
FF80
7000
7000
7000
7000
71C0
77E0
7FF0
78F0
7870
7070
7070
7070
7070
7070
7070
0070
00F0
03E0
03C0
ENDCHAR
STARTCHAR 0403
ENCODING 1027
SWIDTH 624 0
DWIDTH 13 0
BBX 9 19 2 0
BITMAP
0700
1C00
0000
FF80
FF80
E000
E000
E000
E000
E000
E000
E000
E000
E000
E000
E000
E000
E000
E000
ENDCHAR
STARTCHAR 0404
ENCODING 1028
SWIDTH 624 0
DWIDTH 13 0
BBX 10 16 1 0
BITMAP
0F80
3FC0
3DC0
7840
7000
F000
E000
FF80
FF80
E000
F000
7000
7840
3DC0
3FC0
0F80
ENDCHAR
STARTCHAR 0405
ENCODING 1029
SWIDTH 624 0
DWIDTH 13 0
BBX 10 16 1 0
BITMAP
1F00
7F80
7B80
E040
E000
F000
7C00
3F00
1F80
03C0
01C0
01C0
81C0
FFC0
FF80
3F00
ENDCHAR
STARTCHAR 0406
ENCODING 1030
SWIDTH 624 0
DWIDTH 13 0
BBX 9 16 2 0
BITMAP
FF80
FF80
1C00
1C00
1C00
1C00
1C00
1C00
1C00
1C00
1C00
1C00
1C00
1C00
FF80
FF80
ENDCHAR
STARTCHAR 0407
ENCODING 1031
SWIDTH 624 0
DWIDTH 13 0
BBX 9 19 2 0
BITMAP
6600
6600
0000
FF80
FF80
1C00
1C00
1C00
1C00
1C00
1C00
1C00
1C00
1C00
1C00
1C00
1C00
FF80
FF80
ENDCHAR
STARTCHAR 0408
ENCODING 1032
SWIDTH 624 0
DWIDTH 13 0
BBX 9 16 1 0
BITMAP
1F80
1F80
0380
0380
0380
0380
0380
0380
0380
0380
0380
0380
8380
FF80
FF00
7E00
ENDCHAR
STARTCHAR 0409
ENCODING 1033
SWIDTH 624 0
DWIDTH 13 0
BBX 13 16 0 0
BITMAP
3F00
3F00
3B00
3B00
3B00
3B00
3B00
3BE0
3BF0
3B30
3B38
3338
3330
F370
F3E0
E3C0
ENDCHAR
STARTCHAR 040A
ENCODING 1034
SWIDTH 624 0
DWIDTH 13 0
BBX 13 16 0 0
BITMAP
E300
E300
E300
E300
E300
E300
E300
FFE0
FFF0
E330
E338
E338
E330
E370
E3E0
E3C0
ENDCHAR
STARTCHAR 040B
ENCODING 1035
SWIDTH 624 0
DWIDTH 13 0
BBX 12 16 0 0
BITMAP
FF80
FF80
3800
3800
3800
3800
3FE0
3FF0
3CF0
3870
3870
3870
3870
3870
3870
3870
ENDCHAR
STARTCHAR 040C
ENCODING 1036
SWIDTH 624 0
DWIDTH 13 0
BBX 11 20 1 0
BITMAP
0380
0700
0600
0C00
E1E0
E1C0
E380
E780
EF00
EE00
FC00
FE00
FE00
F700
E780
E380
E3C0
E1C0
E1E0
E0E0
ENDCHAR
STARTCHAR 040D
ENCODING 1037
SWIDTH 624 0
DWIDTH 13 0
BBX 10 20 1 0
BITMAP
3800
1C00
0C00
0600
E1C0
E1C0
E3C0
E3C0
E7C0
E6C0
E6C0
EEC0
ECC0
ECC0
F8C0
F8C0
F8C0
F0C0
F0C0
F0C0
ENDCHAR
STARTCHAR 040E
ENCODING 1038
SWIDTH 624 0
DWIDTH 13 0
BBX 12 20 0 0
BITMAP
10C0
18C0
0F80
0000
F070
7070
38E0
38E0
1CE0
1DC0
0FC0
0FC0
0F80
0780
0700
0700
0F00
3E00
3E00
3C00
ENDCHAR
STARTCHAR 040F
ENCODING 1039
SWIDTH 624 0
DWIDTH 13 0
BBX 10 19 1 -3
BITMAP
E1C0
E1C0
E1C0
E1C0
E1C0
E1C0
E1C0
E1C0
E1C0
E1C0
E1C0
E1C0
E1C0
FFC0
FFC0
FFC0
0E00
0E00
0E00
ENDCHAR
STARTCHAR 0410
ENCODING 1040
SWIDTH 624 0
DWIDTH 13 0
BBX 12 16 0 0
BITMAP
0F00
0F00
0F80
0F80
1D80
1DC0
19C0
19C0
39C0
3FE0
3FE0
7FE0
70E0
7070
7070
E070
ENDCHAR
STARTCHAR 0411
ENCODING 1041
SWIDTH 624 0
DWIDTH 13 0
BBX 10 16 2 0
BITMAP
FF80
FF80
E000
E000
E000
E000
E000
FF00
FF80
E380
E3C0
E3C0
E380
EF80
FF80
FE00
ENDCHAR
STARTCHAR 0412
ENCODING 1042
SWIDTH 624 0
DWIDTH 13 0
BBX 11 16 1 0
BITMAP
FF00
FF80
E7C0
E1C0
E1C0
E1C0
E7C0
FF00
FF80
E1C0
E0E0
E0E0
E0E0
E7E0
FFC0
FF80
ENDCHAR
STARTCHAR 0413
ENCODING 1043
SWIDTH 624 0
DWIDTH 13 0
BBX 9 16 2 0
BITMAP
FF80
FF80
E000
E000
E000
E000
E000
E000
E000
E000
E000
E000
E000
E000
E000
E000
ENDCHAR
STARTCHAR 0414
ENCODING 1044
SWIDTH 624 0
DWIDTH 13 0
BBX 12 20 0 -4
BITMAP
3FE0
3FE0
38E0
38E0
38E0
38E0
38E0
38E0
38E0
38E0
38E0
38E0
38E0
78E0
FFF0
FFF0
E030
E030
E030
E030
ENDCHAR
STARTCHAR 0415
ENCODING 1045
SWIDTH 624 0
DWIDTH 13 0
BBX 9 16 2 0
BITMAP
FF80
FF80
E000
E000
E000
E000
E000
FF00
FF00
E000
E000
E000
E000
E000
FF80
FF80
ENDCHAR
STARTCHAR 0416
ENCODING 1046
SWIDTH 624 0
DWIDTH 13 0
BBX 12 16 0 0
BITMAP
E730
6770
7760
37E0
3FE0
3FC0
1FC0
3FC0
3FC0
3FE0
3FE0
7760
7760
6770
6770
E730
ENDCHAR
STARTCHAR 0417
ENCODING 1047
SWIDTH 624 0
DWIDTH 13 0
BBX 10 16 1 0
BITMAP
7F00
7F80
77C0
01C0
01C0
0380
1F80
1F00
0780
01C0
01C0
01C0
81C0
F7C0
FF80
7F00
ENDCHAR
STARTCHAR 0418
ENCODING 1048
SWIDTH 624 0
DWIDTH 13 0
BBX 10 16 1 0
BITMAP
E1C0
E1C0
E3C0
E3C0
E7C0
E6C0
E6C0
EEC0
ECC0
ECC0
F8C0
F8C0
F8C0
F0C0
F0C0
F0C0
ENDCHAR
STARTCHAR 0419
ENCODING 1049
SWIDTH 624 0
DWIDTH 13 0
BBX 10 20 1 0
BITMAP
2180
3100
1F00
0000
E1C0
E1C0
E3C0
E3C0
E7C0
E6C0
E6C0
EEC0
ECC0
ECC0
F8C0
F8C0
F8C0
F0C0
F0C0
F0C0
ENDCHAR
STARTCHAR 041A
ENCODING 1050
SWIDTH 624 0
DWIDTH 13 0
BBX 11 16 1 0
BITMAP
E1E0
E1C0
E380
E780
EF00
EE00
FC00
FE00
FE00
F700
E780
E380
E3C0
E1C0
E1E0
E0E0
ENDCHAR
STARTCHAR 041B
ENCODING 1051
SWIDTH 624 0
DWIDTH 13 0
BBX 11 16 0 0
BITMAP
3FE0
3FE0
3CE0
3CE0
38E0
38E0
38E0
38E0
38E0
38E0
38E0
38E0
38E0
78E0
F0E0
E0E0
ENDCHAR
STARTCHAR 041C
ENCODING 1052
SWIDTH 624 0
DWIDTH 13 0
BBX 11 16 1 0
BITMAP
F1E0
F1E0
F3E0
D3E0
DBE0
DBE0
DEE0
DEE0
CEE0
CEE0
C0E0
C0E0
C0E0
C0E0
C0E0
C0E0
ENDCHAR
STARTCHAR 041D
ENCODING 1053
SWIDTH 624 0
DWIDTH 13 0
BBX 10 16 1 0
BITMAP
E1C0
E1C0
E1C0
E1C0
E1C0
E1C0
E1C0
FFC0
FFC0
E1C0
E1C0
E1C0
E1C0
E1C0
E1C0
E1C0
ENDCHAR
STARTCHAR 041E
ENCODING 1054
SWIDTH 624 0
DWIDTH 13 0
BBX 11 16 1 0
BITMAP
1F00
3F80
7FC0
71C0
E1C0
E1C0
E1E0
E1E0
E1E0
E1E0
E1C0
E1C0
71C0
7FC0
3F80
1F00
ENDCHAR
STARTCHAR 041F
ENCODING 1055
SWIDTH 624 0
DWIDTH 13 0
BBX 10 16 1 0
BITMAP
FFC0
FFC0
E1C0
E1C0
E1C0
E1C0
E1C0
E1C0
E1C0
E1C0
E1C0
E1C0
E1C0
E1C0
E1C0
E1C0
ENDCHAR
STARTCHAR 0420
ENCODING 1056
SWIDTH 624 0
DWIDTH 13 0
BBX 10 16 2 0
BITMAP
FE00
FF80
EF80
E3C0
E1C0
E1C0
E3C0
EF80
FF80
FE00
E000
E000
E000
E000
E000
E000
ENDCHAR
STARTCHAR 0421
ENCODING 1057
SWIDTH 624 0
DWIDTH 13 0
BBX 10 16 1 0
BITMAP
0F80
1FC0
3FC0
7840
7000
7000
7000
F000
F000
7000
7000
7000
7840
3FC0
1FC0
0FC0
ENDCHAR
STARTCHAR 0422
ENCODING 1058
SWIDTH 624 0
DWIDTH 13 0
BBX 11 16 1 0
BITMAP
FFE0
FFE0
0E00
0E00
0E00
0E00
0E00
0E00
0E00
0E00
0E00
0E00
0E00
0E00
0E00
0E00
ENDCHAR
STARTCHAR 0423
ENCODING 1059
SWIDTH 624 0
DWIDTH 13 0
BBX 12 16 0 0
BITMAP
F070
7070
38E0
38E0
1CE0
1DC0
0FC0
0FC0
0F80
0780
0700
0700
0F00
3E00
3E00
3C00
ENDCHAR
STARTCHAR 0424
ENCODING 1060
SWIDTH 624 0
DWIDTH 13 0
BBX 12 16 0 0
BITMAP
0700
0F80
3FC0
3FE0
7770
6770
E730
E730
E730
E730
6770
77E0
3FE0
3FC0
0F00
0700
ENDCHAR
STARTCHAR 0425
ENCODING 1061
SWIDTH 624 0
DWIDTH 13 0
BBX 12 16 0 0
BITMAP
F070
70E0
38E0
39C0
1DC0
1F80
0F80
0700
0F00
0F80
1F80
1DC0
39C0
38E0
70E0
F070
ENDCHAR
STARTCHAR 0426
ENCODING 1062
SWIDTH 624 0
DWIDTH 13 0
BBX 11 19 1 -3
BITMAP
E1C0
E1C0
E1C0
E1C0
E1C0
E1C0
E1C0
E1C0
E1C0
E1C0
E1C0
E1C0
E1C0
FFE0
FFE0
FFE0
0060
0060
0060
ENDCHAR
STARTCHAR 0427
ENCODING 1063
SWIDTH 624 0
DWIDTH 13 0
BBX 10 16 1 0
BITMAP
E1C0
E1C0
E1C0
E1C0
E1C0
E1C0
E1C0
FFC0
7FC0
3DC0
01C0
01C0
01C0
01C0
01C0
01C0
ENDCHAR
STARTCHAR 0428
ENCODING 1064
SWIDTH 624 0
DWIDTH 13 0
BBX 11 16 1 0
BITMAP
CCE0
CCE0
CCE0
CCE0
CCE0
CCE0
CCE0
CCE0
CCE0
CCE0
CCE0
CCE0
CCE0
FFE0
FFE0
FFE0
ENDCHAR
STARTCHAR 0429
ENCODING 1065
SWIDTH 624 0
DWIDTH 13 0
BBX 11 19 1 -3
BITMAP
CEE0
CEE0
CEE0
CEE0
CEE0
CEE0
CEE0
CEE0
CEE0
CEE0
CEE0
CEE0
CEE0
FFE0
FFE0
FFE0
0060
0060
0060
ENDCHAR
STARTCHAR 042A
ENCODING 1066
SWIDTH 624 0
DWIDTH 13 0
BBX 12 16 0 0
BITMAP
FC00
FC00
1C00
1C00
1C00
1C00
1C00
1FC0
1FE0
1CF0
1C70
1C70
1C70
1DF0
1FE0
1FC0
ENDCHAR
STARTCHAR 042B
ENCODING 1067
SWIDTH 624 0
DWIDTH 13 0
BBX 12 16 0 0
BITMAP
E030
E030
E030
E030
E030
E030
E030
FE30
FF30
E730
E3B0
E3B0
E330
EF30
FF30
FC30
ENDCHAR
STARTCHAR 042C
ENCODING 1068
SWIDTH 624 0
DWIDTH 13 0
BBX 10 16 2 0
BITMAP
E000
E000
E000
E000
E000
E000
E000
FF00
FF80
E380
E1C0
E1C0
E3C0
E780
FF80
FE00
ENDCHAR
STARTCHAR 042D
ENCODING 1069
SWIDTH 624 0
DWIDTH 13 0
BBX 9 16 2 0
BITMAP
FC00
FE00
FF00
8780
0380
0380
0380
7F80
7F80
0380
0380
0380
8780
FF00
FE00
FC00
ENDCHAR
STARTCHAR 042E
ENCODING 1070
SWIDTH 624 0
DWIDTH 13 0
BBX 13 16 0 0
BITMAP
E1C0
E3E0
E7F0
E770
E670
EE30
EE30
FE38
FE38
EE30
EE30
E670
E770
E770
E3E0
E1C0
ENDCHAR
STARTCHAR 042F
ENCODING 1071
SWIDTH 624 0
DWIDTH 13 0
BBX 11 16 0 0
BITMAP
1FE0
3FE0
7CE0
70E0
70E0
70E0
70E0
3CE0
1FE0
1FE0
1CE0
3CE0
38E0
38E0
70E0
F0E0
ENDCHAR
STARTCHAR 0430
ENCODING 1072
SWIDTH 624 0
DWIDTH 13 0
BBX 11 12 1 0
BITMAP
3F00
7F80
7BC0
01C0
3FC0
7FC0
FDC0
E1C0
E1C0
FFC0
7FC0
3CE0
ENDCHAR
STARTCHAR 0431
ENCODING 1073
SWIDTH 624 0
DWIDTH 13 0
BBX 11 17 1 0
BITMAP
0F80
3FC0
7E00
7000
E000
DF00
FF80
FBC0
F1C0
E0E0
E0E0
E0E0
E0E0
71C0
7BC0
3F80
1F00
ENDCHAR
STARTCHAR 0432
ENCODING 1074
SWIDTH 624 0
DWIDTH 13 0
BBX 11 12 1 0
BITMAP
FF00
FFC0
E3C0
E1C0
E3C0
FF80
FFC0
E1C0
E0E0
E3C0
FFC0
FF80
ENDCHAR
STARTCHAR 0433
ENCODING 1075
SWIDTH 624 0
DWIDTH 13 0
BBX 8 12 3 0
BITMAP
FF
FF
E0
E0
E0
E0
E0
E0
E0
E0
E0
E0
ENDCHAR
STARTCHAR 0434
ENCODING 1076
SWIDTH 624 0
DWIDTH 13 0
BBX 11 15 1 -3
BITMAP
7FC0
7FC0
71C0
71C0
71C0
71C0
71C0
71C0
71C0
71C0
FFE0
FFE0
C060
C060
C060
ENDCHAR
STARTCHAR 0435
ENCODING 1077
SWIDTH 624 0
DWIDTH 13 0
BBX 11 12 1 0
BITMAP
1F00
7F80
7BC0
E1C0
E0E0
FFE0
FFE0
E000
E020
7DC0
7FC0
1F80
ENDCHAR
STARTCHAR 0436
ENCODING 1078
SWIDTH 624 0
DWIDTH 13 0
BBX 12 12 0 0
BITMAP
E770
7770
37E0
3FC0
1FC0
3FC0
3FC0
3FE0
7760
7770
6770
E730
ENDCHAR
STARTCHAR 0437
ENCODING 1079
SWIDTH 624 0
DWIDTH 13 0
BBX 9 12 2 0
BITMAP
FE00
FF00
EF80
0380
0F00
3E00
3F00
0380
0380
EF80
FF00
FE00
ENDCHAR
STARTCHAR 0438
ENCODING 1080
SWIDTH 624 0
DWIDTH 13 0
BBX 9 12 2 0
BITMAP
E380
E780
E780
EF80
EF80
EF80
FB80
FB80
F380
F380
E380
E380
ENDCHAR
STARTCHAR 0439
ENCODING 1081
SWIDTH 624 0
DWIDTH 13 0
BBX 9 17 2 0
BITMAP
4300
6300
7E00
1C00
0000
E380
E780
E780
EF80
EF80
EF80
FB80
FB80
F380
F380
E380
E380
ENDCHAR
STARTCHAR 043A
ENCODING 1082
SWIDTH 624 0
DWIDTH 13 0
BBX 10 12 2 0
BITMAP
E3C0
E780
EF00
FE00
FC00
FC00
FE00
EE00
E700
E780
E380
E1C0
ENDCHAR
STARTCHAR 043B
ENCODING 1083
SWIDTH 624 0
DWIDTH 13 0
BBX 11 12 0 0
BITMAP
1FE0
1FE0
1CE0
1CE0
1CE0
18E0
18E0
38E0
38E0
78E0
F8E0
F0E0
ENDCHAR
STARTCHAR 043C
ENCODING 1084
SWIDTH 624 0
DWIDTH 13 0
BBX 11 12 1 0
BITMAP
F1E0
F1E0
F3E0
F3E0
DBE0
DBE0
DEE0
DEE0
CEE0
CEE0
C0E0
C0E0
ENDCHAR
STARTCHAR 043D
ENCODING 1085
SWIDTH 624 0
DWIDTH 13 0
BBX 9 12 2 0
BITMAP
E380
E380
E380
E380
FF80
FF80
E380
E380
E380
E380
E380
E380
ENDCHAR
STARTCHAR 043E
ENCODING 1086
SWIDTH 624 0
DWIDTH 13 0
BBX 11 12 1 0
BITMAP
1F00
3F80
7FC0
F1C0
E1C0
E0E0
E0E0
E1C0
F1C0
7FC0
3F80
1F00
ENDCHAR
STARTCHAR 043F
ENCODING 1087
SWIDTH 624 0
DWIDTH 13 0
BBX 9 12 2 0
BITMAP
FF80
FF80
E380
E380
E380
E380
E380
E380
E380
E380
E380
E380
ENDCHAR
STARTCHAR 0440
ENCODING 1088
SWIDTH 624 0
DWIDTH 13 0
BBX 10 16 2 -4
BITMAP
CE00
DF00
F780
E380
E3C0
E1C0
E1C0
E3C0
E380
F780
FF00
EE00
E000
E000
E000
E000
ENDCHAR
STARTCHAR 0441
ENCODING 1089
SWIDTH 624 0
DWIDTH 13 0
BBX 9 12 2 0
BITMAP
1F00
7F80
FB80
E080
E000
E000
E000
E000
E080
FB80
7F80
1F00
ENDCHAR
STARTCHAR 0442
ENCODING 1090
SWIDTH 624 0
DWIDTH 13 0
BBX 9 12 2 0
BITMAP
FF80
FF80
1C00
1C00
1C00
1C00
1C00
1C00
1C00
1C00
1C00
1C00
ENDCHAR
STARTCHAR 0443
ENCODING 1091
SWIDTH 624 0
DWIDTH 13 0
BBX 11 16 1 -4
BITMAP
E0E0
E1E0
71C0
71C0
7380
3B80
3B80
1F00
1F00
1F00
0E00
0E00
0C00
1C00
FC00
F800
ENDCHAR
STARTCHAR 0444
ENCODING 1092
SWIDTH 624 0
DWIDTH 13 0
BBX 11 21 1 -4
BITMAP
0C00
0C00
0C00
0C00
0C00
3F80
7F80
EDC0
ECC0
CCE0
CCE0
CCE0
CCE0
ECC0
7FC0
7F80
1F00
0C00
0C00
0C00
0C00
ENDCHAR
STARTCHAR 0445
ENCODING 1093
SWIDTH 624 0
DWIDTH 13 0
BBX 11 12 1 0
BITMAP
F1E0
73C0
3B80
3F00
1F00
0E00
1E00
1F00
3B80
7380
71C0
E1E0
ENDCHAR
STARTCHAR 0446
ENCODING 1094
SWIDTH 624 0
DWIDTH 13 0
BBX 10 15 2 -3
BITMAP
E380
E380
E380
E380
E380
E380
E380
E380
E380
E380
FFC0
FFC0
00C0
00C0
00C0
ENDCHAR
STARTCHAR 0447
ENCODING 1095
SWIDTH 624 0
DWIDTH 13 0
BBX 10 12 1 0
BITMAP
E1C0
E1C0
E1C0
E1C0
E1C0
79C0
7FC0
3FC0
01C0
01C0
01C0
01C0
ENDCHAR
STARTCHAR 0448
ENCODING 1096
SWIDTH 624 0
DWIDTH 13 0
BBX 11 12 1 0
BITMAP
CCE0
CCE0
CCE0
CCE0
CCE0
CCE0
CCE0
CCE0
CCE0
CCE0
FFE0
FFE0
ENDCHAR
STARTCHAR 0449
ENCODING 1097
SWIDTH 624 0
DWIDTH 13 0
BBX 12 15 1 -3
BITMAP
CCE0
CCE0
CCE0
CCE0
CCE0
CCE0
CCE0
CCE0
CCE0
CCE0
FFF0
FFF0
0070
0070
0070
ENDCHAR
STARTCHAR 044A
ENCODING 1098
SWIDTH 624 0
DWIDTH 13 0
BBX 11 12 1 0
BITMAP
F800
F800
3800
3800
3800
3FC0
3FE0
38E0
38E0
3BE0
3FC0
3F80
ENDCHAR
STARTCHAR 044B
ENCODING 1099
SWIDTH 624 0
DWIDTH 13 0
BBX 12 12 0 0
BITMAP
E070
E070
E070
E070
E070
FE70
FF70
E770
E770
EF70
FE70
FC70
ENDCHAR
STARTCHAR 044C
ENCODING 1100
SWIDTH 624 0
DWIDTH 13 0
BBX 10 12 2 0
BITMAP
E000
E000
E000
E000
E000
FF00
FF80
E3C0
E1C0
E380
FF80
FF00
ENDCHAR
STARTCHAR 044D
ENCODING 1101
SWIDTH 624 0
DWIDTH 13 0
BBX 9 12 2 0
BITMAP
7C00
FE00
FF00
8780
0380
7F80
7F80
0380
8780
FF00
FE00
7C00
ENDCHAR
STARTCHAR 044E
ENCODING 1102
SWIDTH 624 0
DWIDTH 13 0
BBX 11 12 1 0
BITMAP
C380
C7C0
CEE0
CCE0
CC60
FC60
FC60
CC60
CCE0
CFE0
C7C0
C380
ENDCHAR
STARTCHAR 044F
ENCODING 1103
SWIDTH 624 0
DWIDTH 13 0
BBX 10 12 1 0
BITMAP
3FC0
7FC0
79C0
E1C0
71C0
7FC0
3FC0
3DC0
39C0
79C0
71C0
E1C0
ENDCHAR
STARTCHAR 0450
ENCODING 1104
SWIDTH 624 0
DWIDTH 13 0
BBX 11 18 1 0
BITMAP
7800
1800
0C00
0600
0000
0000
1F00
7F80
7BC0
E1C0
E0E0
FFE0
FFE0
E000
E020
7DC0
7FC0
1F80
ENDCHAR
STARTCHAR 0451
ENCODING 1105
SWIDTH 624 0
DWIDTH 13 0
BBX 11 17 1 0
BITMAP
3B80
3B80
0000
0000
0000
1F00
7F80
7BC0
E1C0
E0E0
FFE0
FFE0
E000
E020
7DC0
7FC0
1F80
ENDCHAR
STARTCHAR 0452
ENCODING 1106
SWIDTH 624 0
DWIDTH 13 0
BBX 12 20 0 -4
BITMAP
3800
3800
3800
3800
FFC0
FFC0
3800
3800
3BE0
3FE0
3CF0
3870
3870
3870
3870
3870
00E0
01E0
03C0
0380
ENDCHAR
STARTCHAR 0453
ENCODING 1107
SWIDTH 624 0
DWIDTH 13 0
BBX 8 17 3 0
BITMAP
07
0E
1C
38
00
FF
FF
E0
E0
E0
E0
E0
E0
E0
E0
E0
E0
ENDCHAR
STARTCHAR 0454
ENCODING 1108
SWIDTH 624 0
DWIDTH 13 0
BBX 10 12 1 0
BITMAP
1F80
3FC0
7DC0
7040
7000
FF00
FF00
7000
7040
7DC0
3FC0
1F80
ENDCHAR
STARTCHAR 0455
ENCODING 1109
SWIDTH 624 0
DWIDTH 13 0
BBX 9 12 2 0
BITMAP
3E00
FF00
F700
E080
E000
7E00
3F00
0380
8380
FF80
FF00
7E00
ENDCHAR
STARTCHAR 0456
ENCODING 1110
SWIDTH 624 0
DWIDTH 13 0
BBX 9 18 2 0
BITMAP
3800
3800
3800
3800
0000
0000
F800
F800
3800
3800
3800
3800
3800
3800
3800
3E00
1F80
0F80
ENDCHAR
STARTCHAR 0457
ENCODING 1111
SWIDTH 624 0
DWIDTH 13 0
BBX 9 16 2 0
BITMAP
EE00
EE00
0000
0000
F800
F800
3800
3800
3800
3800
3800
3800
3800
3E00
1F80
0F80
ENDCHAR
STARTCHAR 0458
ENCODING 1112
SWIDTH 624 0
DWIDTH 13 0
BBX 7 22 2 -4
BITMAP
0E
0E
0E
0E
00
00
7E
7E
0E
0E
0E
0E
0E
0E
0E
0E
0E
0E
0E
3E
FC
F8
ENDCHAR
STARTCHAR 0459
ENCODING 1113
SWIDTH 624 0
DWIDTH 13 0
BBX 13 12 0 0
BITMAP
3F00
3F00
3B00
3B00
3B00
3BE0
3BF0
3B30
3338
F370
F3F0
E3E0
ENDCHAR
STARTCHAR 045A
ENCODING 1114
SWIDTH 624 0
DWIDTH 13 0
BBX 13 12 0 0
BITMAP
E300
E300
E300
E300
FF00
FFE0
E3F0
E330
E338
E370
E3F0
E3E0
ENDCHAR
STARTCHAR 045B
ENCODING 1115
SWIDTH 624 0
DWIDTH 13 0
BBX 11 16 0 0
BITMAP
3800
3800
3800
3800
FFC0
FFC0
3800
3800
3BC0
3FE0
3CE0
38E0
38E0
38E0
38E0
38E0
ENDCHAR
STARTCHAR 045C
ENCODING 1116
SWIDTH 624 0
DWIDTH 13 0
BBX 10 17 2 0
BITMAP
0780
0E00
0C00
1800
0000
E3C0
E780
EF00
FE00
FC00
FC00
FE00
EE00
E700
E780
E380
E1C0
ENDCHAR
STARTCHAR 045D
ENCODING 1117
SWIDTH 624 0
DWIDTH 13 0
BBX 9 17 2 0
BITMAP
F000
3800
1800
0C00
0000
E380
E780
E780
EF80
EF80
EF80
FB80
FB80
F380
F380
E380
E380
ENDCHAR
STARTCHAR 045E
ENCODING 1118
SWIDTH 624 0
DWIDTH 13 0
BBX 11 21 1 -4
BITMAP
2180
3180
1F00
0E00
0000
E0E0
E1E0
71C0
71C0
7380
3B80
3B80
1F00
1F00
1F00
0E00
0E00
0C00
1C00
FC00
F800
ENDCHAR
STARTCHAR 045F
ENCODING 1119
SWIDTH 624 0
DWIDTH 13 0
BBX 9 15 2 -3
BITMAP
E380
E380
E380
E380
E380
E380
E380
E380
E380
E380
FF80
FF80
1800
1800
1800
ENDCHAR
STARTCHAR 0462
ENCODING 1122
SWIDTH 624 0
DWIDTH 13 0
BBX 12 16 0 0
BITMAP
1C00
1C00
FF80
FF80
1C00
1C00
1C00
1FC0
1FE0
1CF0
1C70
1C70
1C70
1DF0
1FE0
1F80
ENDCHAR
STARTCHAR 0463
ENCODING 1123
SWIDTH 624 0
DWIDTH 13 0
BBX 12 17 0 0
BITMAP
1C00
1C00
1C00
1C00
1C00
FFC0
FFC0
1C00
1C00
1C00
1FC0
1FE0
1C70
1C70
1CF0
1FE0
1FC0
ENDCHAR
STARTCHAR 0472
ENCODING 1138
SWIDTH 624 0
DWIDTH 13 0
BBX 11 16 1 0
BITMAP
1F00
3F80
7FC0
71C0
E1C0
E1C0
E1E0
FFE0
FFE0
E1E0
E1C0
E1C0
F1C0
7BC0
3F80
1F00
ENDCHAR
STARTCHAR 0473
ENCODING 1139
SWIDTH 624 0
DWIDTH 13 0
BBX 11 12 1 0
BITMAP
1F00
3F80
7FC0
E1C0
E1C0
FFE0
FFE0
E1C0
E1C0
7BC0
3F80
1F00
ENDCHAR
STARTCHAR 0490
ENCODING 1168
SWIDTH 624 0
DWIDTH 13 0
BBX 10 19 2 0
BITMAP
01C0
01C0
01C0
FFC0
FFC0
E000
E000
E000
E000
E000
E000
E000
E000
E000
E000
E000
E000
E000
E000
ENDCHAR
STARTCHAR 0491
ENCODING 1169
SWIDTH 624 0
DWIDTH 13 0
BBX 8 15 3 0
BITMAP
03
03
03
FF
FF
E0
E0
E0
E0
E0
E0
E0
E0
E0
E0
ENDCHAR
STARTCHAR 0492
ENCODING 1170
SWIDTH 624 0
DWIDTH 13 0
BBX 11 16 1 0
BITMAP
7FE0
7FE0
7000
7000
7000
7000
7000
FF80
FF80
7000
7000
7000
7000
7000
7000
7000
ENDCHAR
STARTCHAR 0493
ENCODING 1171
SWIDTH 624 0
DWIDTH 13 0
BBX 9 12 2 0
BITMAP
7F80
7F80
7000
7000
7000
FF00
FF00
7000
7000
7000
7000
7000
ENDCHAR
STARTCHAR 0494
ENCODING 1172
SWIDTH 624 0
DWIDTH 13 0
BBX 10 20 2 -4
BITMAP
FF80
FF80
E000
E000
E000
E000
FF00
FF80
E780
E3C0
E1C0
E1C0
E1C0
E1C0
E1C0
E1C0
03C0
0780
1F80
1F00
ENDCHAR
STARTCHAR 0495
ENCODING 1173
SWIDTH 624 0
DWIDTH 13 0
BBX 9 16 2 -4
BITMAP
FF00
FF00
E000
E000
E000
FE00
FF00
E780
E380
E380
E380
E380
0380
0F80
1F00
1E00
ENDCHAR
STARTCHAR 0496
ENCODING 1174
SWIDTH 624 0
DWIDTH 13 0
BBX 12 19 0 -3
BITMAP
E730
6770
7760
37E0
3FE0
3FC0
1FC0
3FC0
3FC0
3FE0
3FE0
7760
7770
6770
6770
E730
0030
0030
0030
ENDCHAR
STARTCHAR 0497
ENCODING 1175
SWIDTH 624 0
DWIDTH 13 0
BBX 12 15 0 -3
BITMAP
E770
7770
37E0
3FC0
1FC0
3FC0
3FC0
3FE0
7760
7760
6770
E730
0030
0030
0030
ENDCHAR
STARTCHAR 0498
ENCODING 1176
SWIDTH 624 0
DWIDTH 13 0
BBX 10 20 1 -4
BITMAP
7F00
7F80
77C0
01C0
01C0
0380
1F80
1F00
0780
01C0
01C0
01C0
81C0
F7C0
FF80
7F00
0400
0600
3E00
3C00
ENDCHAR
STARTCHAR 0499
ENCODING 1177
SWIDTH 624 0
DWIDTH 13 0
BBX 9 16 2 -4
BITMAP
FE00
FF00
EF80
0380
0F00
3E00
3F00
0380
0380
EF80
FF00
FE00
0800
0C00
7C00
7800
ENDCHAR
STARTCHAR 049A
ENCODING 1178
SWIDTH 624 0
DWIDTH 13 0
BBX 11 19 1 -3
BITMAP
E0E0
E1C0
E380
E780
E700
EE00
FE00
FE00
FF00
F700
E780
E380
E3C0
E1E0
E1E0
E0E0
00E0
00E0
00E0
ENDCHAR
STARTCHAR 049B
ENCODING 1179
SWIDTH 624 0
DWIDTH 13 0
BBX 10 15 2 -3
BITMAP
E3C0
E780
EF00
FE00
FC00
FC00
FE00
EE00
E700
E780
E3C0
E1C0
01C0
01C0
01C0
ENDCHAR
STARTCHAR 04A2
ENCODING 1186
SWIDTH 624 0
DWIDTH 13 0
BBX 12 19 1 -3
BITMAP
E1C0
E1C0
E1C0
E1C0
E1C0
E1C0
E1C0
FFC0
FFC0
E1C0
E1C0
E1C0
E1C0
E1F0
E1F0
E1F0
0070
0070
0070
ENDCHAR
STARTCHAR 04A3
ENCODING 1187
SWIDTH 624 0
DWIDTH 13 0
BBX 13 15 0 -3
BITMAP
E1C0
E1C0
E1C0
E1C0
FFC0
FFC0
E1C0
E1C0
E1C0
E1C0
E1F8
E1F8
0038
0038
0038
ENDCHAR
STARTCHAR 04A4
ENCODING 1188
SWIDTH 624 0
DWIDTH 13 0
BBX 12 16 1 0
BITMAP
C3F0
C3F0
C300
C300
C300
C300
C300
FF00
FF00
C300
C300
C300
C300
C300
C300
C300
ENDCHAR
STARTCHAR 04A5
ENCODING 1189
SWIDTH 624 0
DWIDTH 13 0
BBX 12 12 1 0
BITMAP
C3F0
C3F0
C300
C300
FF00
FF00
C300
C300
C300
C300
C300
C300
ENDCHAR
STARTCHAR 04AA
ENCODING 1194
SWIDTH 624 0
DWIDTH 13 0
BBX 10 20 1 -4
BITMAP
0F80
1FC0
3FC0
7840
7000
7000
7000
F000
F000
F000
7000
7000
7840
3FC0
3FC0
0FC0
0300
0100
0F00
0F00
ENDCHAR
STARTCHAR 04AB
ENCODING 1195
SWIDTH 624 0
DWIDTH 13 0
BBX 9 16 2 -4
BITMAP
1F00
7F80
FB80
E080
E000
E000
E000
E000
E080
F180
7F80
3F00
0400
0600
3E00
3C00
ENDCHAR
STARTCHAR 04AC
ENCODING 1196
SWIDTH 624 0
DWIDTH 13 0
BBX 11 19 1 -3
BITMAP
FFE0
FFE0
0E00
0E00
0E00
0E00
0E00
0E00
0E00
0E00
0E00
0E00
0E00
0FC0
0FC0
0FC0
01C0
01C0
01C0
ENDCHAR
STARTCHAR 04AD
ENCODING 1197
SWIDTH 624 0
DWIDTH 13 0
BBX 9 15 2 -3
BITMAP
FF80
FF80
1C00
1C00
1C00
1C00
1C00
1C00
1C00
1C00
1F80
1F80
0380
0380
0380
ENDCHAR
STARTCHAR 04AE
ENCODING 1198
SWIDTH 624 0
DWIDTH 13 0
BBX 12 16 0 0
BITMAP
F070
7070
70E0
38E0
39C0
1DC0
1F80
0F80
0F00
0700
0700
0700
0700
0700
0700
0700
ENDCHAR
STARTCHAR 04AF
ENCODING 1199
SWIDTH 624 0
DWIDTH 13 0
BBX 11 16 1 -4
BITMAP
E0E0
E1C0
71C0
71C0
7380
3B80
3B80
3F00
1F00
1E00
1E00
0E00
0E00
0E00
0E00
0E00
ENDCHAR
STARTCHAR 04B0
ENCODING 1200
SWIDTH 624 0
DWIDTH 13 0
BBX 12 16 0 0
BITMAP
F070
7070
70E0
38E0
39C0
1DC0
1F80
0F80
0F00
0700
3FC0
3FC0
3FC0
0700
0700
0700
ENDCHAR
STARTCHAR 04B1
ENCODING 1201
SWIDTH 624 0
DWIDTH 13 0
BBX 11 16 1 -4
BITMAP
E0E0
E1C0
71C0
71C0
7380
3B80
3B80
3F00
1F00
1E00
1E00
0E00
3F80
3F80
0E00
0E00
ENDCHAR
STARTCHAR 04B2
ENCODING 1202
SWIDTH 624 0
DWIDTH 13 0
BBX 12 19 0 -3
BITMAP
F070
70E0
38E0
39C0
1DC0
1F80
0F80
0700
0F00
0F80
1F80
1DC0
39C0
38F0
70F0
F070
0070
0070
0070
ENDCHAR
STARTCHAR 04B3
ENCODING 1203
SWIDTH 624 0
DWIDTH 13 0
BBX 11 15 1 -3
BITMAP
F1E0
73C0
3B80
3F00
1F00
0E00
1E00
1F00
3F80
7380
71E0
E1E0
00E0
00E0
00E0
ENDCHAR
STARTCHAR 04BA
ENCODING 1210
SWIDTH 624 0
DWIDTH 13 0
BBX 11 16 1 0
BITMAP
E000
E000
E000
E000
E000
E780
FFC0
FFC0
F1E0
E0E0
E0E0
E0E0
E0E0
E0E0
E0E0
E0E0
ENDCHAR
STARTCHAR 04BB
ENCODING 1211
SWIDTH 624 0
DWIDTH 13 0
BBX 9 16 2 0
BITMAP
E000
E000
E000
E000
EE00
FF00
F780
E380
E380
E380
E380
E380
E380
E380
E380
E380
ENDCHAR
STARTCHAR 04C0
ENCODING 1216
SWIDTH 624 0
DWIDTH 13 0
BBX 9 16 2 0
BITMAP
FF80
FF80
1C00
1C00
1C00
1C00
1C00
1C00
1C00
1C00
1C00
1C00
1C00
1C00
FF80
FF80
ENDCHAR
STARTCHAR 04C1
ENCODING 1217
SWIDTH 624 0
DWIDTH 13 0
BBX 12 20 0 0
BITMAP
10C0
1880
0F80
0000
E730
6770
7760
37E0
3FE0
3FC0
1FC0
3FC0
3FC0
3FE0
3FE0
7760
7760
6770
6770
E730
ENDCHAR
STARTCHAR 04C2
ENCODING 1218
SWIDTH 624 0
DWIDTH 13 0
BBX 12 17 0 0
BITMAP
10C0
18C0
1F80
0700
0000
E770
7770
37E0
3FC0
1FC0
3FC0
3FC0
3FE0
7760
7770
6770
E730
ENDCHAR
STARTCHAR 04C3
ENCODING 1219
SWIDTH 624 0
DWIDTH 13 0
BBX 11 20 1 -4
BITMAP
E0E0
E1C0
E380
E780
E700
EE00
FF80
FFC0
FFC0
F1C0
E1C0
E1C0
E1C0
E1C0
E1C0
E1C0
01C0
03C0
0F80
0F00
ENDCHAR
STARTCHAR 04C4
ENCODING 1220
SWIDTH 624 0
DWIDTH 13 0
BBX 10 16 2 -4
BITMAP
E3C0
E700
EF00
FE00
FC00
FE00
FF00
FF00
E700
E700
E700
E700
0700
0700
3F00
3E00
ENDCHAR
STARTCHAR 04C7
ENCODING 1223
SWIDTH 624 0
DWIDTH 13 0
BBX 10 20 1 -4
BITMAP
E1C0
E1C0
E1C0
E1C0
E1C0
E1C0
FFC0
FFC0
E1C0
E1C0
E1C0
E1C0
E1C0
E1C0
E1C0
E1C0
01C0
03C0
0F80
0F00
ENDCHAR
STARTCHAR 04C8
ENCODING 1224
SWIDTH 624 0
DWIDTH 13 0
BBX 9 16 2 -4
BITMAP
E380
E380
E380
E380
FF80
FF80
E380
E380
E380
E380
E380
E380
0380
0780
1F00
1E00
ENDCHAR
STARTCHAR 04CB
ENCODING 1227
SWIDTH 624 0
DWIDTH 13 0
BBX 10 19 1 -3
BITMAP
E1C0
E1C0
E1C0
E1C0
E1C0
E1C0
E1C0
FFC0
7FC0
01C0
01C0
01C0
01C0
0FC0
0FC0
0FC0
0E00
0E00
0E00
ENDCHAR
STARTCHAR 04CC
ENCODING 1228
SWIDTH 624 0
DWIDTH 13 0
BBX 10 15 1 -3
BITMAP
E1C0
E1C0
E1C0
E1C0
E1C0
79C0
7FC0
1FC0
01C0
01C0
0FC0
0FC0
0E00
0E00
0E00
ENDCHAR
STARTCHAR 04CF
ENCODING 1231
SWIDTH 624 0
DWIDTH 13 0
BBX 3 16 4 0
BITMAP
E0
E0
E0
E0
E0
E0
E0
E0
E0
E0
E0
E0
E0
E0
E0
E0
ENDCHAR
STARTCHAR 04D0
ENCODING 1232
SWIDTH 624 0
DWIDTH 13 0
BBX 12 19 0 0
BITMAP
18C0
0F80
0000
0F00
0F00
0F80
0F80
1D80
1DC0
19C0
19C0
39C0
3FE0
3FE0
7FE0
70E0
7070
7070
E070
ENDCHAR
STARTCHAR 04D1
ENCODING 1233
SWIDTH 624 0
DWIDTH 13 0
BBX 11 17 1 0
BITMAP
2180
3180
3F00
0E00
0000
3F00
7F80
7BC0
01C0
3FC0
7FC0
FDC0
E1C0
E1C0
F3C0
7FC0
3CE0
ENDCHAR
STARTCHAR 04D2
ENCODING 1234
SWIDTH 624 0
DWIDTH 13 0
BBX 12 20 0 0
BITMAP
1980
1980
1980
0000
0F00
0F00
0F80
0F80
1D80
1DC0
19C0
19C0
39C0
3FE0
3FE0
7FE0
70E0
7070
7070
E070
ENDCHAR
STARTCHAR 04D3
ENCODING 1235
SWIDTH 624 0
DWIDTH 13 0
BBX 11 17 1 0
BITMAP
3300
3300
0000
0000
0000
3F00
7F80
7BC0
01C0
3FC0
7FC0
FDC0
E1C0
E1C0
FFC0
7FC0
3CE0
ENDCHAR
STARTCHAR 04D4
ENCODING 1236
SWIDTH 624 0
DWIDTH 13 0
BBX 12 16 0 0
BITMAP
0FF0
1FF0
1B80
1B80
1B80
3B80
3B80
33E0
33E0
7380
7F80
7F80
6380
6380
E3F0
E3F0
ENDCHAR
STARTCHAR 04D5
ENCODING 1237
SWIDTH 624 0
DWIDTH 13 0
BBX 12 12 0 0
BITMAP
39E0
7FE0
6F70
0730
0730
7FF0
FFF0
E700
C700
EFB0
7DF0
39E0
ENDCHAR
STARTCHAR 04D6
ENCODING 1238
SWIDTH 624 0
DWIDTH 13 0
BBX 9 20 2 0
BITMAP
4300
6300
3E00
0000
FF80
FF80
FF80
E000
E000
E000
FF80
FF80
FF80
E000
E000
E000
E000
FF80
FF80
FF80
ENDCHAR
STARTCHAR 04D7
ENCODING 1239
SWIDTH 624 0
DWIDTH 13 0
BBX 11 17 1 0
BITMAP
3180
3F00
0E00
0000
0000
1F00
7F80
7BC0
E1C0
E0E0
FFE0
FFE0
E000
E020
7DC0
7FC0
1F80
ENDCHAR
STARTCHAR 04D8
ENCODING 1240
SWIDTH 624 0
DWIDTH 13 0
BBX 11 16 1 0
BITMAP
1F00
3F80
3FC0
21C0
01C0
01C0
01E0
FFE0
FFE0
E1E0
E1C0
E1C0
71C0
7BC0
3F80
1F00
ENDCHAR
STARTCHAR 04D9
ENCODING 1241
SWIDTH 624 0
DWIDTH 13 0
BBX 11 12 1 0
BITMAP
3F00
7F80
77C0
81C0
00E0
FFE0
FFE0
E0E0
E1C0
7BC0
7F80
1F00
ENDCHAR
STARTCHAR 04DA
ENCODING 1242
SWIDTH 624 0
DWIDTH 13 0
BBX 11 19 1 0
BITMAP
3B80
3B80
0000
1F00
3F80
3FC0
21C0
01C0
01C0
01E0
FFE0
FFE0
E1E0
E1C0
E1C0
71C0
7BC0
3F80
1F00
ENDCHAR
STARTCHAR 04DB
ENCODING 1243
SWIDTH 624 0
DWIDTH 13 0
BBX 11 17 1 0
BITMAP
3B80
3B80
0000
0000
0000
3F00
7F80
77C0
81C0
00E0
FFE0
FFE0
E0E0
E1C0
7BC0
7F80
1F00
ENDCHAR
STARTCHAR 04DC
ENCODING 1244
SWIDTH 624 0
DWIDTH 13 0
BBX 12 19 0 0
BITMAP
1980
1980
0000
E730
6770
7760
37E0
3FE0
3FC0
1FC0
3FC0
3FC0
3FE0
3FE0
7760
7760
6770
6770
E730
ENDCHAR
STARTCHAR 04DD
ENCODING 1245
SWIDTH 624 0
DWIDTH 13 0
BBX 12 16 0 0
BITMAP
1980
1980
0000
0000
E770
7770
37E0
3FC0
1FC0
3FC0
3FC0
3FE0
7760
7770
6770
E730
ENDCHAR
STARTCHAR 04DE
ENCODING 1246
SWIDTH 624 0
DWIDTH 13 0
BBX 10 19 1 0
BITMAP
3300
3300
0000
7F00
7F80
77C0
01C0
01C0
0380
1F80
1F00
0780
01C0
01C0
01C0
81C0
F7C0
FF80
7F00
ENDCHAR
STARTCHAR 04DF
ENCODING 1247
SWIDTH 624 0
DWIDTH 13 0
BBX 9 17 2 0
BITMAP
6600
6600
0000
0000
0000
FE00
FF00
EF80
0380
0F00
3E00
3F00
0380
0380
EF80
FF00
FE00
ENDCHAR
STARTCHAR 04E0
ENCODING 1248
SWIDTH 624 0
DWIDTH 13 0
BBX 12 16 0 0
BITMAP
7FF0
7FF0
01E0
03E0
07C0
0F80
1F00
1FE0
1FF0
00F0
0070
E070
F070
7FF0
7FE0
1FC0
ENDCHAR
STARTCHAR 04E1
ENCODING 1249
SWIDTH 624 0
DWIDTH 13 0
BBX 10 16 1 -4
BITMAP
FF80
FF80
0380
0780
0F00
1E00
3C00
3F80
3FC0
03C0
01C0
01C0
81C0
FFC0
FF80
7F00
ENDCHAR
STARTCHAR 04E2
ENCODING 1250
SWIDTH 624 0
DWIDTH 13 0
BBX 10 19 1 0
BITMAP
3F00
3F00
0000
E1C0
E1C0
E3C0
E3C0
E7C0
E6C0
E6C0
EEC0
ECC0
ECC0
F8C0
F8C0
F8C0
F0C0
F0C0
F0C0
ENDCHAR
STARTCHAR 04E3
ENCODING 1251
SWIDTH 624 0
DWIDTH 13 0
BBX 9 16 2 0
BITMAP
7E00
7E00
0000
0000
E380
E780
E780
EF80
EF80
EF80
FB80
FB80
F380
F380
E380
E380
ENDCHAR
STARTCHAR 04E4
ENCODING 1252
SWIDTH 624 0
DWIDTH 13 0
BBX 10 19 1 0
BITMAP
3300
3300
0000
E1C0
E1C0
E3C0
E3C0
E7C0
E6C0
E6C0
EEC0
ECC0
ECC0
F8C0
F8C0
F8C0
F0C0
F0C0
F0C0
ENDCHAR
STARTCHAR 04E5
ENCODING 1253
SWIDTH 624 0
DWIDTH 13 0
BBX 9 16 2 0
BITMAP
6600
6600
0000
0000
E380
E780
E780
EF80
EF80
EF80
FB80
FB80
F380
F380
E380
E380
ENDCHAR
STARTCHAR 04E6
ENCODING 1254
SWIDTH 624 0
DWIDTH 13 0
BBX 11 19 1 0
BITMAP
3300
3300
0000
1F00
3F80
7FC0
71C0
E1C0
E1C0
E1E0
E1E0
E1E0
E1E0
E1C0
E1C0
71C0
7FC0
3F80
1F00
ENDCHAR
STARTCHAR 04E7
ENCODING 1255
SWIDTH 624 0
DWIDTH 13 0
BBX 11 17 1 0
BITMAP
3300
3300
0000
0000
0000
1F00
3F80
7FC0
F1C0
E1C0
E0E0
E0E0
E1C0
F1C0
7FC0
3F80
1F00
ENDCHAR
STARTCHAR 04E8
ENCODING 1256
SWIDTH 624 0
DWIDTH 13 0
BBX 11 16 1 0
BITMAP
1F00
3F80
7FC0
71C0
E1C0
E1C0
E1E0
FFE0
FFE0
E1E0
E1C0
E1C0
71C0
7BC0
3F80
1F00
ENDCHAR
STARTCHAR 04E9
ENCODING 1257
SWIDTH 624 0
DWIDTH 13 0
BBX 11 12 1 0
BITMAP
1F00
3F80
7FC0
E1C0
E1C0
FFE0
FFE0
E1C0
E1C0
7BC0
3F80
1F00
ENDCHAR
STARTCHAR 04EA
ENCODING 1258
SWIDTH 624 0
DWIDTH 13 0
BBX 11 19 1 0
BITMAP
3300
3300
0000
1F00
3F80
7FC0
71C0
E1C0
E1C0
E1E0
FFE0
FFE0
E1E0
E1C0
E1C0
71C0
7BC0
3F80
1F00
ENDCHAR
STARTCHAR 04EB
ENCODING 1259
SWIDTH 624 0
DWIDTH 13 0
BBX 11 17 1 0
BITMAP
3300
3300
0000
0000
0000
1F00
3F80
7FC0
E1C0
E1C0
FFE0
FFE0
E1C0
E1C0
7BC0
3F80
1F00
ENDCHAR
STARTCHAR 04EC
ENCODING 1260
SWIDTH 624 0
DWIDTH 13 0
BBX 9 19 2 0
BITMAP
6600
6600
0000
FC00
FE00
FF00
8700
0380
0380
0380
7F80
7F80
0380
0380
0380
8700
FF00
FE00
FC00
ENDCHAR
STARTCHAR 04ED
ENCODING 1261
SWIDTH 624 0
DWIDTH 13 0
BBX 9 17 2 0
BITMAP
6600
6600
0000
0000
0000
7C00
FE00
FF00
8780
0380
7F80
7F80
0380
8780
FF00
FF00
7C00
ENDCHAR
STARTCHAR 04EE
ENCODING 1262
SWIDTH 624 0
DWIDTH 13 0
BBX 12 19 0 0
BITMAP
1F80
1F80
0000
F070
7070
78E0
38E0
3DE0
1DC0
1DC0
0F80
0F80
0780
0700
0700
0E00
3E00
3E00
3C00
ENDCHAR
STARTCHAR 04EF
ENCODING 1263
SWIDTH 624 0
DWIDTH 13 0
BBX 11 20 1 -4
BITMAP
3F00
3F00
0000
0000
E0E0
E1C0
71C0
71C0
7380
3B80
3B80
3F00
1F00
1E00
0E00
0E00
1C00
1C00
F800
F000
ENDCHAR
STARTCHAR 04F0
ENCODING 1264
SWIDTH 624 0
DWIDTH 13 0
BBX 12 19 0 0
BITMAP
1980
1980
0000
F070
7070
78E0
38E0
3DE0
1DC0
1DC0
0F80
0F80
0780
0700
0700
0E00
3E00
3E00
3C00
ENDCHAR
STARTCHAR 04F1
ENCODING 1265
SWIDTH 624 0
DWIDTH 13 0
BBX 11 20 1 -4
BITMAP
3300
3300
0000
0000
E0E0
E1C0
71C0
71C0
7380
3B80
3B80
3F00
1F00
1E00
0E00
0E00
1C00
1C00
F800
F000
ENDCHAR
STARTCHAR 04F2
ENCODING 1266
SWIDTH 624 0
DWIDTH 13 0
BBX 12 19 0 0
BITMAP
0FE0
0DC0
1B80
F070
7070
78E0
38E0
3DE0
1DC0
1DC0
0F80
0F80
0780
0700
0700
0E00
3E00
3E00
3C00
ENDCHAR
STARTCHAR 04F3
ENCODING 1267
SWIDTH 624 0
DWIDTH 13 0
BBX 11 22 1 -4
BITMAP
0DC0
1980
1B00
3300
0400
0000
E0E0
E1C0
71C0
71C0
7380
3B80
3B80
3F00
1F00
1E00
0E00
0E00
1C00
1C00
F800
F000
ENDCHAR
STARTCHAR 04F4
ENCODING 1268
SWIDTH 624 0
DWIDTH 13 0
BBX 10 19 1 0
BITMAP
3300
3300
0000
E1C0
E1C0
E1C0
E1C0
E1C0
E1C0
E1C0
FFC0
7FC0
3DC0
01C0
01C0
01C0
01C0
01C0
01C0
ENDCHAR
STARTCHAR 04F5
ENCODING 1269
SWIDTH 624 0
DWIDTH 13 0
BBX 10 16 1 0
BITMAP
3300
3300
0000
0000
E1C0
E1C0
E1C0
E1C0
E1C0
F9C0
7FC0
3FC0
01C0
01C0
01C0
01C0
ENDCHAR
STARTCHAR 04F6
ENCODING 1270
SWIDTH 624 0
DWIDTH 13 0
BBX 9 19 2 -3
BITMAP
FF80
FF80
E000
E000
E000
E000
E000
E000
E000
E000
E000
E000
E000
FC00
FC00
FC00
1C00
1C00
1C00
ENDCHAR
STARTCHAR 04F7
ENCODING 1271
SWIDTH 624 0
DWIDTH 13 0
BBX 8 15 2 -3
BITMAP
FF
FF
E0
E0
E0
E0
E0
E0
E0
E0
FC
FC
1C
1C
1C
ENDCHAR
STARTCHAR 04F8
ENCODING 1272
SWIDTH 624 0
DWIDTH 13 0
BBX 12 19 0 0
BITMAP
1DC0
1DC0
0000
E030
E030
E030
E030
E030
E030
E030
FE30
FF30
E730
E3B0
E3B0
E330
EF30
FF30
FC30
ENDCHAR
STARTCHAR 04F9
ENCODING 1273
SWIDTH 624 0
DWIDTH 13 0
BBX 12 16 0 0
BITMAP
1980
1980
0000
0000
E070
E070
E070
E070
E070
FE70
FF70
E770
E770
EF70
FE70
FC70
ENDCHAR
STARTCHAR 0510
ENCODING 1296
SWIDTH 624 0
DWIDTH 13 0
BBX 10 16 1 0
BITMAP
1F80
7FC0
7FC0
7000
7000
7000
3E00
1E00
7C00
7000
E000
E000
F040
7FC0
7FC0
1FC0
ENDCHAR
STARTCHAR 0511
ENCODING 1297
SWIDTH 624 0
DWIDTH 13 0
BBX 9 12 2 0
BITMAP
3F00
FF00
FF00
E000
F000
3C00
FC00
E000
C000
FB80
FF80
3F00
ENDCHAR
STARTCHAR 051A
ENCODING 1306
SWIDTH 624 0
DWIDTH 13 0
BBX 12 19 1 -3
BITMAP
1F00
3F80
7FC0
71C0
E1C0
E1C0
E1E0
E1E0
E1E0
E1E0
E1C0
E1C0
71C0
7FC0
3F80
1F00
0380
01C0
01F0
ENDCHAR
STARTCHAR 051B
ENCODING 1307
SWIDTH 624 0
DWIDTH 13 0
BBX 10 16 1 -4
BITMAP
3DC0
7FC0
7FC0
E1C0
E1C0
E1C0
E1C0
E1C0
E1C0
7FC0
7FC0
3DC0
01C0
01C0
01C0
01C0
ENDCHAR
STARTCHAR 051C
ENCODING 1308
SWIDTH 624 0
DWIDTH 13 0
BBX 13 16 0 0
BITMAP
E038
E030
E030
E030
6730
6770
6770
6F70
6F70
7DF0
7DE0
7DE0
79E0
39E0
38E0
38E0
ENDCHAR
STARTCHAR 051D
ENCODING 1309
SWIDTH 624 0
DWIDTH 13 0
BBX 13 12 0 0
BITMAP
E038
E030
E030
6730
6770
6770
6F60
7D60
7DE0
39E0
39E0
38E0
ENDCHAR
STARTCHAR 0531
ENCODING 1329
SWIDTH 624 0
DWIDTH 13 0
BBX 11 16 1 0
BITMAP
E1C0
E1C0
E1C0
E1C0
E1C0
E1C0
E1C0
E1C0
E1C0
E1C0
E3C0
EFC0
E7C0
FFE0
7FC0
3FC0
ENDCHAR
STARTCHAR 0532
ENCODING 1330
SWIDTH 624 0
DWIDTH 13 0
BBX 11 16 1 0
BITMAP
3F00
7F80
7FC0
F1C0
E1C0
E1C0
E1C0
E000
E000
FFE0
FFE0
FFE0
E000
E000
E000
E000
ENDCHAR
STARTCHAR 0533
ENCODING 1331
SWIDTH 624 0
DWIDTH 13 0
BBX 12 16 0 0
BITMAP
1F00
3F80
7FC0
71C0
E0E0
E0E0
E0E0
E0E0
70E0
7FF0
3FF0
1FF0
00E0
00E0
00E0
00E0
ENDCHAR
STARTCHAR 0534
ENCODING 1332
SWIDTH 624 0
DWIDTH 13 0
BBX 12 16 0 0
BITMAP
1F00
7FC0
7FC0
71C0
E0E0
E0E0
E0E0
00E0
00E0
00F0
00F0
00E0
00E0
00E0
00E0
00E0
ENDCHAR
STARTCHAR 0535
ENCODING 1333
SWIDTH 624 0
DWIDTH 13 0
BBX 11 16 1 0
BITMAP
E000
E000
E000
E000
FFE0
FFE0
E000
E000
E000
E1C0
E1C0
E1C0
F1C0
7FC0
7F80
3F00
ENDCHAR
STARTCHAR 0536
ENCODING 1334
SWIDTH 624 0
DWIDTH 13 0
BBX 11 16 1 0
BITMAP
1F00
7F80
7FC0
E1C0
E1E0
E0E0
E0E0
00E0
01E0
01C0
01C0
0380
0380
EF00
FFC0
FFC0
ENDCHAR
STARTCHAR 0537
ENCODING 1335
SWIDTH 624 0
DWIDTH 13 0
BBX 10 16 1 0
BITMAP
E000
E000
E000
E000
FFC0
FFC0
E000
E000
E000
E000
E000
E000
E000
FF80
FF80
FF80
ENDCHAR
STARTCHAR 0538
ENCODING 1336
SWIDTH 624 0
DWIDTH 13 0
BBX 11 16 1 0
BITMAP
3F00
7F80
7FC0
E1C0
E1C0
E1C0
E1C0
E000
E000
E000
E000
E000
E000
FFE0
FFE0
FFE0
ENDCHAR
STARTCHAR 0539
ENCODING 1337
SWIDTH 624 0
DWIDTH 13 0
BBX 12 16 0 0
BITMAP
1F80
3FC0
7FE0
60E0
6060
E060
E060
E3F0
E7F0
EF60
EC60
EC60
EC60
EEE0
E7C0
E380
ENDCHAR
STARTCHAR 053A
ENCODING 1338
SWIDTH 624 0
DWIDTH 13 0
BBX 12 16 0 0
BITMAP
00E0
00E0
00E0
00E0
1FF0
3FF0
7CE0
70E0
E0E0
E0E0
E0E0
E0E0
71C0
7FC0
3F80
1F00
ENDCHAR
STARTCHAR 053B
ENCODING 1339
SWIDTH 624 0
DWIDTH 13 0
BBX 10 16 1 0
BITMAP
E000
E000
E000
E000
FF00
FF80
FFC0
E1C0
E1C0
E1C0
E1C0
E000
E000
E000
E000
E000
ENDCHAR
STARTCHAR 053C
ENCODING 1340
SWIDTH 624 0
DWIDTH 13 0
BBX 9 16 2 0
BITMAP
E000
E000
E000
E000
E000
E000
E000
E000
E000
E000
E000
E000
E000
FF80
FF80
FF80
ENDCHAR
STARTCHAR 053D
ENCODING 1341
SWIDTH 624 0
DWIDTH 13 0
BBX 11 16 1 0
BITMAP
C000
C000
C000
C000
FCE0
FCE0
CCE0
CCE0
CCE0
CCE0
CCE0
CCE0
CCE0
CEE0
CFC0
C780
ENDCHAR
STARTCHAR 053E
ENCODING 1342
SWIDTH 624 0
DWIDTH 13 0
BBX 12 16 0 0
BITMAP
E3F0
E7F0
FFF0
FF90
FFC0
39E0
70F0
7070
7070
7070
7070
7070
7070
3FE0
3FE0
0F80
ENDCHAR
STARTCHAR 053F
ENCODING 1343
SWIDTH 624 0
DWIDTH 13 0
BBX 10 16 1 0
BITMAP
E000
E000
E000
E000
E1C0
E1C0
E1C0
E1C0
F1C0
7FC0
7FC0
1FC0
01C0
01C0
01C0
01C0
ENDCHAR
STARTCHAR 0540
ENCODING 1344
SWIDTH 624 0
DWIDTH 13 0
BBX 11 16 1 0
BITMAP
0780
0380
03C0
01C0
07E0
0F80
3E00
7C00
F000
E000
F000
FE00
7F80
0FE0
03E0
00E0
ENDCHAR
STARTCHAR 0541
ENCODING 1345
SWIDTH 624 0
DWIDTH 13 0
BBX 11 16 1 0
BITMAP
1F00
7F80
FFC0
E1C0
E1E0
E0E0
00E0
00E0
01E0
7DC0
FFC0
FF80
E780
FFC0
FFE0
7CC0
ENDCHAR
STARTCHAR 0542
ENCODING 1346
SWIDTH 624 0
DWIDTH 13 0
BBX 12 16 0 0
BITMAP
1F00
7FC0
7FC0
71C0
E0E0
E0E0
E0E0
00E0
00E0
00E0
00E0
00E0
00E0
00F0
00F0
00F0
ENDCHAR
STARTCHAR 0543
ENCODING 1347
SWIDTH 624 0
DWIDTH 13 0
BBX 11 16 1 0
BITMAP
F0E0
71E0
7BE0
3F80
3E00
1E00
1E00
3E00
7F00
7700
E380
E3C0
E1C0
FFE0
FFE0
7FE0
ENDCHAR
STARTCHAR 0544
ENCODING 1348
SWIDTH 624 0
DWIDTH 13 0
BBX 12 16 0 0
BITMAP
E0F0
E0F0
E0F0
E0E0
E0E0
E0E0
E0E0
E0E0
E0E0
E0E0
E0E0
E0E0
71C0
7FC0
3FC0
1F00
ENDCHAR
STARTCHAR 0545
ENCODING 1349
SWIDTH 624 0
DWIDTH 13 0
BBX 11 16 1 0
BITMAP
1F00
3F80
7FC0
71C0
01C0
01C0
FFC0
FFC0
FFC0
00E0
00E0
E0E0
F0E0
7FC0
3FC0
1F00
ENDCHAR
STARTCHAR 0546
ENCODING 1350
SWIDTH 624 0
DWIDTH 13 0
BBX 12 16 0 0
BITMAP
F800
F800
F800
3800
3800
3800
3800
3800
3800
3870
3870
3870
3870
3FF0
1FE0
0FC0
ENDCHAR
STARTCHAR 0547
ENCODING 1351
SWIDTH 624 0
DWIDTH 13 0
BBX 11 16 1 0
BITMAP
F800
FE00
FFC0
3FC0
79C0
7040
E000
E000
E000
E0E0
E0E0
E0E0
E1C0
7FC0
7F80
1F00
ENDCHAR
STARTCHAR 0548
ENCODING 1352
SWIDTH 624 0
DWIDTH 13 0
BBX 10 16 1 0
BITMAP
1F00
7F80
7FC0
E1C0
E1C0
E1C0
E1C0
E1C0
E1C0
E1C0
E1C0
E1C0
E1C0
E1C0
E1C0
E1C0
ENDCHAR
STARTCHAR 0549
ENCODING 1353
SWIDTH 624 0
DWIDTH 13 0
BBX 11 16 1 0
BITMAP
1F00
7F80
7FC0
E1C0
E0E0
E0E0
00E0
00E0
01C0
81C0
63C0
7F80
7F00
1F80
0780
0180
ENDCHAR
STARTCHAR 054A
ENCODING 1354
SWIDTH 624 0
DWIDTH 13 0
BBX 11 16 1 0
BITMAP
1F00
7FC0
FFC0
EEE0
CEE0
CEE0
CEE0
0EE0
0EE0
0EE0
0EE0
00E0
00E0
00E0
00E0
00E0
ENDCHAR
STARTCHAR 054B
ENCODING 1355
SWIDTH 624 0
DWIDTH 13 0
BBX 11 16 1 0
BITMAP
1F00
7F80
7FC0
E1C0
E0E0
E0E0
E0E0
FCE0
FEE0
3FC0
07C0
0780
0780
EF00
FFC0
FFC0
ENDCHAR
STARTCHAR 054C
ENCODING 1356
SWIDTH 624 0
DWIDTH 13 0
BBX 12 16 0 0
BITMAP
1F00
3FC0
7FC0
71C0
E0E0
E0E0
E0E0
E0E0
E0E0
E0F0
E0F0
E0E0
E0E0
E0E0
E0E0
E0E0
ENDCHAR
STARTCHAR 054D
ENCODING 1357
SWIDTH 624 0
DWIDTH 13 0
BBX 10 16 1 0
BITMAP
E1C0
E1C0
E1C0
E1C0
E1C0
E1C0
E1C0
E1C0
E1C0
E1C0
E1C0
E1C0
F1C0
7FC0
7F80
1F00
ENDCHAR
STARTCHAR 054E
ENCODING 1358
SWIDTH 624 0
DWIDTH 13 0
BBX 12 16 0 0
BITMAP
00E0
00E0
00E0
00E0
00E0
E0E0
E0E0
E0E0
71E0
7FE0
3FE0
1FE0
00E0
00F0
00F0
00F0
ENDCHAR
STARTCHAR 054F
ENCODING 1359
SWIDTH 624 0
DWIDTH 13 0
BBX 10 16 1 0
BITMAP
1F00
7F80
7FC0
71C0
7000
7000
7C00
3F00
1FC0
03C0
01C0
E1C0
E1C0
7FC0
7F80
1F00
ENDCHAR
STARTCHAR 0550
ENCODING 1360
SWIDTH 624 0
DWIDTH 13 0
BBX 10 16 1 0
BITMAP
1F00
7F80
7FC0
E1C0
E1C0
E1C0
E1C0
E000
E000
E000
E000
E000
E000
E000
E000
E000
ENDCHAR
STARTCHAR 0551
ENCODING 1361
SWIDTH 624 0
DWIDTH 13 0
BBX 11 16 1 0
BITMAP
1F00
3FC0
7FC0
71C0
71C0
71C0
FFC0
FF80
FFC0
00E0
00E0
E0E0
F0E0
7FC0
3FC0
1F00
ENDCHAR
STARTCHAR 0552
ENCODING 1362
SWIDTH 624 0
DWIDTH 13 0
BBX 10 16 1 0
BITMAP
E000
E000
E000
E000
FFC0
FFC0
E000
E000
E000
E000
E000
E000
E000
E000
E000
E000
ENDCHAR
STARTCHAR 0553
ENCODING 1363
SWIDTH 624 0
DWIDTH 13 0
BBX 12 16 0 0
BITMAP
0700
0700
1FC0
7FE0
77F0
6770
E730
E730
E730
E730
E730
6770
77F0
3FE0
1FC0
0700
ENDCHAR
STARTCHAR 0554
ENCODING 1364
SWIDTH 624 0
DWIDTH 13 0
BBX 11 16 1 0
BITMAP
1F80
3FC0
7FC0
70E0
70E0
70E0
70E0
7FE0
7FC0
7F80
7000
7000
FFE0
FFE0
FFE0
7000
ENDCHAR
STARTCHAR 0555
ENCODING 1365
SWIDTH 624 0
DWIDTH 13 0
BBX 11 16 1 0
BITMAP
1F00
3F80
7FC0
71C0
E1C0
E1C0
E1E0
E1E0
E1E0
E1E0
E1C0
E1C0
71C0
7FC0
3F80
1F00
ENDCHAR
STARTCHAR 0556
ENCODING 1366
SWIDTH 624 0
DWIDTH 13 0
BBX 12 16 0 0
BITMAP
3F00
7F00
7700
7700
7FC0
3FE0
0770
0730
0730
0730
E730
E730
6770
7FF0
3FE0
1FC0
ENDCHAR
STARTCHAR 0559
ENCODING 1369
SWIDTH 624 0
DWIDTH 13 0
BBX 3 6 5 10
BITMAP
60
E0
80
80
E0
60
ENDCHAR
STARTCHAR 055A
ENCODING 1370
SWIDTH 624 0
DWIDTH 13 0
BBX 4 7 4 9
BITMAP
70
70
70
70
70
60
E0
ENDCHAR
STARTCHAR 055B
ENCODING 1371
SWIDTH 624 0
DWIDTH 13 0
BBX 7 4 3 13
BITMAP
3E
38
70
E0
ENDCHAR
STARTCHAR 055C
ENCODING 1372
SWIDTH 624 0
DWIDTH 13 0
BBX 10 6 1 13
BITMAP
01C0
03C0
3FC0
7F80
7C00
E000
ENDCHAR
STARTCHAR 055D
ENCODING 1373
SWIDTH 624 0
DWIDTH 13 0
BBX 7 4 3 13
BITMAP
F0
78
3C
1E
ENDCHAR
STARTCHAR 055E
ENCODING 1374
SWIDTH 624 0
DWIDTH 13 0
BBX 11 7 1 13
BITMAP
0F80
3FC0
7FE0
E0E0
C7E0
C7C0
0380
ENDCHAR
STARTCHAR 055F
ENCODING 1375
SWIDTH 624 0
DWIDTH 13 0
BBX 9 3 2 13
BITMAP
8000
8000
FF80
ENDCHAR
STARTCHAR 0561
ENCODING 1377
SWIDTH 624 0
DWIDTH 13 0
BBX 11 12 1 0
BITMAP
CCE0
CCE0
CCE0
CCE0
CCE0
CCE0
CCE0
CCE0
CCE0
CEE0
FFE0
7760
ENDCHAR
STARTCHAR 0562
ENCODING 1378
SWIDTH 624 0
DWIDTH 13 0
BBX 9 16 2 -4
BITMAP
CE00
DF00
E700
E380
C380
C380
C380
C000
C000
C000
FF80
FF80
C000
C000
C000
C000
ENDCHAR
STARTCHAR 0563
ENCODING 1379
SWIDTH 624 0
DWIDTH 13 0
BBX 11 16 1 -4
BITMAP
3DC0
7FC0
F3C0
E3C0
E1C0
E1C0
E1C0
E1C0
E3C0
FFE0
7FE0
3DE0
01C0
01C0
01C0
01C0
ENDCHAR
STARTCHAR 0564
ENCODING 1380
SWIDTH 624 0
DWIDTH 13 0
BBX 10 16 1 -4
BITMAP
EF00
FF80
F380
E380
E380
E380
E380
E380
E380
E3C0
E3C0
E3C0
0380
0380
0380
0380
ENDCHAR
STARTCHAR 0565
ENCODING 1381
SWIDTH 624 0
DWIDTH 13 0
BBX 10 16 1 0
BITMAP
E000
E000
E000
E000
FFC0
FFC0
E000
E000
E1C0
E1C0
E1C0
E1C0
F3C0
73C0
7FC0
3DC0
ENDCHAR
STARTCHAR 0566
ENCODING 1382
SWIDTH 624 0
DWIDTH 13 0
BBX 11 16 1 -4
BITMAP
3DC0
7FC0
F3C0
E3C0
E1C0
E1C0
E1C0
E1C0
E3C0
FFC0
7FC0
3DC0
01C0
01C0
01E0
01E0
ENDCHAR
STARTCHAR 0567
ENCODING 1383
SWIDTH 624 0
DWIDTH 13 0
BBX 9 16 2 0
BITMAP
E000
E000
E000
E000
FF80
FF80
E000
E000
E000
E000
E000
E000
E000
E000
FF00
FF00
ENDCHAR
STARTCHAR 0568
ENCODING 1384
SWIDTH 624 0
DWIDTH 13 0
BBX 9 16 2 -4
BITMAP
CE00
DF00
E700
E380
C380
C380
C380
C380
C380
C380
C380
C380
C000
C000
FF80
FF80
ENDCHAR
STARTCHAR 0569
ENCODING 1385
SWIDTH 624 0
DWIDTH 13 0
BBX 11 16 1 -4
BITMAP
EF00
FF80
E3C0
E1C0
E1C0
E7E0
EFE0
F9C0
F9C0
F9C0
FF80
EF00
E000
E000
E000
E000
ENDCHAR
STARTCHAR 056A
ENCODING 1386
SWIDTH 624 0
DWIDTH 13 0
BBX 11 16 1 0
BITMAP
01C0
01C0
01C0
01C0
3FE0
7FE0
F9C0
E1C0
E1C0
E1C0
E1C0
E1C0
E380
F780
7F00
3E00
ENDCHAR
STARTCHAR 056B
ENCODING 1387
SWIDTH 624 0
DWIDTH 13 0
BBX 9 20 2 -4
BITMAP
E000
E000
E000
E000
EE00
FF00
FF80
E380
E380
E380
E380
E380
E380
E380
E380
E380
E000
E000
E000
E000
ENDCHAR
STARTCHAR 056C
ENCODING 1388
SWIDTH 624 0
DWIDTH 13 0
BBX 6 16 3 -4
BITMAP
E0
E0
E0
E0
E0
E0
E0
E0
E0
E0
E0
E0
E0
E0
FC
FC
ENDCHAR
STARTCHAR 056D
ENCODING 1389
SWIDTH 624 0
DWIDTH 13 0
BBX 11 20 1 -4
BITMAP
C000
C000
C000
C000
D8E0
FCE0
FCE0
CCE0
CCE0
CCE0
CCE0
CCE0
CEE0
CFE0
CFE0
C760
C000
C000
C000
C000
ENDCHAR
STARTCHAR 056E
ENCODING 1390
SWIDTH 624 0
DWIDTH 13 0
BBX 11 17 1 0
BITMAP
1000
1800
3C00
7800
3C00
1FC0
7FC0
7BC0
E1C0
E1C0
E0E0
E0E0
E1C0
F1C0
7FC0
3F80
1F00
ENDCHAR
STARTCHAR 056F
ENCODING 1391
SWIDTH 624 0
DWIDTH 13 0
BBX 9 20 2 -4
BITMAP
E000
E000
E000
E000
E380
E380
E380
E380
E380
E380
E380
E380
E380
FF80
FF80
7B80
0380
0380
0380
0380
ENDCHAR
STARTCHAR 0570
ENCODING 1392
SWIDTH 624 0
DWIDTH 13 0
BBX 9 16 2 0
BITMAP
E000
E000
E000
E000
EE00
FF00
FF80
E380
E380
E380
E380
E380
E380
E380
E380
E380
ENDCHAR
STARTCHAR 0571
ENCODING 1393
SWIDTH 624 0
DWIDTH 13 0
BBX 9 16 2 0
BITMAP
7800
7000
7400
7C00
1C00
3E00
7700
6300
E380
E380
E380
E380
E380
E780
FF80
7B80
ENDCHAR
STARTCHAR 0572
ENCODING 1394
SWIDTH 624 0
DWIDTH 13 0
BBX 10 16 1 -4
BITMAP
EF00
FF80
F380
E380
E380
E380
E380
E380
E380
E380
E380
E380
0380
0380
03C0
03C0
ENDCHAR
STARTCHAR 0573
ENCODING 1395
SWIDTH 624 0
DWIDTH 13 0
BBX 10 16 1 0
BITMAP
03C0
07C0
0E40
1C00
FE00
FF00
FF80
73C0
71C0
71C0
71C0
71C0
71C0
7FC0
7FC0
3DC0
ENDCHAR
STARTCHAR 0574
ENCODING 1396
SWIDTH 624 0
DWIDTH 13 0
BBX 10 16 2 0
BITMAP
03C0
03C0
0380
0380
E380
E380
E380
E380
E380
E380
E380
E380
E380
E780
FF80
7B80
ENDCHAR
STARTCHAR 0575
ENCODING 1397
SWIDTH 624 0
DWIDTH 13 0
BBX 7 16 3 -4
BITMAP
0E
0E
0E
0E
0E
0E
0E
0E
0E
0E
0E
0E
0E
1E
FC
F8
ENDCHAR
STARTCHAR 0576
ENCODING 1398
SWIDTH 624 0
DWIDTH 13 0
BBX 10 16 1 0
BITMAP
F000
F000
F000
7000
70C0
70C0
70C0
70C0
70C0
70C0
70C0
70C0
71C0
39C0
3EC0
1EC0
ENDCHAR
STARTCHAR 0577
ENCODING 1399
SWIDTH 624 0
DWIDTH 13 0
BBX 9 16 2 -4
BITMAP
3E00
FF00
FF80
4380
0380
0380
0700
0700
0E00
1C00
3800
7000
E000
FF00
FF00
FF00
ENDCHAR
STARTCHAR 0578
ENCODING 1400
SWIDTH 624 0
DWIDTH 13 0
BBX 9 12 2 0
BITMAP
CE00
FF00
F780
E380
E380
E380
E380
E380
E380
E380
E380
E380
ENDCHAR
STARTCHAR 0579
ENCODING 1401
SWIDTH 624 0
DWIDTH 13 0
BBX 8 17 2 -4
BITMAP
10
3C
38
70
71
3F
1F
0E
1C
38
38
70
60
E0
E0
FF
7F
ENDCHAR
STARTCHAR 057A
ENCODING 1402
SWIDTH 624 0
DWIDTH 13 0
BBX 11 16 1 -4
BITMAP
CCE0
CCE0
CCE0
CCE0
CCE0
CCE0
CCE0
CCE0
CEE0
EEE0
FFE0
77E0
00E0
00E0
00E0
00E0
ENDCHAR
STARTCHAR 057B
ENCODING 1403
SWIDTH 624 0
DWIDTH 13 0
BBX 10 16 1 -4
BITMAP
1F00
3F80
7FC0
E1C0
E1C0
71C0
71C0
3B80
1F00
1E00
1C00
3800
7000
7FC0
7FC0
3FC0
ENDCHAR
STARTCHAR 057C
ENCODING 1404
SWIDTH 624 0
DWIDTH 13 0
BBX 10 12 1 0
BITMAP
EF00
FF80
F380
E3C0
E1C0
E1C0
E180
E380
E380
E300
E7C0
E7C0
ENDCHAR
STARTCHAR 057D
ENCODING 1405
SWIDTH 624 0
DWIDTH 13 0
BBX 9 12 2 0
BITMAP
E380
E380
E380
E380
E380
E380
E380
E380
E380
E780
FF80
7B80
ENDCHAR
STARTCHAR 057E
ENCODING 1406
SWIDTH 624 0
DWIDTH 13 0
BBX 11 20 1 -4
BITMAP
0380
0380
0380
0380
E380
E380
E380
E380
E380
E380
E380
E380
E380
F780
7F80
7B80
0380
0380
03E0
03E0
ENDCHAR
STARTCHAR 057F
ENCODING 1407
SWIDTH 624 0
DWIDTH 13 0
BBX 11 12 1 0
BITMAP
CDC0
CFC0
CEE0
CEE0
CCE0
CCE0
CCE0
CCE0
CCE0
CCE0
FCE0
7CE0
ENDCHAR
STARTCHAR 0580
ENCODING 1408
SWIDTH 624 0
DWIDTH 13 0
BBX 9 16 2 -4
BITMAP
CE00
FF00
F780
E380
E380
E380
E380
E380
E380
E380
E380
E380
E000
E000
E000
E000
ENDCHAR
STARTCHAR 0581
ENCODING 1409
SWIDTH 624 0
DWIDTH 13 0
BBX 10 16 1 -4
BITMAP
1CC0
7FC0
73C0
F1C0
E1C0
E1C0
E1C0
E1C0
F1C0
7FC0
7FC0
1DC0
01C0
73C0
7F80
3F00
ENDCHAR
STARTCHAR 0582
ENCODING 1410
SWIDTH 624 0
DWIDTH 13 0
BBX 9 12 2 0
BITMAP
E000
E000
E000
E000
E000
E000
E000
E000
E000
E000
FF80
FF80
ENDCHAR
STARTCHAR 0583
ENCODING 1411
SWIDTH 624 0
DWIDTH 13 0
BBX 11 20 1 -4
BITMAP
0C00
0C00
0C00
0C00
CDC0
CFC0
CEE0
CEE0
CCE0
CCE0
CCE0
CCE0
CCE0
CCE0
FCE0
7CE0
0C00
0C00
0C00
0C00
ENDCHAR
STARTCHAR 0584
ENCODING 1412
SWIDTH 624 0
DWIDTH 13 0
BBX 11 16 1 -4
BITMAP
7780
7FC0
79C0
71E0
70E0
70E0
70E0
70E0
71E0
7FC0
7FC0
7780
7000
FFC0
FFC0
7000
ENDCHAR
STARTCHAR 0585
ENCODING 1413
SWIDTH 624 0
DWIDTH 13 0
BBX 11 12 1 0
BITMAP
1F00
3F80
7BC0
F1C0
E1C0
E0E0
E0E0
E1C0
E1C0
7BC0
3F80
1F00
ENDCHAR
STARTCHAR 0586
ENCODING 1414
SWIDTH 624 0
DWIDTH 13 0
BBX 12 20 0 -4
BITMAP
1F00
3F00
7700
7700
7FC0
3FE0
1FF0
0770
0770
0730
0730
0770
6770
FFE0
7FE0
1FC0
0700
0700
0700
0700
ENDCHAR
STARTCHAR 0587
ENCODING 1415
SWIDTH 624 0
DWIDTH 13 0
BBX 12 16 0 0
BITMAP
E000
E000
E000
E000
E1C0
E1C0
E1C0
E1C0
E1C0
E1C0
E1C0
E1C0
F3C0
73C0
7FF0
3DF0
ENDCHAR
STARTCHAR 0589
ENCODING 1417
SWIDTH 624 0
DWIDTH 13 0
BBX 3 11 5 0
BITMAP
E0
E0
E0
E0
00
00
00
E0
E0
E0
E0
ENDCHAR
STARTCHAR 058A
ENCODING 1418
SWIDTH 624 0
DWIDTH 13 0
BBX 6 3 3 3
BITMAP
FC
FC
FC
ENDCHAR
STARTCHAR 0E3F
ENCODING 3647
SWIDTH 624 0
DWIDTH 13 0
BBX 11 19 1 -3
BITMAP
0C00
0C00
FF00
FFC0
EFC0
EDC0
EDC0
EFC0
FF00
FF80
EDC0
ECE0
ECE0
EFC0
FFC0
FF80
0C00
0C00
0C00
ENDCHAR
STARTCHAR 10D0
ENCODING 4304
SWIDTH 624 0
DWIDTH 13 0
BBX 11 12 1 0
BITMAP
1800
1C00
1E00
0F80
03C0
61C0
E0E0
E0E0
E1C0
F1C0
7F80
3F00
ENDCHAR
STARTCHAR 10D1
ENCODING 4305
SWIDTH 624 0
DWIDTH 13 0
BBX 11 16 1 0
BITMAP
7000
7C00
3C00
0E00
0E00
1F00
7F80
71C0
E1C0
E1C0
E1E0
E1C0
E1C0
73C0
7F80
1F00
ENDCHAR
STARTCHAR 10D2
ENCODING 4306
SWIDTH 624 0
DWIDTH 13 0
BBX 11 15 1 -4
BITMAP
3E00
7F80
6380
6380
4380
1F00
7F80
F3C0
E1C0
E0E0
E0E0
E0E0
F1C0
7FC0
3F00
ENDCHAR
STARTCHAR 10D3
ENCODING 4307
SWIDTH 624 0
DWIDTH 13 0
BBX 12 15 0 -4
BITMAP
3FC0
7FF0
6670
E670
E630
E630
E630
E670
6770
73F0
71C0
3C00
3F00
77C0
01C0
ENDCHAR
STARTCHAR 10D4
ENCODING 4308
SWIDTH 624 0
DWIDTH 13 0
BBX 11 15 1 -4
BITMAP
1F00
3F80
71C0
71C0
70E0
70E0
00E0
00E0
60E0
E0E0
E0E0
E1E0
F1C0
7FC0
3F00
ENDCHAR
STARTCHAR 10D5
ENCODING 4309
SWIDTH 624 0
DWIDTH 13 0
BBX 11 15 1 -4
BITMAP
3F00
7FC0
71C0
E1C0
70C0
41C0
0780
0780
41C0
E0E0
E0E0
E0E0
F1C0
7FC0
3F00
ENDCHAR
STARTCHAR 10D6
ENCODING 4310
SWIDTH 624 0
DWIDTH 13 0
BBX 11 16 1 0
BITMAP
3E00
FF00
E700
E700
E700
7F00
7F80
71C0
E1C0
E1E0
E0E0
E0C0
E1C0
73C0
7F80
1F00
ENDCHAR
STARTCHAR 10D7
ENCODING 4311
SWIDTH 624 0
DWIDTH 13 0
BBX 12 11 0 0
BITMAP
3DE0
7FF0
7770
E770
E770
E770
E770
E670
7670
7E60
3CC0
ENDCHAR
STARTCHAR 10D8
ENCODING 4312
SWIDTH 624 0
DWIDTH 13 0
BBX 11 11 1 0
BITMAP
1F00
7F80
73C0
E1C0
E0E0
E0E0
E0E0
E1C0
E1C0
71C0
3B80
ENDCHAR
STARTCHAR 10D9
ENCODING 4313
SWIDTH 624 0
DWIDTH 13 0
BBX 11 15 1 -4
BITMAP
1E00
1F80
03C0
01C0
00C0
01C0
0780
0780
41C0
E1C0
E0E0
E1E0
F1C0
7FC0
3F00
ENDCHAR
STARTCHAR 10DA
ENCODING 4314
SWIDTH 624 0
DWIDTH 13 0
BBX 11 15 1 -4
BITMAP
3F00
7F80
F3C0
E1C0
E0E0
E0C0
E1C0
E1C0
7180
7040
3800
7E00
FF00
4780
0380
ENDCHAR
STARTCHAR 10DB
ENCODING 4315
SWIDTH 624 0
DWIDTH 13 0
BBX 11 16 1 0
BITMAP
3F00
7FC0
F1C0
E1E0
00E0
3EE0
7FE0
F1E0
E1E0
E0E0
E0E0
E1E0
E1C0
71C0
7F80
1F00
ENDCHAR
STARTCHAR 10DC
ENCODING 4316
SWIDTH 624 0
DWIDTH 13 0
BBX 11 16 1 0
BITMAP
3F80
7F80
E000
E000
E000
EF00
FF80
F3C0
E1C0
E1C0
E0E0
E0E0
E1C0
73C0
7F80
3F00
ENDCHAR
STARTCHAR 10DD
ENCODING 4317
SWIDTH 624 0
DWIDTH 13 0
BBX 12 11 0 0
BITMAP
3DC0
7FE0
7670
E670
E670
E670
E670
E070
6070
7060
38E0
ENDCHAR
STARTCHAR 10DE
ENCODING 4318
SWIDTH 624 0
DWIDTH 13 0
BBX 11 16 1 0
BITMAP
7000
3F00
1F80
01C0
01C0
01C0
0F80
0F80
01C0
61C0
E0E0
E0E0
E1C0
F1C0
7F80
3F00
ENDCHAR
STARTCHAR 10DF
ENCODING 4319
SWIDTH 624 0
DWIDTH 13 0
BBX 11 16 1 -4
BITMAP
0060
3FE0
FFE0
F8E0
3CE0
1CE0
0CE0
1CE0
FCE0
F0E0
00E0
00E0
E0E0
F1C0
7FC0
3F00
ENDCHAR
STARTCHAR 10E0
ENCODING 4320
SWIDTH 624 0
DWIDTH 13 0
BBX 12 16 0 0
BITMAP
0180
0780
1F00
1C00
3800
7DE0
7FF0
7770
E770
E770
E770
E770
E070
6070
7070
38E0
ENDCHAR
STARTCHAR 10E1
ENCODING 4321
SWIDTH 624 0
DWIDTH 13 0
BBX 11 16 1 0
BITMAP
E000
E000
E000
E100
E300
E600
E700
E780
E1C0
E1C0
E0E0
E0E0
E1C0
73C0
7F80
1F00
ENDCHAR
STARTCHAR 10E2
ENCODING 4322
SWIDTH 624 0
DWIDTH 13 0
BBX 12 18 0 -4
BITMAP
0600
0600
0600
0F00
3FC0
3EE0
7670
6670
E670
E670
E070
E070
E070
7070
7070
78E0
3FC0
0F80
ENDCHAR
STARTCHAR 10E3
ENCODING 4323
SWIDTH 624 0
DWIDTH 13 0
BBX 12 15 0 -4
BITMAP
59C0
FFE0
E660
0670
0670
0670
0070
1070
3870
3070
7070
30E0
38E0
3FE0
0F80
ENDCHAR
STARTCHAR 10E4
ENCODING 4324
SWIDTH 624 0
DWIDTH 13 0
BBX 12 15 0 -4
BITMAP
3DE0
7FF0
6770
E370
E370
E370
E370
6760
7E60
3E70
0070
3870
3870
1FF0
0FC0
ENDCHAR
STARTCHAR 10E5
ENCODING 4325
SWIDTH 624 0
DWIDTH 13 0
BBX 11 20 1 -4
BITMAP
00E0
00E0
00E0
00E0
00E0
1EE0
7FE0
73E0
71E0
70E0
60E0
00E0
00E0
60E0
E0E0
E0E0
E0C0
F1C0
7F80
3F00
ENDCHAR
STARTCHAR 10E6
ENCODING 4326
SWIDTH 624 0
DWIDTH 13 0
BBX 12 15 0 -4
BITMAP
3DC0
7FE0
6670
E670
E670
E670
E670
E070
7070
78E0
3C00
1F00
3F80
11C0
01C0
ENDCHAR
STARTCHAR 10E7
ENCODING 4327
SWIDTH 624 0
DWIDTH 13 0
BBX 11 15 1 -4
BITMAP
3CE0
70E0
F0E0
E0E0
E0E0
E0E0
F1E0
7FE0
3EE0
00E0
E0E0
E0E0
F1C0
7FC0
3F00
ENDCHAR
STARTCHAR 10E8
ENCODING 4328
SWIDTH 624 0
DWIDTH 13 0
BBX 12 16 0 0
BITMAP
7BC0
7BE0
E4F0
E470
E070
0070
1F70
3FF0
78F0
70F0
7070
7070
70E0
38E0
3FE0
0F80
ENDCHAR
STARTCHAR 10E9
ENCODING 4329
SWIDTH 624 0
DWIDTH 13 0
BBX 11 16 1 0
BITMAP
3E00
7F00
E380
E380
E380
EF00
FF80
F3C0
E1C0
E0C0
E0E0
E1C0
E1C0
E1C0
E380
E700
ENDCHAR
STARTCHAR 10EA
ENCODING 4330
SWIDTH 624 0
DWIDTH 13 0
BBX 11 16 1 -4
BITMAP
4000
7700
7700
E3C0
E1E0
E0E0
E0C0
E7C0
E7C0
E0E0
E0E0
E0E0
E0E0
71E0
7FC0
1F00
ENDCHAR
STARTCHAR 10EB
ENCODING 4331
SWIDTH 624 0
DWIDTH 13 0
BBX 11 16 1 0
BITMAP
00E0
00E0
00E0
00E0
00E0
1EE0
7FE0
73E0
E1E0
E1E0
E0E0
E0E0
E1C0
73C0
7F80
1F00
ENDCHAR
STARTCHAR 10EC
ENCODING 4332
SWIDTH 624 0
DWIDTH 13 0
BBX 12 16 1 0
BITMAP
79C0
FFE0
E6E0
E670
E070
E000
FF00
FFC0
F1C0
E1C0
E0C0
E1C0
E1C0
73C0
7F80
3F00
ENDCHAR
STARTCHAR 10ED
ENCODING 4333
SWIDTH 624 0
DWIDTH 13 0
BBX 11 20 1 -4
BITMAP
0E00
0E00
0E00
0E00
0E00
3E00
7F00
E7C0
E3C0
E700
7E00
3E00
0780
43C0
E1C0
E0E0
E1C0
F1C0
7FC0
3F00
ENDCHAR
STARTCHAR 10EE
ENCODING 4334
SWIDTH 624 0
DWIDTH 13 0
BBX 11 16 1 0
BITMAP
E000
E000
E000
E000
E000
EF00
FF80
F3C0
E1C0
E1C0
E0E0
E0C0
E1C0
73C0
7F80
1F00
ENDCHAR
STARTCHAR 10EF
ENCODING 4335
SWIDTH 624 0
DWIDTH 13 0
BBX 11 17 1 -4
BITMAP
0E00
0C00
CC00
FC00
FFC0
0FC0
0C40
0E00
0F00
4780
E1C0
E1C0
E0E0
E1C0
F1C0
7FC0
3F00
ENDCHAR
STARTCHAR 10F0
ENCODING 4336
SWIDTH 624 0
DWIDTH 13 0
BBX 11 16 1 0
BITMAP
3800
1F00
1FC0
03C0
01C0
0FC0
0FC0
01C0
01C0
0FC0
EFC0
E1C0
E0E0
F1C0
7FC0
3F00
ENDCHAR
STARTCHAR 10F1
ENCODING 4337
SWIDTH 624 0
DWIDTH 13 0
BBX 11 20 1 -4
BITMAP
0E00
0780
07C0
01E0
E0C0
E7C0
67C0
70E0
70C0
67C0
67C0
E0C0
E0E0
E7C0
E7C0
E0C0
E0E0
71C0
7FC0
1F80
ENDCHAR
STARTCHAR 10F2
ENCODING 4338
SWIDTH 624 0
DWIDTH 13 0
BBX 11 14 1 -3
BITMAP
1F00
7F80
73C0
E1C0
E0E0
E0E0
E1C0
E1C0
73C0
3F80
3F80
FFC0
E1C0
8040
ENDCHAR
STARTCHAR 10F3
ENCODING 4339
SWIDTH 624 0
DWIDTH 13 0
BBX 11 15 1 -4
BITMAP
FFE0
FFC0
E1C0
E1C0
01C0
0380
1F00
1F80
01C0
E1C0
E0E0
E1C0
F3C0
7F80
1F00
ENDCHAR
STARTCHAR 10F4
ENCODING 4340
SWIDTH 624 0
DWIDTH 13 0
BBX 11 20 1 -4
BITMAP
3C00
7C00
F000
E000
E060
E1E0
7FE0
3FE0
01C0
01C0
03C0
1F80
1F80
01C0
01C0
E0E0
E1C0
F1C0
7FC0
3F00
ENDCHAR
STARTCHAR 10F5
ENCODING 4341
SWIDTH 624 0
DWIDTH 13 0
BBX 11 16 1 0
BITMAP
3F00
7F80
F1C0
E1C0
E1C0
7FE0
3FE0
01C0
01C0
3FE0
7FE0
E1C0
E1C0
F1C0
7F80
3F00
ENDCHAR
STARTCHAR 10F6
ENCODING 4342
SWIDTH 624 0
DWIDTH 13 0
BBX 12 15 0 -4
BITMAP
3DE0
7FF0
E670
E670
E670
E670
E670
E670
F770
7FF0
3FE0
0700
0F00
1E00
1C00
ENDCHAR
STARTCHAR 10F7
ENCODING 4343
SWIDTH 624 0
DWIDTH 13 0
BBX 11 15 1 -4
BITMAP
1F00
3F80
7380
7380
0780
1F00
7E00
7840
F1C0
E0E0
E0E0
E0E0
F1C0
7FC0
3F00
ENDCHAR
STARTCHAR 10F8
ENCODING 4344
SWIDTH 624 0
DWIDTH 13 0
BBX 11 16 1 -4
BITMAP
0100
E780
E3C0
E1C0
E1C0
E0E0
E0E0
E1C0
F1C0
FF80
FF00
E020
E1C0
F1C0
7FC0
3F00
ENDCHAR
STARTCHAR 10F9
ENCODING 4345
SWIDTH 624 0
DWIDTH 13 0
BBX 11 15 1 -4
BITMAP
3F00
7FC0
F1C0
E0E0
E0E0
E0E0
F1C0
7F80
1F00
3C00
39C0
71C0
3B80
3F80
1F00
ENDCHAR
STARTCHAR 10FA
ENCODING 4346
SWIDTH 624 0
DWIDTH 13 0
BBX 10 13 1 -2
BITMAP
1F00
7F80
71C0
E1C0
E1C0
E1C0
71C0
7380
3880
3E00
7F00
7300
0200
ENDCHAR
STARTCHAR 10FB
ENCODING 4347
SWIDTH 624 0
DWIDTH 13 0
BBX 7 10 3 1
BITMAP
C0
C0
00
00
0E
0E
00
00
C0
C0
ENDCHAR
STARTCHAR 10FC
ENCODING 4348
SWIDTH 624 0
DWIDTH 13 0
BBX 5 8 4 8
BITMAP
F8
80
F0
D0
98
98
D0
70
ENDCHAR
STARTCHAR 1E80
ENCODING 7808
SWIDTH 624 0
DWIDTH 13 0
BBX 13 19 0 0
BITMAP
1C00
0700
0000
E038
E030
E030
E030
6730
6770
6770
6F70
6F70
7DF0
7DE0
7DE0
79E0
39E0
38E0
38E0
ENDCHAR
STARTCHAR 1E81
ENCODING 7809
SWIDTH 624 0
DWIDTH 13 0
BBX 13 17 0 0
BITMAP
3800
1C00
0C00
0600
0000
E038
E030
E030
6730
6770
6770
6F60
7D60
7DE0
39E0
39E0
38E0
ENDCHAR
STARTCHAR 1E82
ENCODING 7810
SWIDTH 624 0
DWIDTH 13 0
BBX 13 19 0 0
BITMAP
03C0
0700
0000
E038
E030
E030
E030
6730
6770
6770
6F70
6F70
7DF0
7DE0
7DE0
79E0
39E0
38E0
38E0
ENDCHAR
STARTCHAR 1E83
ENCODING 7811
SWIDTH 624 0
DWIDTH 13 0
BBX 13 17 0 0
BITMAP
00E0
0180
0300
0600
0000
E038
E030
E030
6730
6770
6770
6F60
7D60
7DE0
39E0
39E0
38E0
ENDCHAR
STARTCHAR 1E84
ENCODING 7812
SWIDTH 624 0
DWIDTH 13 0
BBX 13 19 0 0
BITMAP
1980
1980
0000
E038
E030
E030
E030
6730
6770
6770
6F70
6F70
7DF0
7DE0
7DE0
79E0
39E0
38E0
38E0
ENDCHAR
STARTCHAR 1E85
ENCODING 7813
SWIDTH 624 0
DWIDTH 13 0
BBX 13 16 0 0
BITMAP
1980
1980
0000
0000
E038
E030
E030
6730
6770
6770
6F60
7D60
7DE0
39E0
39E0
38E0
ENDCHAR
STARTCHAR 1EBC
ENCODING 7868
SWIDTH 624 0
DWIDTH 13 0
BBX 9 19 2 0
BITMAP
3900
7F00
4600
FF80
FF80
E000
E000
E000
E000
E000
FF80
FF80
E000
E000
E000
E000
E000
FF80
FF80
ENDCHAR
STARTCHAR 1EBD
ENCODING 7869
SWIDTH 624 0
DWIDTH 13 0
BBX 11 16 1 0
BITMAP
3980
3F80
2700
0000
1F00
7F80
7BC0
E1C0
E0C0
FFE0
FFE0
E000
E040
7FC0
7FC0
1F80
ENDCHAR
STARTCHAR 1EF2
ENCODING 7922
SWIDTH 624 0
DWIDTH 13 0
BBX 12 19 0 0
BITMAP
1C00
0700
0000
F070
7070
70E0
38E0
39C0
1DC0
1F80
0F80
0F00
0700
0700
0700
0700
0700
0700
0700
ENDCHAR
STARTCHAR 1EF3
ENCODING 7923
SWIDTH 624 0
DWIDTH 13 0
BBX 11 22 1 -4
BITMAP
7000
3000
1800
1C00
0C00
0000
E0E0
E1E0
71C0
71C0
7380
3B80
3B80
1F00
1F00
1F00
0E00
0E00
0C00
1C00
FC00
F800
ENDCHAR
STARTCHAR 1EF8
ENCODING 7928
SWIDTH 624 0
DWIDTH 13 0
BBX 12 19 0 0
BITMAP
0E40
1FC0
1180
F070
7070
70E0
38E0
39C0
1DC0
1F80
0F80
0F00
0700
0700
0700
0700
0700
0700
0700
ENDCHAR
STARTCHAR 1EF9
ENCODING 7929
SWIDTH 624 0
DWIDTH 13 0
BBX 11 20 1 -4
BITMAP
1C80
3F80
2300
0000
E0E0
E1E0
71C0
71C0
7380
3B80
3B80
1F00
1F00
1F00
0E00
0E00
0C00
1C00
FC00
F800
ENDCHAR
STARTCHAR 2000
ENCODING 8192
SWIDTH 624 0
DWIDTH 13 0
BBX 0 0 0 0
BITMAP
ENDCHAR
STARTCHAR 2001
ENCODING 8193
SWIDTH 624 0
DWIDTH 13 0
BBX 0 0 0 0
BITMAP
ENDCHAR
STARTCHAR 2002
ENCODING 8194
SWIDTH 624 0
DWIDTH 13 0
BBX 0 0 0 0
BITMAP
ENDCHAR
STARTCHAR 2003
ENCODING 8195
SWIDTH 624 0
DWIDTH 13 0
BBX 0 0 0 0
BITMAP
ENDCHAR
STARTCHAR 2004
ENCODING 8196
SWIDTH 624 0
DWIDTH 13 0
BBX 0 0 0 0
BITMAP
ENDCHAR
STARTCHAR 2005
ENCODING 8197
SWIDTH 624 0
DWIDTH 13 0
BBX 0 0 0 0
BITMAP
ENDCHAR
STARTCHAR 2006
ENCODING 8198
SWIDTH 624 0
DWIDTH 13 0
BBX 0 0 0 0
BITMAP
ENDCHAR
STARTCHAR 2007
ENCODING 8199
SWIDTH 624 0
DWIDTH 13 0
BBX 0 0 0 0
BITMAP
ENDCHAR
STARTCHAR 2008
ENCODING 8200
SWIDTH 624 0
DWIDTH 13 0
BBX 0 0 0 0
BITMAP
ENDCHAR
STARTCHAR 2009
ENCODING 8201
SWIDTH 624 0
DWIDTH 13 0
BBX 0 0 0 0
BITMAP
ENDCHAR
STARTCHAR 200A
ENCODING 8202
SWIDTH 624 0
DWIDTH 13 0
BBX 0 0 0 0
BITMAP
ENDCHAR
STARTCHAR 2010
ENCODING 8208
SWIDTH 624 0
DWIDTH 13 0
BBX 6 2 3 5
BITMAP
FC
FC
ENDCHAR
STARTCHAR 2011
ENCODING 8209
SWIDTH 624 0
DWIDTH 13 0
BBX 6 2 3 5
BITMAP
FC
FC
ENDCHAR
STARTCHAR 2012
ENCODING 8210
SWIDTH 624 0
DWIDTH 13 0
BBX 10 2 1 5
BITMAP
FFC0
FFC0
ENDCHAR
STARTCHAR 2013
ENCODING 8211
SWIDTH 624 0
DWIDTH 13 0
BBX 7 2 3 5
BITMAP
FE
FE
ENDCHAR
STARTCHAR 2014
ENCODING 8212
SWIDTH 624 0
DWIDTH 13 0
BBX 13 2 0 5
BITMAP
FFF8
FFF8
ENDCHAR
STARTCHAR 2015
ENCODING 8213
SWIDTH 624 0
DWIDTH 13 0
BBX 13 2 0 5
BITMAP
FFF8
FFF8
ENDCHAR
STARTCHAR 2016
ENCODING 8214
SWIDTH 624 0
DWIDTH 13 0
BBX 7 21 3 -5
BITMAP
C6
C6
C6
C6
C6
C6
C6
C6
C6
C6
C6
C6
C6
C6
C6
C6
C6
C6
C6
C6
C6
ENDCHAR
STARTCHAR 2017
ENCODING 8215
SWIDTH 624 0
DWIDTH 13 0
BBX 13 5 0 -5
BITMAP
FFF8
FFF8
0000
FFF8
FFF8
ENDCHAR
STARTCHAR 2018
ENCODING 8216
SWIDTH 624 0
DWIDTH 13 0
BBX 5 7 4 9
BITMAP
38
30
70
70
F0
F0
F0
ENDCHAR
STARTCHAR 2019
ENCODING 8217
SWIDTH 624 0
DWIDTH 13 0
BBX 5 7 4 9
BITMAP
78
78
78
70
70
60
E0
ENDCHAR
STARTCHAR 201A
ENCODING 8218
SWIDTH 624 0
DWIDTH 13 0
BBX 4 7 4 -3
BITMAP
70
70
70
70
E0
E0
C0
ENDCHAR
STARTCHAR 201B
ENCODING 8219
SWIDTH 624 0
DWIDTH 13 0
BBX 5 7 4 9
BITMAP
F0
F0
F0
70
70
30
38
ENDCHAR
STARTCHAR 201C
ENCODING 8220
SWIDTH 624 0
DWIDTH 13 0
BBX 9 7 2 9
BITMAP
7180
6380
E300
E700
E700
E700
E700
ENDCHAR
STARTCHAR 201D
ENCODING 8221
SWIDTH 624 0
DWIDTH 13 0
BBX 9 7 2 9
BITMAP
7380
7380
7380
E380
E700
C700
C600
ENDCHAR
STARTCHAR 201E
ENCODING 8222
SWIDTH 624 0
DWIDTH 13 0
BBX 9 7 2 -3
BITMAP
7380
7380
7380
E380
E700
C700
C600
ENDCHAR
STARTCHAR 201F
ENCODING 8223
SWIDTH 624 0
DWIDTH 13 0
BBX 9 7 2 9
BITMAP
E700
E700
E700
E700
E300
6380
7180
ENDCHAR
STARTCHAR 2020
ENCODING 8224
SWIDTH 624 0
DWIDTH 13 0
BBX 9 18 2 -2
BITMAP
1C00
1C00
1C00
1C00
FF80
FF80
1C00
1C00
1C00
1C00
1C00
1C00
1C00
1C00
1C00
1C00
1C00
1C00
ENDCHAR
STARTCHAR 2021
ENCODING 8225
SWIDTH 624 0
DWIDTH 13 0
BBX 9 18 2 -2
BITMAP
1C00
1C00
1C00
1C00
FF80
FF80
1C00
1C00
1C00
1C00
1C00
1C00
FF80
FF80
1C00
1C00
1C00
1C00
ENDCHAR
STARTCHAR 2022
ENCODING 8226
SWIDTH 624 0
DWIDTH 13 0
BBX 7 8 3 4
BITMAP
78
FC
FE
FE
FE
FE
FC
78
ENDCHAR
STARTCHAR 2023
ENCODING 8227
SWIDTH 624 0
DWIDTH 13 0
BBX 8 9 3 3
BITMAP
80
E0
F8
FC
FF
FC
F0
C0
80
ENDCHAR
STARTCHAR 2024
ENCODING 8228
SWIDTH 624 0
DWIDTH 13 0
BBX 3 4 5 0
BITMAP
E0
E0
E0
E0
ENDCHAR
STARTCHAR 2025
ENCODING 8229
SWIDTH 624 0
DWIDTH 13 0
BBX 8 4 2 0
BITMAP
E7
E7
E7
E7
ENDCHAR
STARTCHAR 2026
ENCODING 8230
SWIDTH 624 0
DWIDTH 13 0
BBX 11 4 1 0
BITMAP
EEE0
EEE0
EEE0
EEE0
ENDCHAR
STARTCHAR 2027
ENCODING 8231
SWIDTH 624 0
DWIDTH 13 0
BBX 3 4 5 6
BITMAP
C0
E0
E0
C0
ENDCHAR
STARTCHAR 202F
ENCODING 8239
SWIDTH 624 0
DWIDTH 13 0
BBX 0 0 0 0
BITMAP
ENDCHAR
STARTCHAR 2030
ENCODING 8240
SWIDTH 624 0
DWIDTH 13 0
BBX 13 15 0 0
BITMAP
7800
F800
CC00
CC00
F860
7B80
0E00
3800
C000
38E0
7DF0
C518
CD18
7DF0
38E0
ENDCHAR
STARTCHAR 2031
ENCODING 8241
SWIDTH 624 0
DWIDTH 13 0
BBX 13 15 0 0
BITMAP
7800
F800
CC00
CC00
F860
7B80
0E00
3800
C000
7760
FFF0
C998
C998
FFF0
7760
ENDCHAR
STARTCHAR 2032
ENCODING 8242
SWIDTH 624 0
DWIDTH 13 0
BBX 5 4 4 12
BITMAP
38
60
60
C0
ENDCHAR
STARTCHAR 2033
ENCODING 8243
SWIDTH 624 0
DWIDTH 13 0
BBX 8 4 2 12
BITMAP
3F
76
66
CC
ENDCHAR
STARTCHAR 2034
ENCODING 8244
SWIDTH 624 0
DWIDTH 13 0
BBX 12 4 0 12
BITMAP
3BF0
7660
66E0
CCC0
ENDCHAR
STARTCHAR 2035
ENCODING 8245
SWIDTH 624 0
DWIDTH 13 0
BBX 5 4 4 12
BITMAP
E0
60
30
18
ENDCHAR
STARTCHAR 2036
ENCODING 8246
SWIDTH 624 0
DWIDTH 13 0
BBX 9 4 2 12
BITMAP
EE00
7600
3300
1B80
ENDCHAR
STARTCHAR 2037
ENCODING 8247
SWIDTH 624 0
DWIDTH 13 0
BBX 12 4 0 12
BITMAP
EEE0
7760
3330
19B0
ENDCHAR
STARTCHAR 2039
ENCODING 8249
SWIDTH 624 0
DWIDTH 13 0
BBX 4 10 3 1
BITMAP
10
10
30
E0
C0
C0
70
30
10
10
ENDCHAR
STARTCHAR 203A
ENCODING 8250
SWIDTH 624 0
DWIDTH 13 0
BBX 5 10 5 1
BITMAP
80
C0
E0
70
18
38
70
E0
80
80
ENDCHAR
STARTCHAR 203C
ENCODING 8252
SWIDTH 624 0
DWIDTH 13 0
BBX 10 16 1 0
BITMAP
71C0
71C0
71C0
71C0
71C0
71C0
71C0
61C0
61C0
61C0
6180
0000
0000
61C0
F1C0
61C0
ENDCHAR
STARTCHAR 203D
ENCODING 8253
SWIDTH 624 0
DWIDTH 13 0
BBX 9 16 2 0
BITMAP
3E00
FF00
FF80
BB80
3B80
3F00
3F00
3E00
3C00
3800
3800
3800
0000
1800
3800
1800
ENDCHAR
STARTCHAR 203E
ENCODING 8254
SWIDTH 624 0
DWIDTH 13 0
BBX 13 2 0 14
BITMAP
FFF8
FFF8
ENDCHAR
STARTCHAR 203F
ENCODING 8255
SWIDTH 624 0
DWIDTH 13 0
BBX 14 4 -1 -5
BITMAP
8004
FEFC
3FF8
0FE0
ENDCHAR
STARTCHAR 2044
ENCODING 8260
SWIDTH 624 0
DWIDTH 13 0
BBX 10 17 1 -1
BITMAP
00C0
01C0
0180
0180
0300
0300
0600
0600
0E00
0C00
1C00
1800
3800
3000
3000
6000
E000
ENDCHAR
STARTCHAR 2045
ENCODING 8261
SWIDTH 624 0
DWIDTH 13 0
BBX 5 20 4 -4
BITMAP
F8
F8
E0
E0
E0
E0
E0
E0
E0
F8
F8
E0
E0
E0
E0
E0
E0
E0
F8
F8
ENDCHAR
STARTCHAR 2046
ENCODING 8262
SWIDTH 624 0
DWIDTH 13 0
BBX 5 20 3 -4
BITMAP
F8
F8
18
18
18
18
18
18
18
F8
F8
18
18
18
18
18
18
18
F8
F8
ENDCHAR
STARTCHAR 2047
ENCODING 8263
SWIDTH 624 0
DWIDTH 13 0
BBX 12 16 0 0
BITMAP
78E0
F9F0
FDF0
DD70
9E70
1C70
3860
38E0
30E0
70C0
70C0
70C0
0000
70C0
71E0
30C0
ENDCHAR
STARTCHAR 2048
ENCODING 8264
SWIDTH 624 0
DWIDTH 13 0
BBX 11 16 0 0
BITMAP
78E0
F8E0
FCE0
9CE0
1CE0
1CE0
38E0
38E0
30E0
70E0
7060
7000
0000
70E0
70E0
30E0
ENDCHAR
STARTCHAR 2049
ENCODING 8265
SWIDTH 624 0
DWIDTH 13 0
BBX 11 16 1 0
BITMAP
63C0
63E0
63E0
62E0
60E0
60E0
60C0
61C0
61C0
6180
6180
0180
0000
6180
F3C0
6180
ENDCHAR
STARTCHAR 204B
ENCODING 8267
SWIDTH 624 0
DWIDTH 13 0
BBX 10 18 2 -2
BITMAP
FE00
FF80
CF80
CFC0
CFC0
CFC0
CF80
CF80
CF00
CC00
CC00
CC00
CC00
CC00
CC00
CC00
CC00
CC00
ENDCHAR
STARTCHAR 205F
ENCODING 8287
SWIDTH 624 0
DWIDTH 13 0
BBX 0 0 0 0
BITMAP
ENDCHAR
STARTCHAR 2070
ENCODING 8304
SWIDTH 624 0
DWIDTH 13 0
BBX 7 9 3 11
BITMAP
78
EC
CC
C6
F6
C6
CC
EC
78
ENDCHAR
STARTCHAR 2074
ENCODING 8308
SWIDTH 624 0
DWIDTH 13 0
BBX 7 9 3 11
BITMAP
18
38
38
78
D8
98
FE
18
18
ENDCHAR
STARTCHAR 2075
ENCODING 8309
SWIDTH 624 0
DWIDTH 13 0
BBX 7 9 3 11
BITMAP
FC
C0
C0
F8
8C
06
06
9C
F8
ENDCHAR
STARTCHAR 2076
ENCODING 8310
SWIDTH 624 0
DWIDTH 13 0
BBX 7 9 3 11
BITMAP
3C
64
C0
FC
EE
C6
C6
EC
7C
ENDCHAR
STARTCHAR 2077
ENCODING 8311
SWIDTH 624 0
DWIDTH 13 0
BBX 6 9 3 11
BITMAP
FC
0C
0C
18
18
38
30
30
60
ENDCHAR
STARTCHAR 2078
ENCODING 8312
SWIDTH 624 0
DWIDTH 13 0
BBX 7 9 3 11
BITMAP
78
EC
C4
CC
38
CC
C6
EC
7C
ENDCHAR
STARTCHAR 2079
ENCODING 8313
SWIDTH 624 0
DWIDTH 13 0
BBX 7 9 3 11
BITMAP
78
EC
CC
CE
CE
FE
0C
DC
F8
ENDCHAR
STARTCHAR 207A
ENCODING 8314
SWIDTH 624 0
DWIDTH 13 0
BBX 7 6 3 7
BITMAP
10
10
FE
10
10
10
ENDCHAR
STARTCHAR 207B
ENCODING 8315
SWIDTH 624 0
DWIDTH 13 0
BBX 7 1 3 10
BITMAP
FE
ENDCHAR
STARTCHAR 207C
ENCODING 8316
SWIDTH 624 0
DWIDTH 13 0
BBX 7 3 3 9
BITMAP
FE
00
FE
ENDCHAR
STARTCHAR 207D
ENCODING 8317
SWIDTH 624 0
DWIDTH 13 0
BBX 3 10 5 5
BITMAP
60
40
C0
80
80
80
80
C0
40
60
ENDCHAR
STARTCHAR 207E
ENCODING 8318
SWIDTH 624 0
DWIDTH 13 0
BBX 3 10 5 5
BITMAP
80
C0
60
60
60
60
60
60
C0
80
ENDCHAR
STARTCHAR 208A
ENCODING 8330
SWIDTH 624 0
DWIDTH 13 0
BBX 7 6 3 1
BITMAP
10
10
FE
10
10
10
ENDCHAR
STARTCHAR 208B
ENCODING 8331
SWIDTH 624 0
DWIDTH 13 0
BBX 7 1 3 3
BITMAP
FE
ENDCHAR
STARTCHAR 208C
ENCODING 8332
SWIDTH 624 0
DWIDTH 13 0
BBX 7 4 3 2
BITMAP
FE
00
00
FE
ENDCHAR
STARTCHAR 208D
ENCODING 8333
SWIDTH 624 0
DWIDTH 13 0
BBX 3 11 5 -2
BITMAP
60
40
C0
C0
80
80
80
C0
C0
40
60
ENDCHAR
STARTCHAR 208E
ENCODING 8334
SWIDTH 624 0
DWIDTH 13 0
BBX 3 11 5 -2
BITMAP
80
C0
40
60
60
60
60
60
40
C0
80
ENDCHAR
STARTCHAR 20A0
ENCODING 8352
SWIDTH 624 0
DWIDTH 13 0
BBX 12 16 0 0
BITMAP
3C00
7E00
7600
E000
C1F0
C1F0
C180
C180
C180
63F0
7FF0
3F80
0180
0180
01F0
01F0
ENDCHAR
STARTCHAR 20A1
ENCODING 8353
SWIDTH 624 0
DWIDTH 13 0
BBX 11 17 1 -1
BITMAP
0FE0
3FC0
7FC0
7EC0
F680
F480
E580
ED80
ED00
E900
EB00
FB00
7A20
7FC0
3FC0
3F80
3400
ENDCHAR
STARTCHAR 20A2
ENCODING 8354
SWIDTH 624 0
DWIDTH 13 0
BBX 10 16 1 0
BITMAP
1F80
3FC0
7DC0
7040
E000
E6C0
E7C0
E7C0
E700
E600
E600
F600
76C0
7FC0
3FC0
1F00
ENDCHAR
STARTCHAR 20A3
ENCODING 8355
SWIDTH 624 0
DWIDTH 13 0
BBX 11 16 0 0
BITMAP
3FE0
3FE0
3800
3800
3800
3800
3800
3FE0
3FE0
3800
3800
3800
FE00
3800
3800
3800
ENDCHAR
STARTCHAR 20A4
ENCODING 8356
SWIDTH 624 0
DWIDTH 13 0
BBX 10 16 1 0
BITMAP
0FC0
1FC0
1EC0
3C00
3800
FF80
FF80
3800
3800
FF80
FF80
3800
3800
3800
FFC0
FFC0
ENDCHAR
STARTCHAR 20A5
ENCODING 8357
SWIDTH 624 0
DWIDTH 13 0
BBX 12 17 0 -2
BITMAP
0080
0080
0080
ECE0
FFF0
FFF0
E730
E730
E630
E630
E630
E630
E630
E630
EE30
0800
1800
ENDCHAR
STARTCHAR 20A6
ENCODING 8358
SWIDTH 624 0
DWIDTH 13 0
BBX 13 16 0 0
BITMAP
78F0
78F0
7CF0
7CF0
7CF0
FFF8
FFF8
76F0
77F0
FFF8
FFF8
73F0
73F0
71F0
71F0
71F0
ENDCHAR
STARTCHAR 20A7
ENCODING 8359
SWIDTH 624 0
DWIDTH 13 0
BBX 13 16 0 0
BITMAP
F200
FA00
DA00
CA00
CFF0
CFF0
CFF0
DA80
FAC0
F2F0
C270
C210
C218
C3F0
C3F0
C1F0
ENDCHAR
STARTCHAR 20A8
ENCODING 8360
SWIDTH 624 0
DWIDTH 13 0
BBX 12 16 0 0
BITMAP
F800
FC00
DC00
CE00
CEF0
CFF0
CDB0
FD00
F980
DDF0
CCF0
CE30
C610
C7B0
C7F0
C7E0
ENDCHAR
STARTCHAR 20A9
ENCODING 8361
SWIDTH 624 0
DWIDTH 13 0
BBX 13 16 0 0
BITMAP
C630
C630
E730
FFF8
FFF8
FFF8
FFF8
6D60
6D60
6DE0
39E0
39E0
39E0
39E0
38E0
38C0
ENDCHAR
STARTCHAR 20AA
ENCODING 8362
SWIDTH 624 0
DWIDTH 13 0
BBX 13 16 0 0
BITMAP
FE38
FF38
FF38
E338
E1B8
E1B8
EDB8
EDB8
EDB8
EDB8
EC38
EC38
EC38
EFF8
E7F8
E3F8
ENDCHAR
STARTCHAR 20AB
ENCODING 8363
SWIDTH 624 0
DWIDTH 13 0
BBX 12 20 2 -4
BITMAP
00E0
0FF0
0FF0
00E0
1CE0
3EE0
7BE0
71E0
F1E0
E0E0
E0E0
F1E0
71E0
7BE0
3EE0
1CE0
0000
0000
1F80
1F80
ENDCHAR
STARTCHAR 20AC
ENCODING 8364
SWIDTH 624 0
DWIDTH 13 0
BBX 11 16 0 0
BITMAP
07C0
0FE0
1FE0
1C20
3800
7FC0
FF80
3800
3800
7F00
FE00
3800
1C20
1FE0
0FE0
07E0
ENDCHAR
STARTCHAR 20AD
ENCODING 8365
SWIDTH 624 0
DWIDTH 13 0
BBX 11 16 1 0
BITMAP
E1E0
E3C0
E380
E700
EF00
EE00
FC00
FF80
FF80
FE00
EE00
EF00
E780
E380
E1C0
E1E0
ENDCHAR
STARTCHAR 20AE
ENCODING 8366
SWIDTH 624 0
DWIDTH 13 0
BBX 13 16 0 0
BITMAP
FFF8
FFF8
0700
0700
0700
0780
0700
0700
0F80
1700
0700
0F00
1700
0700
0700
0700
ENDCHAR
STARTCHAR 20AF
ENCODING 8367
SWIDTH 624 0
DWIDTH 13 0
BBX 12 20 0 -4
BITMAP
1C00
3E00
7600
3300
1300
1100
1100
1100
3170
3170
3350
7350
E250
B6D0
FEF0
6CA0
0080
0080
0080
0080
ENDCHAR
STARTCHAR 20B0
ENCODING 8368
SWIDTH 624 0
DWIDTH 13 0
BBX 12 16 0 0
BITMAP
03C0
03E0
07F0
0770
0770
0770
0360
7BE0
7DE0
EFF0
2770
0030
0070
00F0
01E0
01C0
ENDCHAR
STARTCHAR 20B1
ENCODING 8369
SWIDTH 624 0
DWIDTH 13 0
BBX 12 16 1 0
BITMAP
7F00
7F80
77C0
71C0
FFF0
70E0
FFF0
77C0
7FC0
7F00
7000
7000
7000
7000
7000
7000
ENDCHAR
STARTCHAR 20B2
ENCODING 8370
SWIDTH 624 0
DWIDTH 13 0
BBX 12 19 0 -1
BITMAP
0300
0300
0FC0
1FE0
3FE0
7B10
7300
7300
6300
E370
E370
6330
7330
7330
7B30
3FF0
1FF0
0FC0
0300
ENDCHAR
STARTCHAR 20B3
ENCODING 8371
SWIDTH 624 0
DWIDTH 13 0
BBX 12 16 0 0
BITMAP
0700
0F00
0F80
0F80
1F80
1F80
1DC0
7FF0
7FF0
39C0
7FF0
7FF0
70E0
7070
7070
E070
ENDCHAR
STARTCHAR 20B4
ENCODING 8372
SWIDTH 624 0
DWIDTH 13 0
BBX 13 16 0 0
BITMAP
1F80
3FC0
3FE0
20E0
00E0
FFF8
FFF8
1FC0
3F00
FFF8
FFF8
7000
7020
3DE0
3FE0
0FC0
ENDCHAR
STARTCHAR 20B5
ENCODING 8373
SWIDTH 624 0
DWIDTH 13 0
BBX 12 19 0 -3
BITMAP
0180
0180
07E0
1FF0
3FF0
7D90
7980
7980
F180
F180
7980
7980
7D90
3FF0
1FF0
07E0
0180
0180
0180
ENDCHAR
STARTCHAR 20B7
ENCODING 8375
SWIDTH 624 0
DWIDTH 13 0
BBX 13 18 0 -2
BITMAP
03F8
0FF0
1F70
1C10
1C00
1C00
1F00
1FC0
07E0
01E0
00F0
7E70
5AE0
7AE0
7FC0
FF80
D400
B400
ENDCHAR
STARTCHAR 20B8
ENCODING 8376
SWIDTH 624 0
DWIDTH 13 0
BBX 11 16 1 0
BITMAP
FFE0
FFE0
0000
0000
FFE0
FFE0
0E00
0E00
0E00
0E00
0E00
0E00
0E00
0E00
0E00
0E00
ENDCHAR
STARTCHAR 20B9
ENCODING 8377
SWIDTH 624 0
DWIDTH 13 0
BBX 11 16 1 0
BITMAP
7FE0
FFC0
1F00
0720
7FC0
FFC0
0700
1E00
FC00
FC00
1E00
0E00
0F00
0700
0780
0380
ENDCHAR
STARTCHAR 2116
ENCODING 8470
SWIDTH 624 0
DWIDTH 13 0
BBX 12 16 0 0
BITMAP
CC60
ECF0
ECF0
ED90
ED90
ED90
FD90
FDF0
FCF0
DC60
DC00
DDF0
DDF0
DC00
CC00
CC00
ENDCHAR
STARTCHAR 2122
ENCODING 8482
SWIDTH 624 0
DWIDTH 13 0
BBX 11 6 0 10
BITMAP
F760
6760
67A0
66A0
6620
6620
ENDCHAR
STARTCHAR 2126
ENCODING 8486
SWIDTH 624 0
DWIDTH 13 0
BBX 11 16 1 0
BITMAP
1E00
3F80
7F80
71C0
E1C0
E1C0
E1C0
E1E0
E1C0
E1C0
E1C0
71C0
7380
3B00
FBE0
FBE0
ENDCHAR
STARTCHAR 2150
ENCODING 8528
SWIDTH 624 0
DWIDTH 13 0
BBX 12 20 0 -3
BITMAP
7800
7800
1800
1800
1800
1800
1800
7E00
7E20
03F0
BE00
67F0
07F0
0060
0060
00C0
00C0
0180
0180
0300
ENDCHAR
STARTCHAR 2151
ENCODING 8529
SWIDTH 624 0
DWIDTH 13 0
BBX 12 20 0 -3
BITMAP
7800
7800
1800
1800
1800
1800
1800
7E00
00F0
0FC0
FC00
43C0
0660
0660
0670
0670
03F0
0020
0460
07C0
ENDCHAR
STARTCHAR 2153
ENCODING 8531
SWIDTH 624 0
DWIDTH 13 0
BBX 12 20 0 -3
BITMAP
7800
5800
1800
1800
1800
1800
1800
7E00
00F0
0F80
FC00
47C0
0460
0030
0060
01C0
0060
0030
0430
07E0
ENDCHAR
STARTCHAR 2154
ENCODING 8532
SWIDTH 624 0
DWIDTH 13 0
BBX 12 20 0 -3
BITMAP
FC00
CE00
0600
0C00
1C00
3000
6000
FE00
00F0
0F80
FC00
47C0
0460
0030
0060
01C0
0060
0030
0430
07E0
ENDCHAR
STARTCHAR 2155
ENCODING 8533
SWIDTH 624 0
DWIDTH 13 0
BBX 12 20 0 -3
BITMAP
7800
5800
1800
1800
1800
1800
1800
7E00
7E20
03F0
BE00
67E0
07E0
0600
07C0
0460
0030
0030
0460
07C0
ENDCHAR
STARTCHAR 2156
ENCODING 8534
SWIDTH 624 0
DWIDTH 13 0
BBX 12 20 0 -3
BITMAP
FC00
8E00
0600
0C00
1C00
3000
6000
FE00
FE20
03F0
BE00
67E0
07E0
0600
07C0
0460
0030
0030
0460
07C0
ENDCHAR
STARTCHAR 2157
ENCODING 8535
SWIDTH 624 0
DWIDTH 13 0
BBX 12 20 0 -3
BITMAP
7C00
8600
0600
3C00
3E00
0600
0600
FC00
00F0
0FC0
FC00
67E0
07E0
0600
07C0
0460
0030
0030
0460
07C0
ENDCHAR
STARTCHAR 2158
ENCODING 8536
SWIDTH 624 0
DWIDTH 13 0
BBX 12 21 0 -4
BITMAP
1C00
3C00
2C00
4C00
CC00
FE00
FE00
0C00
0C60
07F0
BE00
67E0
07E0
0600
07C0
07E0
0070
0030
0070
07E0
07C0
ENDCHAR
STARTCHAR 2159
ENCODING 8537
SWIDTH 624 0
DWIDTH 13 0
BBX 12 20 0 -3
BITMAP
7800
5800
1800
1800
1800
1800
1800
7E00
7E70
07C0
FC00
41E0
0320
0600
07E0
0770
0630
0630
0630
03E0
ENDCHAR
STARTCHAR 215A
ENCODING 8538
SWIDTH 624 0
DWIDTH 13 0
BBX 12 20 0 -3
BITMAP
7C00
7C00
4000
7C00
8E00
0600
0600
FC00
00F0
0F80
FC00
41E0
0320
0600
07E0
0770
0630
0630
0630
03E0
ENDCHAR
STARTCHAR 215B
ENCODING 8539
SWIDTH 624 0
DWIDTH 13 0
BBX 12 20 0 -3
BITMAP
7800
5800
1800
1800
1800
1800
1800
7E00
7E70
07C0
FC00
43C0
0660
0620
0660
01C0
0660
0630
0630
03E0
ENDCHAR
STARTCHAR 215C
ENCODING 8540
SWIDTH 624 0
DWIDTH 13 0
BBX 12 20 0 -3
BITMAP
7C00
8600
0600
3C00
3E00
0600
0600
FC00
00F0
0F80
FC00
43C0
0660
0620
0660
01C0
0660
0630
0630
03E0
ENDCHAR
STARTCHAR 215D
ENCODING 8541
SWIDTH 624 0
DWIDTH 13 0
BBX 12 20 0 -3
BITMAP
7C00
7C00
4000
7C00
8E00
0600
0600
FC00
00F0
0F80
FC00
43C0
0660
0620
0660
01C0
0660
0630
0630
03E0
ENDCHAR
STARTCHAR 215E
ENCODING 8542
SWIDTH 624 0
DWIDTH 13 0
BBX 12 20 0 -3
BITMAP
FE00
FE00
0C00
0C00
1800
1800
3000
3000
6060
07D0
FC00
43C0
0660
0620
0660
01C0
0660
0630
0630
03E0
ENDCHAR
STARTCHAR 215F
ENCODING 8543
SWIDTH 624 0
DWIDTH 13 0
BBX 12 12 0 6
BITMAP
1800
7800
9800
1800
1800
1800
1800
7E00
7E10
01F0
1F00
F000
ENDCHAR
STARTCHAR 2189
ENCODING 8585
SWIDTH 624 0
DWIDTH 13 0
BBX 12 20 0 -3
BITMAP
3C00
6E00
C600
C600
DE00
C600
6600
7C00
00F0
0F80
F800
47C0
0460
0030
0060
01C0
0060
0030
0430
07E0
ENDCHAR
STARTCHAR 2190
ENCODING 8592
SWIDTH 624 0
DWIDTH 13 0
BBX 11 8 1 2
BITMAP
2000
7000
E000
FFE0
FFE0
6000
3000
2000
ENDCHAR
STARTCHAR 2191
ENCODING 8593
SWIDTH 624 0
DWIDTH 13 0
BBX 7 12 3 0
BITMAP
30
78
FC
F6
B4
30
30
30
30
30
30
30
ENDCHAR
STARTCHAR 2192
ENCODING 8594
SWIDTH 624 0
DWIDTH 13 0
BBX 11 8 1 2
BITMAP
0100
0180
00C0
FFE0
FFE0
00C0
0180
0100
ENDCHAR
STARTCHAR 2193
ENCODING 8595
SWIDTH 624 0
DWIDTH 13 0
BBX 7 12 3 0
BITMAP
30
30
30
30
30
30
30
30
F6
FC
78
30
ENDCHAR
STARTCHAR 2194
ENCODING 8596
SWIDTH 624 0
DWIDTH 13 0
BBX 11 8 1 2
BITMAP
2100
7180
E0C0
FFE0
FFE0
60C0
3180
2100
ENDCHAR
STARTCHAR 2195
ENCODING 8597
SWIDTH 624 0
DWIDTH 13 0
BBX 7 12 3 0
BITMAP
30
78
FC
F6
B4
30
30
30
F6
FC
78
30
ENDCHAR
STARTCHAR 2196
ENCODING 8598
SWIDTH 624 0
DWIDTH 13 0
BBX 9 9 2 0
BITMAP
F800
F800
F000
F800
BC00
1E00
0F00
0780
0300
ENDCHAR
STARTCHAR 2197
ENCODING 8599
SWIDTH 624 0
DWIDTH 13 0
BBX 9 9 2 0
BITMAP
0F80
0F80
0780
0F80
1D80
3800
7000
E000
C000
ENDCHAR
STARTCHAR 2198
ENCODING 8600
SWIDTH 624 0
DWIDTH 13 0
BBX 9 10 2 0
BITMAP
4000
C000
E000
7000
3980
1D80
0F80
0780
0F80
0F00
ENDCHAR
STARTCHAR 2199
ENCODING 8601
SWIDTH 624 0
DWIDTH 13 0
BBX 9 10 2 0
BITMAP
0100
0300
0780
0F00
9E00
BC00
F800
F000
F800
F800
ENDCHAR
STARTCHAR 219A
ENCODING 8602
SWIDTH 624 0
DWIDTH 13 0
BBX 11 8 1 2
BITMAP
2080
71C0
E180
FFE0
FFE0
6700
3600
2200
ENDCHAR
STARTCHAR 219B
ENCODING 8603
SWIDTH 624 0
DWIDTH 13 0
BBX 11 8 1 2
BITMAP
0900
1D80
38C0
FFE0
FFE0
70C0
E180
2100
ENDCHAR
STARTCHAR 219C
ENCODING 8604
SWIDTH 624 0
DWIDTH 13 0
BBX 11 5 1 4
BITMAP
FBC0
FFE0
FE40
FE00
DC00
ENDCHAR
STARTCHAR 219D
ENCODING 8605
SWIDTH 624 0
DWIDTH 13 0
BBX 11 5 1 4
BITMAP
73E0
F9E0
5FE0
0FE0
0760
ENDCHAR
STARTCHAR 219E
ENCODING 8606
SWIDTH 624 0
DWIDTH 13 0
BBX 11 8 1 2
BITMAP
2600
7E00
FC00
FFE0
FFE0
6C00
3600
2400
ENDCHAR
STARTCHAR 219F
ENCODING 8607
SWIDTH 624 0
DWIDTH 13 0
BBX 7 12 3 0
BITMAP
30
78
FC
F6
BC
7C
FE
B4
30
30
30
30
ENDCHAR
STARTCHAR 21A0
ENCODING 8608
SWIDTH 624 0
DWIDTH 13 0
BBX 11 8 1 2
BITMAP
0900
1D80
06C0
FFE0
FFE0
0EC0
1D80
0900
ENDCHAR
STARTCHAR 21A1
ENCODING 8609
SWIDTH 624 0
DWIDTH 13 0
BBX 7 12 3 0
BITMAP
30
30
30
30
B4
FE
7C
38
F6
FC
78
30
ENDCHAR
STARTCHAR 21A2
ENCODING 8610
SWIDTH 624 0
DWIDTH 13 0
BBX 11 8 1 2
BITMAP
2040
70E0
E1C0
FF80
FF80
60C0
3060
2040
ENDCHAR
STARTCHAR 21A3
ENCODING 8611
SWIDTH 624 0
DWIDTH 13 0
BBX 11 8 1 2
BITMAP
8100
C180
60C0
3FE0
7FE0
E0C0
C180
8100
ENDCHAR
STARTCHAR 21A4
ENCODING 8612
SWIDTH 624 0
DWIDTH 13 0
BBX 11 8 1 2
BITMAP
2060
7060
6060
FFE0
FFE0
E060
7060
2060
ENDCHAR
STARTCHAR 21A5
ENCODING 8613
SWIDTH 624 0
DWIDTH 13 0
BBX 7 12 3 0
BITMAP
30
78
FC
F6
B4
30
30
30
30
30
FE
FE
ENDCHAR
STARTCHAR 21A6
ENCODING 8614
SWIDTH 624 0
DWIDTH 13 0
BBX 11 8 1 2
BITMAP
C100
C180
C0C0
FFE0
FFE0
C0C0
C180
C100
ENDCHAR
STARTCHAR 21A7
ENCODING 8615
SWIDTH 624 0
DWIDTH 13 0
BBX 7 12 3 0
BITMAP
FE
FE
30
30
30
30
30
30
F6
FC
78
30
ENDCHAR
STARTCHAR 21A8
ENCODING 8616
SWIDTH 624 0
DWIDTH 13 0
BBX 7 12 3 0
BITMAP
30
78
FC
F6
B4
B4
F6
FC
78
30
FE
FE
ENDCHAR
STARTCHAR 21A9
ENCODING 8617
SWIDTH 624 0
DWIDTH 13 0
BBX 11 9 1 2
BITMAP
00C0
20E0
7060
E0E0
FFC0
FF80
6000
3000
2000
ENDCHAR
STARTCHAR 21AA
ENCODING 8618
SWIDTH 624 0
DWIDTH 13 0
BBX 11 9 1 2
BITMAP
6000
E180
C180
E0C0
FFE0
7FE0
00C0
0180
0100
ENDCHAR
STARTCHAR 21AB
ENCODING 8619
SWIDTH 624 0
DWIDTH 13 0
BBX 11 9 1 2
BITMAP
03C0
27E0
7660
E6E0
FFC0
FF80
6600
7600
2000
ENDCHAR
STARTCHAR 21AC
ENCODING 8620
SWIDTH 624 0
DWIDTH 13 0
BBX 11 9 1 2
BITMAP
7800
F980
DD80
FCC0
FFE0
7FE0
1CC0
1D80
0100
ENDCHAR
STARTCHAR 21AD
ENCODING 8621
SWIDTH 624 0
DWIDTH 13 0
BBX 11 7 1 3
BITMAP
2100
75C0
FFE0
FBE0
F3E0
61C0
3180
ENDCHAR
STARTCHAR 21AE
ENCODING 8622
SWIDTH 624 0
DWIDTH 13 0
BBX 11 8 1 2
BITMAP
2700
7780
E4C0
FFE0
FFE0
6CC0
3D80
2D00
ENDCHAR
STARTCHAR 21AF
ENCODING 8623
SWIDTH 624 0
DWIDTH 13 0
BBX 11 15 1 0
BITMAP
5000
6000
60C0
61C0
6780
FF80
F980
F180
C180
8380
0B00
1F40
0FE0
0780
0300
ENDCHAR
STARTCHAR 21B0
ENCODING 8624
SWIDTH 624 0
DWIDTH 13 0
BBX 9 15 2 0
BITMAP
2000
3000
6000
FF80
FF80
E180
7180
2180
0180
0180
0180
0180
0180
0180
0180
ENDCHAR
STARTCHAR 21B1
ENCODING 8625
SWIDTH 624 0
DWIDTH 13 0
BBX 9 15 2 0
BITMAP
0400
0E00
0700
FF80
FF80
C300
CE00
C400
C000
C000
C000
C000
C000
C000
C000
ENDCHAR
STARTCHAR 21B2
ENCODING 8626
SWIDTH 624 0
DWIDTH 13 0
BBX 9 15 2 -1
BITMAP
0180
0180
0180
0180
0180
0180
0180
2180
7180
E180
FF80
FF80
6000
3000
2000
ENDCHAR
STARTCHAR 21B3
ENCODING 8627
SWIDTH 624 0
DWIDTH 13 0
BBX 9 15 2 -1
BITMAP
C000
C000
C000
C000
C000
C000
C000
C400
CE00
C300
FF80
FF80
0700
0E00
0400
ENDCHAR
STARTCHAR 21B4
ENCODING 8628
SWIDTH 624 0
DWIDTH 13 0
BBX 9 12 2 0
BITMAP
FC00
FC00
0C00
0C00
0C00
0C00
0C00
0C00
3D00
3F80
1E00
0C00
ENDCHAR
STARTCHAR 21B5
ENCODING 8629
SWIDTH 624 0
DWIDTH 13 0
BBX 11 10 1 -1
BITMAP
0060
0060
2060
7060
E060
FFE0
FFE0
6000
3000
2000
ENDCHAR
STARTCHAR 21B6
ENCODING 8630
SWIDTH 624 0
DWIDTH 13 0
BBX 11 7 1 4
BITMAP
0F80
1FC0
38E0
B660
FC00
7800
3000
ENDCHAR
STARTCHAR 21B7
ENCODING 8631
SWIDTH 624 0
DWIDTH 13 0
BBX 11 7 1 4
BITMAP
3C00
7E00
E700
CF40
CFE0
07C0
0380
ENDCHAR
STARTCHAR 21B8
ENCODING 8632
SWIDTH 624 0
DWIDTH 13 0
BBX 11 12 1 0
BITMAP
FFE0
0000
7C00
7C00
7800
7800
5C00
4E00
0700
0380
01C0
0080
ENDCHAR
STARTCHAR 21B9
ENCODING 8633
SWIDTH 624 0
DWIDTH 13 0
BBX 11 14 1 0
BITMAP
C800
DC00
F000
FFE0
FFE0
F800
C800
0660
0360
FFE0
FFE0
03E0
0760
0260
ENDCHAR
STARTCHAR 21BA
ENCODING 8634
SWIDTH 624 0
DWIDTH 13 0
BBX 11 11 1 0
BITMAP
03E0
03E0
43C0
E3C0
C2C0
C0E0
C0C0
E1C0
FFC0
7F80
1E00
ENDCHAR
STARTCHAR 21BB
ENCODING 8635
SWIDTH 624 0
DWIDTH 13 0
BBX 11 11 1 0
BITMAP
F800
F800
78C0
F8E0
D8E0
C060
E0E0
E0E0
7BC0
3F80
1F00
ENDCHAR
STARTCHAR 21BC
ENCODING 8636
SWIDTH 624 0
DWIDTH 13 0
BBX 11 5 1 5
BITMAP
2000
7000
E000
FFE0
FFE0
ENDCHAR
STARTCHAR 21BD
ENCODING 8637
SWIDTH 624 0
DWIDTH 13 0
BBX 11 5 1 2
BITMAP
FFE0
FFE0
6000
3000
2000
ENDCHAR
STARTCHAR 21BE
ENCODING 8638
SWIDTH 624 0
DWIDTH 13 0
BBX 5 12 5 0
BITMAP
C0
E0
F0
D8
D0
C0
C0
C0
C0
C0
C0
C0
ENDCHAR
STARTCHAR 21BF
ENCODING 8639
SWIDTH 624 0
DWIDTH 13 0
BBX 4 12 3 0
BITMAP
30
70
F0
F0
B0
30
30
30
30
30
30
30
ENDCHAR
STARTCHAR 21C0
ENCODING 8640
SWIDTH 624 0
DWIDTH 13 0
BBX 11 5 1 5
BITMAP
0100
0180
00C0
FFE0
FFE0
ENDCHAR
STARTCHAR 21C1
ENCODING 8641
SWIDTH 624 0
DWIDTH 13 0
BBX 11 5 1 2
BITMAP
FFE0
FFE0
00C0
0180
0100
ENDCHAR
STARTCHAR 21C2
ENCODING 8642
SWIDTH 624 0
DWIDTH 13 0
BBX 5 12 5 0
BITMAP
C0
C0
C0
C0
C0
C0
C0
C0
D8
F0
E0
C0
ENDCHAR
STARTCHAR 21C3
ENCODING 8643
SWIDTH 624 0
DWIDTH 13 0
BBX 4 12 3 0
BITMAP
30
30
30
30
30
30
30
30
F0
F0
70
30
ENDCHAR
STARTCHAR 21C4
ENCODING 8644
SWIDTH 624 0
DWIDTH 13 0
BBX 11 13 1 -1
BITMAP
0100
0180
00C0
FFE0
FFE0
21C0
7180
E000
FFE0
FFE0
6000
3000
2000
ENDCHAR
STARTCHAR 21C5
ENCODING 8645
SWIDTH 624 0
DWIDTH 13 0
BBX 12 12 0 0
BITMAP
18C0
3CC0
7EC0
DEC0
5AC0
18C0
18C0
18C0
1EF0
1BF0
19E0
18C0
ENDCHAR
STARTCHAR 21C6
ENCODING 8646
SWIDTH 624 0
DWIDTH 13 0
BBX 11 13 1 -1
BITMAP
2000
7000
E000
FFE0
FFE0
6100
3180
00C0
FFE0
FFE0
00C0
0180
0100
ENDCHAR
STARTCHAR 21C7
ENCODING 8647
SWIDTH 624 0
DWIDTH 13 0
BBX 11 13 1 -1
BITMAP
2000
7000
E000
FFE0
FFE0
6000
7000
E000
FFE0
FFE0
6000
3000
2000
ENDCHAR
STARTCHAR 21C8
ENCODING 8648
SWIDTH 624 0
DWIDTH 13 0
BBX 12 12 0 0
BITMAP
18C0
3DE0
7FF0
DEF0
5AD0
18C0
18C0
18C0
18C0
18C0
18C0
18C0
ENDCHAR
STARTCHAR 21C9
ENCODING 8649
SWIDTH 624 0
DWIDTH 13 0
BBX 11 13 1 -1
BITMAP
0100
0180
00C0
FFE0
FFE0
01C0
0180
00C0
FFE0
FFE0
00C0
0180
0100
ENDCHAR
STARTCHAR 21CA
ENCODING 8650
SWIDTH 624 0
DWIDTH 13 0
BBX 12 12 0 0
BITMAP
18C0
18C0
18C0
18C0
18C0
18C0
18C0
18C0
DEF0
7FF0
3DE0
18C0
ENDCHAR
STARTCHAR 21CB
ENCODING 8651
SWIDTH 624 0
DWIDTH 13 0
BBX 11 13 1 -1
BITMAP
2000
7000
E000
FFE0
FFE0
0000
0000
0000
FFE0
FFE0
00C0
0180
0100
ENDCHAR
STARTCHAR 21CC
ENCODING 8652
SWIDTH 624 0
DWIDTH 13 0
BBX 11 13 1 -1
BITMAP
0100
0180
00C0
FFE0
FFE0
0000
0000
0000
FFE0
FFE0
6000
3000
2000
ENDCHAR
STARTCHAR 21CD
ENCODING 8653
SWIDTH 624 0
DWIDTH 13 0
BBX 11 8 1 2
BITMAP
2100
7180
FFE0
C300
C200
FFE0
7400
2400
ENDCHAR
STARTCHAR 21CE
ENCODING 8654
SWIDTH 624 0
DWIDTH 13 0
BBX 11 8 1 2
BITMAP
2D00
7D80
FFC0
CC60
CC60
FFC0
7D80
2D00
ENDCHAR
STARTCHAR 21CF
ENCODING 8655
SWIDTH 624 0
DWIDTH 13 0
BBX 11 8 1 2
BITMAP
0500
0D80
FFC0
1860
1060
FFC0
2180
2100
ENDCHAR
STARTCHAR 21D0
ENCODING 8656
SWIDTH 624 0
DWIDTH 13 0
BBX 11 8 1 2
BITMAP
2000
7000
FFE0
C000
C000
FFE0
7000
2000
ENDCHAR
STARTCHAR 21D1
ENCODING 8657
SWIDTH 624 0
DWIDTH 13 0
BBX 7 12 3 0
BITMAP
30
78
EC
EE
6C
68
68
68
68
68
68
68
ENDCHAR
STARTCHAR 21D2
ENCODING 8658
SWIDTH 624 0
DWIDTH 13 0
BBX 11 8 1 2
BITMAP
0100
0180
FFC0
0060
0060
FFC0
0180
0100
ENDCHAR
STARTCHAR 21D3
ENCODING 8659
SWIDTH 624 0
DWIDTH 13 0
BBX 7 12 3 0
BITMAP
68
68
68
68
68
68
68
68
EE
EC
78
30
ENDCHAR
STARTCHAR 21D4
ENCODING 8660
SWIDTH 624 0
DWIDTH 13 0
BBX 11 8 1 2
BITMAP
2100
7180
FFC0
C060
C060
FFC0
7180
2100
ENDCHAR
STARTCHAR 21D5
ENCODING 8661
SWIDTH 624 0
DWIDTH 13 0
BBX 7 12 3 0
BITMAP
30
78
EC
EE
6C
68
68
68
EE
EC
78
30
ENDCHAR
STARTCHAR 21D6
ENCODING 8662
SWIDTH 624 0
DWIDTH 13 0
BBX 10 10 1 -1
BITMAP
7C00
FC00
C800
E400
F200
1B00
0D80
06C0
0300
0100
ENDCHAR
STARTCHAR 21D7
ENCODING 8663
SWIDTH 624 0
DWIDTH 13 0
BBX 9 10 2 -1
BITMAP
0F80
0F80
0580
0980
1380
2400
4800
9000
2000
4000
ENDCHAR
STARTCHAR 21D8
ENCODING 8664
SWIDTH 624 0
DWIDTH 13 0
BBX 9 10 2 0
BITMAP
4000
2000
9000
4800
2580
1380
1980
0D80
0F80
0F80
ENDCHAR
STARTCHAR 21D9
ENCODING 8665
SWIDTH 624 0
DWIDTH 13 0
BBX 10 10 1 0
BITMAP
0100
0300
06C0
0D80
D900
F200
E400
C800
FC00
7C00
ENDCHAR
STARTCHAR 21DA
ENCODING 8666
SWIDTH 624 0
DWIDTH 13 0
BBX 11 7 1 2
BITMAP
2000
7FE0
C000
FFE0
C000
7FE0
2000
ENDCHAR
STARTCHAR 21DB
ENCODING 8667
SWIDTH 624 0
DWIDTH 13 0
BBX 11 7 1 2
BITMAP
0180
FFC0
00E0
FFE0
00E0
FFC0
0180
ENDCHAR
STARTCHAR 21DC
ENCODING 8668
SWIDTH 624 0
DWIDTH 13 0
BBX 11 8 1 2
BITMAP
2000
7100
E300
FFE0
FFE0
6CC0
3000
2000
ENDCHAR
STARTCHAR 21DD
ENCODING 8669
SWIDTH 624 0
DWIDTH 13 0
BBX 11 8 1 2
BITMAP
0100
1180
38C0
FFE0
EFE0
44C0
0180
0100
ENDCHAR
STARTCHAR 21E0
ENCODING 8672
SWIDTH 624 0
DWIDTH 13 0
BBX 11 8 1 2
BITMAP
2000
7000
E000
FB60
FB60
6000
3000
2000
ENDCHAR
STARTCHAR 21E1
ENCODING 8673
SWIDTH 624 0
DWIDTH 13 0
BBX 7 12 3 0
BITMAP
30
78
FC
F6
30
00
00
30
30
00
30
30
ENDCHAR
STARTCHAR 21E2
ENCODING 8674
SWIDTH 624 0
DWIDTH 13 0
BBX 11 8 1 2
BITMAP
0100
0180
00C0
DBE0
DBE0
00C0
0180
0100
ENDCHAR
STARTCHAR 21E3
ENCODING 8675
SWIDTH 624 0
DWIDTH 13 0
BBX 7 12 3 0
BITMAP
30
30
00
00
30
30
00
30
F6
FC
78
30
ENDCHAR
STARTCHAR 21E4
ENCODING 8676
SWIDTH 624 0
DWIDTH 13 0
BBX 11 8 1 2
BITMAP
C800
DC00
F800
FFE0
FFE0
F000
DC00
C800
ENDCHAR
STARTCHAR 21E5
ENCODING 8677
SWIDTH 624 0
DWIDTH 13 0
BBX 11 8 1 2
BITMAP
0260
0760
0360
FFE0
FFE0
03E0
0760
0260
ENDCHAR
STARTCHAR 21E6
ENCODING 8678
SWIDTH 624 0
DWIDTH 13 0
BBX 12 9 0 1
BITMAP
1000
3000
3FF0
4010
C010
7FF0
3000
1000
0800
ENDCHAR
STARTCHAR 21E7
ENCODING 8679
SWIDTH 624 0
DWIDTH 13 0
BBX 9 12 2 0
BITMAP
0800
1400
2200
E780
2400
2400
2400
2400
2400
2400
2400
3C00
ENDCHAR
STARTCHAR 21E8
ENCODING 8680
SWIDTH 624 0
DWIDTH 13 0
BBX 11 9 1 1
BITMAP
0100
0180
FF40
8020
8020
FF40
0180
0100
0100
ENDCHAR
STARTCHAR 21E9
ENCODING 8681
SWIDTH 624 0
DWIDTH 13 0
BBX 9 12 2 0
BITMAP
3C00
2400
2400
2400
2400
2400
2400
2480
E700
2200
1C00
0800
ENDCHAR
STARTCHAR 21EB
ENCODING 8683
SWIDTH 624 0
DWIDTH 13 0
BBX 9 12 2 0
BITMAP
0800
1400
2200
E780
2400
2400
2400
2400
2400
E700
8100
FF00
ENDCHAR
STARTCHAR 21EC
ENCODING 8684
SWIDTH 624 0
DWIDTH 13 0
BBX 9 12 2 0
BITMAP
0800
1400
2200
FF00
2480
2400
2400
2400
2400
E700
8100
FF00
ENDCHAR
STARTCHAR 21ED
ENCODING 8685
SWIDTH 624 0
DWIDTH 13 0
BBX 9 12 2 0
BITMAP
0800
1C00
2A00
EF80
2C00
2C00
2C00
2C00
2C00
EF00
8900
FF00
ENDCHAR
STARTCHAR 21EE
ENCODING 8686
SWIDTH 624 0
DWIDTH 13 0
BBX 9 12 2 0
BITMAP
0800
1400
2A00
FF80
2600
6300
E480
2400
2400
2400
2400
3C00
ENDCHAR
STARTCHAR 21EF
ENCODING 8687
SWIDTH 624 0
DWIDTH 13 0
BBX 9 12 2 0
BITMAP
0800
1400
2A00
FF80
2600
6300
E480
2400
2400
E700
8100
FF00
ENDCHAR
STARTCHAR 21F0
ENCODING 8688
SWIDTH 624 0
DWIDTH 13 0
BBX 11 8 1 2
BITMAP
E100
A180
BF40
8020
8020
BF40
A180
E100
ENDCHAR
STARTCHAR 21F1
ENCODING 8689
SWIDTH 624 0
DWIDTH 13 0
BBX 12 12 0 0
BITMAP
FFF0
8000
8000
9F00
9F00
9E00
9F00
9B80
81C0
80E0
8070
8020
ENDCHAR
STARTCHAR 21F2
ENCODING 8690
SWIDTH 624 0
DWIDTH 13 0
BBX 12 12 0 0
BITMAP
6010
F010
7010
3810
1CD0
0ED0
07D0
03D0
0FD0
0F90
0010
7FF0
ENDCHAR
STARTCHAR 21F3
ENCODING 8691
SWIDTH 624 0
DWIDTH 13 0
BBX 9 12 2 0
BITMAP
0800
1400
2200
E700
2480
2400
2400
2480
E700
2200
1400
0800
ENDCHAR
STARTCHAR 21F4
ENCODING 8692
SWIDTH 624 0
DWIDTH 13 0
BBX 11 7 1 2
BITMAP
3980
7DC0
FEC0
FFE0
FFE0
7DC0
3980
ENDCHAR
STARTCHAR 21F5
ENCODING 8693
SWIDTH 624 0
DWIDTH 13 0
BBX 12 12 0 0
BITMAP
18C0
19E0
1BF0
1EF0
1AD0
18C0
18C0
18C0
DEC0
7EC0
3CC0
18C0
ENDCHAR
STARTCHAR 21F6
ENCODING 8694
SWIDTH 624 0
DWIDTH 13 0
BBX 11 18 1 -3
BITMAP
0100
0180
00C0
FFE0
FFE0
00C0
0180
00C0
FFE0
FFE0
01C0
0180
00C0
FFE0
FFE0
00C0
0180
0100
ENDCHAR
STARTCHAR 21F7
ENCODING 8695
SWIDTH 624 0
DWIDTH 13 0
BBX 11 8 1 2
BITMAP
2600
7600
6600
FFE0
FFE0
E600
7600
2600
ENDCHAR
STARTCHAR 21F8
ENCODING 8696
SWIDTH 624 0
DWIDTH 13 0
BBX 11 8 1 2
BITMAP
1900
1980
18C0
FFE0
FFE0
18C0
1980
1900
ENDCHAR
STARTCHAR 21F9
ENCODING 8697
SWIDTH 624 0
DWIDTH 13 0
BBX 11 8 1 2
BITMAP
2D00
7D80
6CC0
FFE0
FFE0
ECC0
7D80
2D00
ENDCHAR
STARTCHAR 21FA
ENCODING 8698
SWIDTH 624 0
DWIDTH 13 0
BBX 11 8 1 2
BITMAP
26C0
76C0
66C0
FFE0
FFE0
E6C0
76C0
26C0
ENDCHAR
STARTCHAR 21FB
ENCODING 8699
SWIDTH 624 0
DWIDTH 13 0
BBX 11 8 1 2
BITMAP
6D00
6D80
6CC0
FFE0
FFE0
6CC0
6D80
6D00
ENDCHAR
STARTCHAR 21FC
ENCODING 8700
SWIDTH 624 0
DWIDTH 13 0
BBX 11 8 1 2
BITMAP
2F00
7F80
6EC0
FFE0
FFE0
EEC0
7F80
2F00
ENDCHAR
STARTCHAR 21FD
ENCODING 8701
SWIDTH 624 0
DWIDTH 13 0
BBX 12 9 0 2
BITMAP
0800
1000
3000
7000
DFF0
5FF0
3000
1000
1000
ENDCHAR
STARTCHAR 21FE
ENCODING 8702
SWIDTH 624 0
DWIDTH 13 0
BBX 11 9 1 2
BITMAP
0100
0180
0180
0140
FF20
FF60
0140
0180
0100
ENDCHAR
STARTCHAR 21FF
ENCODING 8703
SWIDTH 624 0
DWIDTH 13 0
BBX 12 9 0 2
BITMAP
0880
10C0
30C0
70A0
DF90
5FB0
30A0
10C0
1080
ENDCHAR
STARTCHAR 2200
ENCODING 8704
SWIDTH 624 0
DWIDTH 13 0
BBX 12 16 0 0
BITMAP
E070
7070
7070
70E0
7FE0
3FE0
38E0
39C0
19C0
19C0
1DC0
1D80
0F80
0F80
0F00
0F00
ENDCHAR
STARTCHAR 2201
ENCODING 8705
SWIDTH 624 0
DWIDTH 13 0
BBX 12 16 0 0
BITMAP
0F80
3FE0
3FE0
78F0
70F0
F000
F000
F000
F000
F000
F000
70F0
78F0
3FE0
3FE0
0F80
ENDCHAR
STARTCHAR 2202
ENCODING 8706
SWIDTH 624 0
DWIDTH 13 0
BBX 10 14 1 0
BITMAP
0F00
1D80
1080
00C0
00C0
1CC0
32C0
71C0
61C0
E1C0
6180
6380
6300
3E00
ENDCHAR
STARTCHAR 2203
ENCODING 8707
SWIDTH 624 0
DWIDTH 13 0
BBX 9 16 2 0
BITMAP
FF80
FF80
0380
0380
0380
0380
0380
FF80
FF80
0380
0380
0380
0380
0380
FF80
FF80
ENDCHAR
STARTCHAR 2204
ENCODING 8708
SWIDTH 624 0
DWIDTH 13 0
BBX 9 17 2 -1
BITMAP
FF80
FF80
0F80
0F80
1B80
1B80
1B80
FF80
FF80
3380
3380
3380
6380
FF80
FF80
FF80
C000
ENDCHAR
STARTCHAR 2205
ENCODING 8709
SWIDTH 624 0
DWIDTH 13 0
BBX 11 11 1 1
BITMAP
1E40
3FE0
61C0
C3C0
C760
CE60
D860
F0C0
61C0
FF80
DF00
ENDCHAR
STARTCHAR 2206
ENCODING 8710
SWIDTH 624 0
DWIDTH 13 0
BBX 13 15 0 0
BITMAP
0700
0F00
0F00
0F80
1F80
1D80
19C0
39C0
38C0
38E0
70E0
7060
7070
FFF0
FFF8
ENDCHAR
STARTCHAR 2207
ENCODING 8711
SWIDTH 624 0
DWIDTH 13 0
BBX 13 15 0 0
BITMAP
FFF8
FFF0
6070
7060
70E0
30E0
38C0
39C0
19C0
1D80
1F80
0F80
0F00
0F00
0700
ENDCHAR
STARTCHAR 2208
ENCODING 8712
SWIDTH 624 0
DWIDTH 13 0
BBX 11 16 1 0
BITMAP
0FE0
3FE0
7800
7000
6000
E000
E000
FFE0
FFE0
C000
E000
6000
7000
3800
3FE0
0FE0
ENDCHAR
STARTCHAR 2209
ENCODING 8713
SWIDTH 624 0
DWIDTH 13 0
BBX 11 20 1 -2
BITMAP
00E0
00C0
0FE0
3FE0
7980
7380
6380
E300
E700
FFE0
FFE0
CE00
EC00
6C00
7C00
3800
3FE0
3FE0
3000
7000
ENDCHAR
STARTCHAR 220A
ENCODING 8714
SWIDTH 624 0
DWIDTH 13 0
BBX 11 11 1 1
BITMAP
1FE0
3FE0
7800
E000
C000
FFE0
FFE0
E000
7800
3FE0
1FE0
ENDCHAR
STARTCHAR 220B
ENCODING 8715
SWIDTH 624 0
DWIDTH 13 0
BBX 11 16 1 0
BITMAP
FE00
FF00
0780
01C0
01C0
00C0
00C0
FFE0
FFE0
00C0
00C0
00C0
01C0
0780
FF00
FE00
ENDCHAR
STARTCHAR 220C
ENCODING 8716
SWIDTH 624 0
DWIDTH 13 0
BBX 11 20 1 -2
BITMAP
0180
0180
FF80
FF00
0780
07C0
06C0
0EC0
0CE0
FFE0
FFE0
18E0
18C0
38C0
31C0
7780
FF00
FE00
E000
4000
ENDCHAR
STARTCHAR 220D
ENCODING 8717
SWIDTH 624 0
DWIDTH 13 0
BBX 11 11 1 1
BITMAP
FE00
FF80
07C0
01C0
00C0
FFE0
FFC0
00C0
07C0
FF80
FE00
ENDCHAR
STARTCHAR 220E
ENCODING 8718
SWIDTH 624 0
DWIDTH 13 0
BBX 7 13 3 0
BITMAP
FE
FE
FE
FE
FE
FE
FE
FE
FE
FE
FE
FE
FE
ENDCHAR
STARTCHAR 220F
ENCODING 8719
SWIDTH 624 0
DWIDTH 13 0
BBX 9 20 2 -4
BITMAP
FF80
FF80
C380
C380
C380
C380
C380
C380
C380
C380
C380
C380
C380
C380
C380
C380
C380
C380
C380
C380
ENDCHAR
STARTCHAR 2210
ENCODING 8720
SWIDTH 624 0
DWIDTH 13 0
BBX 9 20 2 -4
BITMAP
C380
C380
C380
C380
C380
C380
C380
C380
C380
C380
C380
C380
C380
C380
C380
C380
C380
C380
FF80
FF80
ENDCHAR
STARTCHAR 2211
ENCODING 8721
SWIDTH 624 0
DWIDTH 13 0
BBX 10 20 1 -4
BITMAP
FFC0
FFC0
6000
7000
3800
1800
1C00
0E00
0600
0700
0700
0E00
0C00
1C00
1800
3800
7000
6000
FFC0
FFC0
ENDCHAR
STARTCHAR 2212
ENCODING 8722
SWIDTH 624 0
DWIDTH 13 0
BBX 11 2 1 5
BITMAP
FFE0
FFE0
ENDCHAR
STARTCHAR 2213
ENCODING 8723
SWIDTH 624 0
DWIDTH 13 0
BBX 11 13 1 0
BITMAP
FFE0
FFE0
0000
0C00
0C00
0C00
0C00
FFE0
FFE0
0C00
0C00
0C00
0C00
ENDCHAR
STARTCHAR 2217
ENCODING 8727
SWIDTH 624 0
DWIDTH 13 0
BBX 10 10 1 2
BITMAP
0C00
0C00
4CC0
FFC0
1F00
1F00
7FC0
CCC0
0C00
0C00
ENDCHAR
STARTCHAR 2218
ENCODING 8728
SWIDTH 624 0
DWIDTH 13 0
BBX 7 7 3 4
BITMAP
78
FC
C6
C6
C6
FC
78
ENDCHAR
STARTCHAR 221A
ENCODING 8730
SWIDTH 624 0
DWIDTH 13 0
BBX 11 18 1 0
BITMAP
00E0
00E0
00C0
00C0
01C0
0180
0180
2380
E380
F300
B300
3700
3E00
1E00
1E00
1C00
1C00
0C00
ENDCHAR
STARTCHAR 221B
ENCODING 8731
SWIDTH 624 0
DWIDTH 13 0
BBX 11 19 1 0
BITMAP
F800
0CE0
0CE0
38C0
3CC0
0FC0
0D80
FD80
0180
6380
F300
B300
3700
3600
1E00
1E00
1C00
1C00
0C00
ENDCHAR
STARTCHAR 221C
ENCODING 8732
SWIDTH 624 0
DWIDTH 13 0
BBX 11 19 1 0
BITMAP
1800
28E0
48E0
88C0
FEC0
F9C0
0980
0180
2380
E380
F300
B300
3700
3E00
1E00
1E00
1C00
1C00
0C00
ENDCHAR
STARTCHAR 221D
ENCODING 8733
SWIDTH 624 0
DWIDTH 13 0
BBX 9 9 2 2
BITMAP
7980
7F80
CF00
CE00
C600
CE00
CF00
7F80
7980
ENDCHAR
STARTCHAR 221E
ENCODING 8734
SWIDTH 624 0
DWIDTH 13 0
BBX 12 9 0 2
BITMAP
38E0
7DF0
FFF0
C730
C610
C730
FFF0
7DF0
38E0
ENDCHAR
STARTCHAR 221F
ENCODING 8735
SWIDTH 624 0
DWIDTH 13 0
BBX 11 11 1 3
BITMAP
C000
C000
C000
C000
C000
C000
C000
C000
C000
FFE0
FFE0
ENDCHAR
STARTCHAR 2220
ENCODING 8736
SWIDTH 624 0
DWIDTH 13 0
BBX 11 11 1 3
BITMAP
00C0
0180
0380
0700
0600
0C00
1C00
3800
3000
7FE0
FFE0
ENDCHAR
STARTCHAR 2223
ENCODING 8739
SWIDTH 624 0
DWIDTH 13 0
BBX 2 21 5 -5
BITMAP
C0
C0
C0
C0
C0
C0
C0
C0
C0
C0
C0
C0
C0
C0
C0
C0
C0
C0
C0
C0
C0
ENDCHAR
STARTCHAR 2227
ENCODING 8743
SWIDTH 624 0
DWIDTH 13 0
BBX 9 12 2 0
BITMAP
3C00
3C00
3E00
3E00
7E00
7600
7600
7700
6700
E700
E700
E380
ENDCHAR
STARTCHAR 2228
ENCODING 8744
SWIDTH 624 0
DWIDTH 13 0
BBX 9 12 2 0
BITMAP
E380
E700
E700
6700
7700
7600
7600
7E00
3E00
3E00
3C00
3C00
ENDCHAR
STARTCHAR 2229
ENCODING 8745
SWIDTH 624 0
DWIDTH 13 0
BBX 9 12 2 0
BITMAP
3E00
7F00
FF00
E300
C380
C380
C380
C380
C380
C380
C380
C380
ENDCHAR
STARTCHAR 222A
ENCODING 8746
SWIDTH 624 0
DWIDTH 13 0
BBX 9 13 2 0
BITMAP
C380
C380
C380
C380
C380
C380
C380
C380
C380
E300
FF00
7F00
3E00
ENDCHAR
STARTCHAR 222B
ENCODING 8747
SWIDTH 624 0
DWIDTH 13 0
BBX 11 20 1 -4
BITMAP
01C0
02E0
06E0
0600
0600
0E00
0E00
0E00
0E00
0E00
0C00
0C00
0C00
0C00
0C00
0C00
0C00
C800
D800
F000
ENDCHAR
STARTCHAR 222C
ENCODING 8748
SWIDTH 624 0
DWIDTH 13 0
BBX 13 23 0 -4
BITMAP
1E70
1EF8
3EF0
38C0
38C0
38C0
38C0
38C0
38C0
38C0
38C0
38C0
38C0
38C0
38C0
38C0
38C0
38C0
38C0
38C0
7BC0
FFC0
7380
ENDCHAR
STARTCHAR 222D
ENCODING 8749
SWIDTH 624 0
DWIDTH 13 0
BBX 13 23 0 -4
BITMAP
3BB8
7FF8
7760
7760
7760
7760
7760
7760
7760
7760
7760
7760
7760
7760
7760
7760
7760
7760
7760
7760
7660
EEE0
FFC0
ENDCHAR
STARTCHAR 2234
ENCODING 8756
SWIDTH 624 0
DWIDTH 13 0
BBX 9 11 2 1
BITMAP
1C00
1C00
1C00
1C00
0000
0000
0000
E380
E380
E380
E380
ENDCHAR
STARTCHAR 2235
ENCODING 8757
SWIDTH 624 0
DWIDTH 13 0
BBX 9 11 2 1
BITMAP
E380
E380
E380
E380
0000
0000
0000
1C00
1C00
1C00
1C00
ENDCHAR
STARTCHAR 2236
ENCODING 8758
SWIDTH 624 0
DWIDTH 13 0
BBX 3 11 5 1
BITMAP
E0
E0
E0
E0
00
00
00
E0
E0
E0
E0
ENDCHAR
STARTCHAR 2237
ENCODING 8759
SWIDTH 624 0
DWIDTH 13 0
BBX 9 11 2 1
BITMAP
E380
E380
E380
E380
0000
0000
0000
E380
E380
E380
E380
ENDCHAR
STARTCHAR 2238
ENCODING 8760
SWIDTH 624 0
DWIDTH 13 0
BBX 11 8 1 5
BITMAP
0E00
0E00
0E00
0E00
0000
0000
FFE0
FFE0
ENDCHAR
STARTCHAR 2239
ENCODING 8761
SWIDTH 624 0
DWIDTH 13 0
BBX 11 11 1 1
BITMAP
00E0
00E0
00E0
00E0
FE00
FE00
0000
00E0
00E0
00E0
00E0
ENDCHAR
STARTCHAR 223A
ENCODING 8762
SWIDTH 624 0
DWIDTH 13 0
BBX 12 12 0 1
BITMAP
F070
F070
F070
F070
0000
7FF0
7FF0
0000
F070
F070
F070
F070
ENDCHAR
STARTCHAR 223B
ENCODING 8763
SWIDTH 624 0
DWIDTH 13 0
BBX 11 13 1 0
BITMAP
0E00
0E00
0E00
0E00
0020
FFE0
FFE0
87C0
0000
0E00
0E00
0E00
0E00
ENDCHAR
STARTCHAR 223C
ENCODING 8764
SWIDTH 624 0
DWIDTH 13 0
BBX 11 4 1 5
BITMAP
0020
FFE0
FFE0
87C0
ENDCHAR
STARTCHAR 223D
ENCODING 8765
SWIDTH 624 0
DWIDTH 13 0
BBX 11 4 1 5
BITMAP
8000
FFE0
FFE0
7820
ENDCHAR
STARTCHAR 2241
ENCODING 8769
SWIDTH 624 0
DWIDTH 13 0
BBX 11 11 1 1
BITMAP
0300
0700
0600
0620
FFE0
FFE0
8FC0
1C00
1800
1800
3800
ENDCHAR
STARTCHAR 2242
ENCODING 8770
SWIDTH 624 0
DWIDTH 13 0
BBX 11 7 1 3
BITMAP
FFE0
FFE0
0000
0020
FFE0
FFE0
87C0
ENDCHAR
STARTCHAR 2243
ENCODING 8771
SWIDTH 624 0
DWIDTH 13 0
BBX 11 8 1 3
BITMAP
0020
FFE0
FFE0
87C0
0000
0000
FFE0
FFE0
ENDCHAR
STARTCHAR 2244
ENCODING 8772
SWIDTH 624 0
DWIDTH 13 0
BBX 11 13 1 0
BITMAP
0180
0180
1320
FF60
FFE0
8FC0
0C00
1800
FFE0
FFE0
3000
6000
2000
ENDCHAR
STARTCHAR 2245
ENCODING 8773
SWIDTH 624 0
DWIDTH 13 0
BBX 11 12 1 1
BITMAP
7820
FFE0
FFE0
0000
0000
FFE0
FFE0
0000
0000
0000
FFE0
FFE0
ENDCHAR
STARTCHAR 2246
ENCODING 8774
SWIDTH 624 0
DWIDTH 13 0
BBX 11 14 1 -1
BITMAP
7820
FFE0
FFE0
0000
0180
FFE0
FFE0
0600
0E00
0C00
FFE0
FFE0
7000
3000
ENDCHAR
STARTCHAR 2247
ENCODING 8775
SWIDTH 624 0
DWIDTH 13 0
BBX 11 16 1 -1
BITMAP
0180
01A0
FFE0
FFE0
87C0
0700
0E00
FFE0
FFE0
1C00
1C00
1800
FFE0
FFE0
7000
3000
ENDCHAR
STARTCHAR 2248
ENCODING 8776
SWIDTH 624 0
DWIDTH 13 0
BBX 11 8 1 3
BITMAP
7820
FFE0
FFE0
0000
0020
FFE0
FFE0
87C0
ENDCHAR
STARTCHAR 2249
ENCODING 8777
SWIDTH 624 0
DWIDTH 13 0
BBX 11 12 1 1
BITMAP
0380
0300
7F20
FFE0
FFE0
0E00
0C20
FEE0
FFE0
9FC0
3800
1000
ENDCHAR
STARTCHAR 224A
ENCODING 8778
SWIDTH 624 0
DWIDTH 13 0
BBX 11 12 1 1
BITMAP
7820
FFE0
FFE0
0000
7820
FFE0
FFE0
8380
0000
0000
FFE0
FFE0
ENDCHAR
STARTCHAR 224B
ENCODING 8779
SWIDTH 624 0
DWIDTH 13 0
BBX 11 13 1 0
BITMAP
0020
FFE0
FFE0
0000
0000
7820
FFE0
FFE0
8380
0020
FEE0
FFE0
87C0
ENDCHAR
STARTCHAR 224C
ENCODING 8780
SWIDTH 624 0
DWIDTH 13 0
BBX 11 12 1 1
BITMAP
87C0
FFE0
FEE0
0000
0000
FFE0
FFE0
0000
0000
0000
FFE0
FFE0
ENDCHAR
STARTCHAR 224D
ENCODING 8781
SWIDTH 624 0
DWIDTH 13 0
BBX 11 10 1 1
BITMAP
8060
FBE0
FFC0
1F00
0000
0000
7F80
FFE0
E0E0
8020
ENDCHAR
STARTCHAR 224E
ENCODING 8782
SWIDTH 624 0
DWIDTH 13 0
BBX 11 13 1 0
BITMAP
0E00
1F00
3F00
F1E0
F1E0
0000
0000
0000
F1E0
F1E0
3F00
1F00
0E00
ENDCHAR
STARTCHAR 224F
ENCODING 8783
SWIDTH 624 0
DWIDTH 13 0
BBX 11 10 1 3
BITMAP
0E00
3F00
3F00
F1E0
E1E0
0000
0000
0000
FFE0
FFE0
ENDCHAR
STARTCHAR 2250
ENCODING 8784
SWIDTH 624 0
DWIDTH 13 0
BBX 11 12 1 4
BITMAP
0E00
0E00
0E00
0E00
0000
FFE0
FFE0
0000
0000
0000
FFE0
FFE0
ENDCHAR
STARTCHAR 2251
ENCODING 8785
SWIDTH 624 0
DWIDTH 13 0
BBX 11 17 1 -1
BITMAP
0E00
0E00
0E00
0E00
0000
FFE0
FFE0
0000
0000
0000
FFE0
FFE0
0000
0E00
0E00
0E00
0E00
ENDCHAR
STARTCHAR 2252
ENCODING 8786
SWIDTH 624 0
DWIDTH 13 0
BBX 11 17 1 -1
BITMAP
E000
E000
E000
E000
0000
FFE0
FFE0
0000
0000
0000
FFE0
FFE0
0000
01E0
01E0
01E0
01E0
ENDCHAR
STARTCHAR 2253
ENCODING 8787
SWIDTH 624 0
DWIDTH 13 0
BBX 11 17 1 -1
BITMAP
01E0
01E0
01E0
01E0
0000
FFE0
FFE0
0000
0000
0000
FFE0
FFE0
0000
E000
E000
E000
E000
ENDCHAR
STARTCHAR 2254
ENCODING 8788
SWIDTH 624 0
DWIDTH 13 0
BBX 11 8 1 3
BITMAP
C000
DFE0
DFE0
0000
0000
DFE0
DFE0
C000
ENDCHAR
STARTCHAR 2255
ENCODING 8789
SWIDTH 624 0
DWIDTH 13 0
BBX 11 8 1 3
BITMAP
00E0
FEE0
FEE0
0000
0000
FEE0
FEE0
00E0
ENDCHAR
STARTCHAR 2256
ENCODING 8790
SWIDTH 624 0
DWIDTH 13 0
BBX 11 7 1 3
BITMAP
FFE0
FFE0
3300
3100
3B00
FFE0
FFE0
ENDCHAR
STARTCHAR 2257
ENCODING 8791
SWIDTH 624 0
DWIDTH 13 0
BBX 11 14 1 3
BITMAP
0E00
1F00
3300
3300
1F00
0E00
0000
FFE0
FFE0
0000
0000
0000
FFE0
FFE0
ENDCHAR
STARTCHAR 2258
ENCODING 8792
SWIDTH 624 0
DWIDTH 13 0
BBX 11 12 1 4
BITMAP
1F00
7FC0
7BC0
4040
0000
FFE0
FFE0
0000
0000
0000
FFE0
FFE0
ENDCHAR
STARTCHAR 2259
ENCODING 8793
SWIDTH 624 0
DWIDTH 13 0
BBX 11 15 1 3
BITMAP
0C00
0C00
0E00
1E00
1B00
3B00
3300
0000
FFE0
FFE0
0000
0000
0000
FFE0
FFE0
ENDCHAR
STARTCHAR 225A
ENCODING 8794
SWIDTH 624 0
DWIDTH 13 0
BBX 11 15 1 3
BITMAP
3300
3B00
1B00
1E00
0E00
0C00
0C00
0000
FFE0
FFE0
0000
0000
0000
FFE0
FFE0
ENDCHAR
STARTCHAR 225B
ENCODING 8795
SWIDTH 624 0
DWIDTH 13 0
BBX 11 17 1 3
BITMAP
0400
0400
0400
4FC0
3F00
0E00
1E00
1100
0000
0000
FFE0
FFE0
0000
0000
0000
FFE0
FFE0
ENDCHAR
STARTCHAR 225C
ENCODING 8796
SWIDTH 624 0
DWIDTH 13 0
BBX 11 16 1 3
BITMAP
0400
0C00
0E00
1E00
1B00
1300
3F00
3F80
0000
FFE0
FFE0
0000
0000
0000
FFE0
FFE0
ENDCHAR
STARTCHAR 225D
ENCODING 8797
SWIDTH 624 0
DWIDTH 13 0
BBX 11 13 1 3
BITMAP
10C0
7EC0
9A80
9D80
7E80
0000
FFE0
FFE0
0000
0000
0000
FFE0
FFE0
ENDCHAR
STARTCHAR 225E
ENCODING 8798
SWIDTH 624 0
DWIDTH 13 0
BBX 11 14 1 3
BITMAP
7F80
6CC0
6CC0
6CC0
6CC0
6CC0
0000
FFE0
FFE0
0000
0000
0000
FFE0
FFE0
ENDCHAR
STARTCHAR 225F
ENCODING 8799
SWIDTH 624 0
DWIDTH 13 0
BBX 11 16 1 3
BITMAP
1E00
1300
0600
0E00
0C00
0000
0C00
0C00
0000
FFE0
FFE0
0000
0000
0000
FFE0
FFE0
ENDCHAR
STARTCHAR 2260
ENCODING 8800
SWIDTH 624 0
DWIDTH 13 0
BBX 11 14 1 0
BITMAP
0040
00E0
01C0
0180
FFE0
FFE0
0E00
0C00
1C00
FFE0
FFE0
7000
E000
4000
ENDCHAR
STARTCHAR 2261
ENCODING 8801
SWIDTH 624 0
DWIDTH 13 0
BBX 11 12 1 1
BITMAP
FFE0
FFE0
0000
0000
0000
FFE0
FFE0
0000
0000
0000
FFE0
FFE0
ENDCHAR
STARTCHAR 2262
ENCODING 8802
SWIDTH 624 0
DWIDTH 13 0
BBX 11 16 1 -1
BITMAP
0100
01C0
FFE0
FFE0
0700
0700
0E00
FFE0
FFE0
1C00
1800
3800
FFE0
FFE0
7000
2000
ENDCHAR
STARTCHAR 2263
ENCODING 8803
SWIDTH 624 0
DWIDTH 13 0
BBX 11 15 1 -1
BITMAP
FFE0
FFE0
0000
0000
FFE0
FFE0
0000
0000
FFE0
FFE0
0000
0000
0000
FFE0
FFE0
ENDCHAR
STARTCHAR 2264
ENCODING 8804
SWIDTH 624 0
DWIDTH 13 0
BBX 11 12 1 0
BITMAP
00E0
07E0
3F80
FC00
F000
FE00
1FE0
03E0
0060
0000
FFE0
FFE0
ENDCHAR
STARTCHAR 2265
ENCODING 8805
SWIDTH 624 0
DWIDTH 13 0
BBX 11 12 1 0
BITMAP
E000
FC00
7F80
07E0
01E0
1FE0
FF00
F000
8000
0000
FFE0
FFE0
ENDCHAR
STARTCHAR 2266
ENCODING 8806
SWIDTH 624 0
DWIDTH 13 0
BBX 11 16 1 -2
BITMAP
0060
03E0
1FE0
FE00
F000
FC00
3F80
07E0
00E0
0000
FFE0
FFE0
0000
0000
FFE0
FFE0
ENDCHAR
STARTCHAR 2267
ENCODING 8807
SWIDTH 624 0
DWIDTH 13 0
BBX 11 16 1 -2
BITMAP
8000
F000
FF00
1FE0
03E0
07E0
7F80
FC00
E000
0000
FFE0
FFE0
0000
0000
FFE0
FFE0
ENDCHAR
STARTCHAR 2268
ENCODING 8808
SWIDTH 624 0
DWIDTH 13 0
BBX 11 18 1 -4
BITMAP
0060
03E0
1FE0
FE00
F000
FC00
3F80
07E0
00E0
0180
FFE0
FFE0
0E00
1C00
FFE0
FFE0
3000
2000
ENDCHAR
STARTCHAR 2269
ENCODING 8809
SWIDTH 624 0
DWIDTH 13 0
BBX 11 18 1 -4
BITMAP
8000
F000
FF00
1FE0
03E0
07E0
7F80
FC00
E100
0180
FFE0
FFE0
0E00
1C00
FFE0
FFE0
3000
2000
ENDCHAR
STARTCHAR 226D
ENCODING 8813
SWIDTH 624 0
DWIDTH 13 0
BBX 11 16 1 -1
BITMAP
0100
0180
0380
8320
E3E0
FFE0
3F80
0E00
0C00
3F00
FFE0
F8E0
B820
3000
7000
1000
ENDCHAR
STARTCHAR 226E
ENCODING 8814
SWIDTH 624 0
DWIDTH 13 0
BBX 11 13 1 0
BITMAP
0180
0160
03E0
0FE0
3F00
FE00
E600
FC00
3F00
0FE0
19E0
1820
3000
ENDCHAR
STARTCHAR 226F
ENCODING 8815
SWIDTH 624 0
DWIDTH 13 0
BBX 11 13 1 0
BITMAP
0300
8300
F200
FE00
3F80
0FE0
0CE0
0FE0
3F80
FC00
F000
B000
3000
ENDCHAR
STARTCHAR 2270
ENCODING 8816
SWIDTH 624 0
DWIDTH 13 0
BBX 11 16 1 -2
BITMAP
0180
0180
03E0
07E0
3F80
FF00
F600
FE00
1FE0
0FE0
0C60
1C00
FFE0
FFE0
3800
1000
ENDCHAR
STARTCHAR 2271
ENCODING 8817
SWIDTH 624 0
DWIDTH 13 0
BBX 11 16 1 -2
BITMAP
0200
0700
E600
FE00
7F80
0FE0
0DE0
1FE0
FF00
F800
B000
3000
FFE0
FFE0
6000
6000
ENDCHAR
STARTCHAR 2272
ENCODING 8818
SWIDTH 624 0
DWIDTH 13 0
BBX 11 13 1 -1
BITMAP
0060
03E0
3FC0
FE00
E000
FC00
3FC0
07E0
00E0
0020
FC60
FFE0
87C0
ENDCHAR
STARTCHAR 2273
ENCODING 8819
SWIDTH 624 0
DWIDTH 13 0
BBX 11 13 1 -1
BITMAP
C000
F800
FF00
0FE0
01E0
0FE0
7F00
F800
C000
0020
FC60
FFE0
87C0
ENDCHAR
STARTCHAR 2274
ENCODING 8820
SWIDTH 624 0
DWIDTH 13 0
BBX 11 17 1 -3
BITMAP
0100
0180
01E0
03E0
3FC0
FF00
E600
FE00
3FC0
0FE0
0CE0
0C20
FC60
FFE0
9FC0
3000
1000
ENDCHAR
STARTCHAR 2275
ENCODING 8821
SWIDTH 624 0
DWIDTH 13 0
BBX 11 16 1 -2
BITMAP
0200
0700
E600
FE00
7F80
0FE0
0DE0
1FE0
FF00
F800
B000
7820
FFE0
FFE0
E3C0
6000
ENDCHAR
STARTCHAR 2276
ENCODING 8822
SWIDTH 624 0
DWIDTH 13 0
BBX 11 16 1 -2
BITMAP
00E0
07E0
3FC0
FC00
F000
FE00
1FE0
83E0
F060
FE00
1FC0
03E0
07E0
3F80
FC00
E000
ENDCHAR
STARTCHAR 2277
ENCODING 8823
SWIDTH 624 0
DWIDTH 13 0
BBX 11 16 1 -2
BITMAP
C000
F800
7F80
0FE0
01E0
1FE0
FF00
F020
81E0
0FE0
FF00
F000
F800
7F80
0FE0
00E0
ENDCHAR
STARTCHAR 2278
ENCODING 8824
SWIDTH 624 0
DWIDTH 13 0
BBX 11 20 1 -4
BITMAP
0180
0180
03E0
07E0
3FC0
FF00
F700
FE00
1FE0
8FE0
FC60
FE00
1FC0
1BE0
1FE0
3F80
FC00
F000
7000
7000
ENDCHAR
STARTCHAR 2279
ENCODING 8825
SWIDTH 624 0
DWIDTH 13 0
BBX 11 20 1 -4
BITMAP
0180
0180
C380
FB80
7F80
0FE0
07E0
1FE0
FF00
FE20
8DE0
0FE0
FF00
F800
F800
7F80
3FE0
30E0
7000
7000
ENDCHAR
STARTCHAR 227A
ENCODING 8826
SWIDTH 624 0
DWIDTH 13 0
BBX 11 15 1 -1
BITMAP
0020
0060
00E0
01E0
07C0
1F80
FE00
F000
FE00
1F80
03C0
01E0
0060
0060
0020
ENDCHAR
STARTCHAR 227B
ENCODING 8827
SWIDTH 624 0
DWIDTH 13 0
BBX 11 15 1 -1
BITMAP
8000
8000
C000
E000
7800
3F00
1FE0
03E0
1FE0
3E00
7800
E000
C000
8000
8000
ENDCHAR
STARTCHAR 227C
ENCODING 8828
SWIDTH 624 0
DWIDTH 13 0
BBX 11 21 1 -5
BITMAP
0020
0020
0060
00E0
03C0
0F80
FE00
F800
FE00
1F80
07C0
E1E0
F8E0
7E20
0F20
0380
01C0
00E0
0060
0020
0020
ENDCHAR
STARTCHAR 227D
ENCODING 8829
SWIDTH 624 0
DWIDTH 13 0
BBX 11 21 1 -5
BITMAP
8000
8000
C000
E000
F000
3E00
1FE0
03E0
0FE0
3F00
7800
E0E0
C7E0
8FC0
BE00
7800
7000
E000
C000
8000
8000
ENDCHAR
STARTCHAR 227E
ENCODING 8830
SWIDTH 624 0
DWIDTH 13 0
BBX 11 18 1 -2
BITMAP
0020
0060
00E0
01E0
07C0
FF00
FC00
FC00
FF00
0F80
03C0
00E0
0060
0020
0020
FFE0
FFE0
87C0
ENDCHAR
STARTCHAR 227F
ENCODING 8831
SWIDTH 624 0
DWIDTH 13 0
BBX 11 18 1 -2
BITMAP
8000
8000
C000
F000
7800
3FE0
0FE0
07E0
1FE0
7E00
F800
E000
C000
8000
8000
FC60
FFE0
87C0
ENDCHAR
STARTCHAR 2280
ENCODING 8832
SWIDTH 624 0
DWIDTH 13 0
BBX 11 18 1 -2
BITMAP
0100
01C0
01E0
01E0
03E0
03E0
07C0
1F80
FF00
F600
FE00
1F80
0FC0
0DE0
1C60
1860
1820
3800
ENDCHAR
STARTCHAR 2281
ENCODING 8833
SWIDTH 624 0
DWIDTH 13 0
BBX 11 18 1 -2
BITMAP
0200
0300
8700
8700
C600
EE00
7E00
3E00
1FE0
1FE0
1FE0
3F00
7800
F000
F000
F000
E000
E000
ENDCHAR
STARTCHAR 2282
ENCODING 8834
SWIDTH 624 0
DWIDTH 13 0
BBX 11 10 1 2
BITMAP
1FE0
7FE0
7800
E000
C000
C000
C000
E000
7FE0
3FE0
ENDCHAR
STARTCHAR 2283
ENCODING 8835
SWIDTH 624 0
DWIDTH 13 0
BBX 11 10 1 2
BITMAP
FF00
FF80
03C0
00C0
00E0
00E0
00E0
01C0
FFC0
FF80
ENDCHAR
STARTCHAR 2284
ENCODING 8836
SWIDTH 624 0
DWIDTH 13 0
BBX 11 16 1 -1
BITMAP
0100
0180
0300
1FE0
7FE0
7E00
E600
C600
CC00
CC00
F800
7FE0
3FE0
3000
3000
7000
ENDCHAR
STARTCHAR 2285
ENCODING 8837
SWIDTH 624 0
DWIDTH 13 0
BBX 11 16 1 -1
BITMAP
0100
0180
0300
FF00
FF80
07C0
06C0
06E0
0CE0
0CE0
19C0
FFC0
FF80
3000
3000
7000
ENDCHAR
STARTCHAR 2286
ENCODING 8838
SWIDTH 624 0
DWIDTH 13 0
BBX 11 14 1 0
BITMAP
3FE0
7FE0
E000
E000
C000
C000
C000
E000
7FE0
3FE0
0000
0000
FFE0
FFE0
ENDCHAR
STARTCHAR 2287
ENCODING 8839
SWIDTH 624 0
DWIDTH 13 0
BBX 11 14 1 0
BITMAP
FF80
FFC0
01C0
00C0
00E0
00E0
00C0
01C0
FFC0
FF80
0000
0000
FFE0
FFE0
ENDCHAR
STARTCHAR 2288
ENCODING 8840
SWIDTH 624 0
DWIDTH 13 0
BBX 11 18 1 -2
BITMAP
0180
0180
3FE0
7FE0
E700
E600
C600
CC00
CC00
EC00
7FE0
3FE0
1800
3000
FFE0
FFE0
6000
6000
ENDCHAR
STARTCHAR 2289
ENCODING 8841
SWIDTH 624 0
DWIDTH 13 0
BBX 11 18 1 -2
BITMAP
0180
0180
FF80
FFC0
07C0
06C0
06E0
0CE0
0CC0
0DC0
FFC0
FF80
1800
3000
FFE0
FFE0
6000
6000
ENDCHAR
STARTCHAR 228A
ENCODING 8842
SWIDTH 624 0
DWIDTH 13 0
BBX 11 16 1 -2
BITMAP
3FE0
7FE0
E000
E000
C000
C000
C000
E000
7FE0
3FE0
0300
0700
FFE0
FFE0
3800
1800
ENDCHAR
STARTCHAR 228B
ENCODING 8843
SWIDTH 624 0
DWIDTH 13 0
BBX 11 16 1 -2
BITMAP
FF80
FFC0
01C0
00C0
00E0
00E0
00C0
01C0
FFC0
FF80
0300
0700
FFE0
FFE0
3800
1800
ENDCHAR
STARTCHAR 228D
ENCODING 8845
SWIDTH 624 0
DWIDTH 13 0
BBX 11 14 1 0
BITMAP
C0E0
C0E0
C0E0
C0E0
C0E0
C0E0
CEE0
CEE0
C0E0
C0E0
E0C0
FBC0
7F80
3F00
ENDCHAR
STARTCHAR 228E
ENCODING 8846
SWIDTH 624 0
DWIDTH 13 0
BBX 11 14 1 0
BITMAP
C0E0
C0E0
C0E0
C0E0
C0E0
C4E0
DEE0
C4E0
C4E0
C0E0
E0C0
FBC0
7F80
3F00
ENDCHAR
STARTCHAR 228F
ENCODING 8847
SWIDTH 624 0
DWIDTH 13 0
BBX 11 11 1 1
BITMAP
FFE0
FFE0
C000
C000
C000
C000
C000
C000
C000
FFE0
FFE0
ENDCHAR
STARTCHAR 2290
ENCODING 8848
SWIDTH 624 0
DWIDTH 13 0
BBX 11 11 1 1
BITMAP
FFE0
FFE0
00E0
00E0
00E0
00E0
00E0
00E0
00E0
FFE0
FFE0
ENDCHAR
STARTCHAR 2291
ENCODING 8849
SWIDTH 624 0
DWIDTH 13 0
BBX 11 14 1 0
BITMAP
FFE0
FFE0
C000
C000
C000
C000
C000
C000
FFE0
FFE0
0000
0000
FFE0
FFE0
ENDCHAR
STARTCHAR 2292
ENCODING 8850
SWIDTH 624 0
DWIDTH 13 0
BBX 11 14 1 0
BITMAP
FFE0
FFE0
00E0
00E0
00E0
00E0
00E0
00E0
FFE0
FFE0
0000
0000
FFE0
FFE0
ENDCHAR
STARTCHAR 2293
ENCODING 8851
SWIDTH 624 0
DWIDTH 13 0
BBX 11 13 1 0
BITMAP
FFE0
FFE0
C060
C060
C060
C060
C060
C060
C060
C060
C060
C060
C060
ENDCHAR
STARTCHAR 2294
ENCODING 8852
SWIDTH 624 0
DWIDTH 13 0
BBX 11 14 1 0
BITMAP
C060
C060
C060
C060
C060
C060
C060
C060
C060
C060
C060
C060
FFE0
FFE0
ENDCHAR
STARTCHAR 2295
ENCODING 8853
SWIDTH 624 0
DWIDTH 13 0
BBX 12 12 0 1
BITMAP
1FC0
3FE0
76E0
6670
C630
DFF0
DFF0
E630
7670
7DE0
3FC0
0F80
ENDCHAR
STARTCHAR 2296
ENCODING 8854
SWIDTH 624 0
DWIDTH 13 0
BBX 12 12 0 1
BITMAP
1FC0
3FE0
70E0
6070
C030
DFF0
DFF0
E030
7070
7DE0
3FC0
0F80
ENDCHAR
STARTCHAR 2297
ENCODING 8855
SWIDTH 624 0
DWIDTH 13 0
BBX 12 12 0 1
BITMAP
1FC0
3FE0
70E0
68F0
DDB0
C730
CF30
FDB0
78F0
7DE0
3FC0
0F80
ENDCHAR
STARTCHAR 2298
ENCODING 8856
SWIDTH 624 0
DWIDTH 13 0
BBX 12 12 0 1
BITMAP
1FC0
3FE0
70E0
60F0
C3B0
C730
CE30
FC30
7870
7DE0
3FC0
0F80
ENDCHAR
STARTCHAR 2299
ENCODING 8857
SWIDTH 624 0
DWIDTH 13 0
BBX 12 12 0 1
BITMAP
1FC0
3FE0
70E0
6070
C730
C730
C730
E730
7070
7DE0
3FC0
0F80
ENDCHAR
STARTCHAR 229A
ENCODING 8858
SWIDTH 624 0
DWIDTH 13 0
BBX 12 12 0 1
BITMAP
1FC0
3FE0
70E0
6770
CFB0
C9B0
C9B0
EFB0
7770
7DE0
3FC0
0F80
ENDCHAR
STARTCHAR 229B
ENCODING 8859
SWIDTH 624 0
DWIDTH 13 0
BBX 12 12 0 1
BITMAP
0F80
3FC0
76E0
6670
FEF0
DFB0
CFB0
FFF0
6670
76E0
3FC0
0F80
ENDCHAR
STARTCHAR 229C
ENCODING 8860
SWIDTH 624 0
DWIDTH 13 0
BBX 12 12 0 1
BITMAP
1FC0
3FE0
70E0
7FF0
DFF0
C030
DFF0
FFF0
7070
7DE0
3FC0
0F80
ENDCHAR
STARTCHAR 229D
ENCODING 8861
SWIDTH 624 0
DWIDTH 13 0
BBX 12 12 0 1
BITMAP
1FC0
3FE0
70E0
6070
C030
CF30
CF30
E030
7070
7DE0
3FC0
0F80
ENDCHAR
STARTCHAR 229E
ENCODING 8862
SWIDTH 624 0
DWIDTH 13 0
BBX 11 12 1 1
BITMAP
FFE0
FFE0
8060
8C60
8C60
BFE0
BFE0
8C60
8C60
8C60
FFE0
FFE0
ENDCHAR
STARTCHAR 229F
ENCODING 8863
SWIDTH 624 0
DWIDTH 13 0
BBX 11 12 1 1
BITMAP
FFE0
FFE0
8060
8060
8060
BFE0
BFE0
8060
8060
8060
FFE0
FFE0
ENDCHAR
STARTCHAR 22A0
ENCODING 8864
SWIDTH 624 0
DWIDTH 13 0
BBX 11 12 1 1
BITMAP
FFE0
FFE0
8060
B1E0
BB60
9E60
8E60
9F60
B3E0
A160
FFE0
FFE0
ENDCHAR
STARTCHAR 22A1
ENCODING 8865
SWIDTH 624 0
DWIDTH 13 0
BBX 11 12 1 1
BITMAP
FFE0
FFE0
8060
8060
8E60
8E60
8E60
8E60
8060
8060
FFE0
FFE0
ENDCHAR
STARTCHAR 22A2
ENCODING 8866
SWIDTH 624 0
DWIDTH 13 0
BBX 11 13 1 0
BITMAP
C000
C000
C000
C000
C000
FFE0
FFE0
C000
C000
C000
C000
C000
C000
ENDCHAR
STARTCHAR 22A3
ENCODING 8867
SWIDTH 624 0
DWIDTH 13 0
BBX 11 13 1 0
BITMAP
00E0
00E0
00E0
00E0
00E0
FFE0
FFE0
00E0
00E0
00E0
00E0
00E0
00E0
ENDCHAR
STARTCHAR 22A4
ENCODING 8868
SWIDTH 624 0
DWIDTH 13 0
BBX 11 13 1 0
BITMAP
FFE0
FFE0
0C00
0C00
0C00
0C00
0C00
0C00
0C00
0C00
0C00
0C00
0C00
ENDCHAR
STARTCHAR 22B2
ENCODING 8882
SWIDTH 624 0
DWIDTH 13 0
BBX 11 11 1 1
BITMAP
0060
01E0
0FE0
3FE0
F8E0
E0E0
F8E0
3FE0
07E0
01E0
0020
ENDCHAR
STARTCHAR 22B3
ENCODING 8883
SWIDTH 624 0
DWIDTH 13 0
BBX 11 11 1 1
BITMAP
8000
F000
FC00
FF80
C7E0
C0E0
C7E0
FF80
FC00
E000
8000
ENDCHAR
STARTCHAR 22B4
ENCODING 8884
SWIDTH 624 0
DWIDTH 13 0
BBX 11 12 1 0
BITMAP
00E0
07E0
3FE0
FCE0
F0E0
FEE0
1FE0
03E0
0060
0000
FFE0
FFE0
ENDCHAR
STARTCHAR 22B5
ENCODING 8885
SWIDTH 624 0
DWIDTH 13 0
BBX 11 12 1 0
BITMAP
E000
FC00
FF80
C7E0
C1E0
DFE0
FF00
F000
8000
0000
FFE0
FFE0
ENDCHAR
STARTCHAR 22B8
ENCODING 8888
SWIDTH 624 0
DWIDTH 13 0
BBX 12 6 0 4
BITMAP
00E0
01F0
FF10
FF10
01F0
00E0
ENDCHAR
STARTCHAR 22C2
ENCODING 8898
SWIDTH 624 0
DWIDTH 13 0
BBX 11 20 1 -4
BITMAP
3F00
7FC0
FBC0
E0C0
C0E0
C0E0
C0E0
C0E0
C0E0
C0E0
C0E0
C0E0
C0E0
C0E0
C0E0
C0E0
C0E0
C0E0
C0E0
C0E0
ENDCHAR
STARTCHAR 22C3
ENCODING 8899
SWIDTH 624 0
DWIDTH 13 0
BBX 11 21 1 -5
BITMAP
C0E0
C0E0
C0E0
C0E0
C0E0
C0E0
C0E0
C0E0
C0E0
C0E0
C0E0
C0E0
C0E0
C0E0
C0E0
C0E0
C0E0
E0C0
7BC0
7F80
3F00
ENDCHAR
STARTCHAR 22C4
ENCODING 8900
SWIDTH 624 0
DWIDTH 13 0
BBX 12 13 0 1
BITMAP
0200
0600
0F00
1980
30C0
6060
C030
6070
30E0
19C0
0F80
0700
0200
ENDCHAR
STARTCHAR 22C5
ENCODING 8901
SWIDTH 624 0
DWIDTH 13 0
BBX 3 4 5 6
BITMAP
E0
E0
E0
E0
ENDCHAR
STARTCHAR 22C6
ENCODING 8902
SWIDTH 624 0
DWIDTH 13 0
BBX 8 8 2 4
BITMAP
08
08
18
FF
3C
1C
34
22
ENDCHAR
STARTCHAR 22CD
ENCODING 8909
SWIDTH 624 0
DWIDTH 13 0
BBX 11 8 1 3
BITMAP
8000
FFE0
FFE0
7820
0000
0000
FFE0
FFE0
ENDCHAR
STARTCHAR 22CE
ENCODING 8910
SWIDTH 624 0
DWIDTH 13 0
BBX 13 14 0 0
BITMAP
E078
70E0
39E0
1DC0
1F80
0F80
0F80
0F00
0F00
0700
0700
0700
0700
0700
ENDCHAR
STARTCHAR 22CF
ENCODING 8911
SWIDTH 624 0
DWIDTH 13 0
BBX 13 14 0 0
BITMAP
0700
0700
0700
0700
0700
0F00
0F00
0F00
0F80
1F80
1DC0
39C0
78E0
F078
ENDCHAR
STARTCHAR 22D0
ENCODING 8912
SWIDTH 624 0
DWIDTH 13 0
BBX 11 14 1 0
BITMAP
1FE0
3FE0
7800
6000
E7E0
CFE0
CC00
CC00
CFE0
E7E0
7000
3E00
1FE0
0FE0
ENDCHAR
STARTCHAR 22D1
ENCODING 8913
SWIDTH 624 0
DWIDTH 13 0
BBX 11 14 1 0
BITMAP
FE00
FF00
0380
01C0
FCC0
FEE0
0EE0
0EE0
FEC0
FCC0
01C0
0F80
FF00
FC00
ENDCHAR
STARTCHAR 22DA
ENCODING 8922
SWIDTH 624 0
DWIDTH 13 0
BBX 11 22 1 -6
BITMAP
00E0
07E0
3F80
FC00
F000
FE00
1FE0
03E0
0060
0000
FFE0
FFE0
8000
E000
FC00
7F80
07E0
03E0
1FE0
FE00
F000
8000
ENDCHAR
STARTCHAR 22DB
ENCODING 8923
SWIDTH 624 0
DWIDTH 13 0
BBX 11 22 1 -6
BITMAP
E000
FC00
7F80
07E0
01E0
1FE0
FF00
F000
8000
0000
FFE0
FFE0
0020
00E0
07E0
7F80
FC00
F000
FF00
1FE0
03E0
0060
ENDCHAR
STARTCHAR 22DC
ENCODING 8924
SWIDTH 624 0
DWIDTH 13 0
BBX 11 12 1 0
BITMAP
FFE0
FFE0
0000
00E0
07E0
3F80
FC00
F000
FE00
1FE0
03E0
0060
ENDCHAR
STARTCHAR 22DD
ENCODING 8925
SWIDTH 624 0
DWIDTH 13 0
BBX 11 12 1 0
BITMAP
FFE0
FFE0
0000
E000
FC00
7F80
07E0
03E0
1FE0
FF00
F000
8000
ENDCHAR
STARTCHAR 22DE
ENCODING 8926
SWIDTH 624 0
DWIDTH 13 0
BBX 11 21 1 -5
BITMAP
0020
0020
0060
00E0
01C0
0380
0F20
7E20
F8E0
E1E0
07C0
1F80
FE00
F800
FE00
0F80
03C0
00E0
0060
0020
0020
ENDCHAR
STARTCHAR 22DF
ENCODING 8927
SWIDTH 624 0
DWIDTH 13 0
BBX 11 21 1 -5
BITMAP
8000
8000
C000
E000
7000
7800
BE00
8FC0
C7E0
E0E0
7800
3F00
0FE0
03E0
1FE0
3E00
F000
E000
C000
8000
8000
ENDCHAR
STARTCHAR 22E0
ENCODING 8928
SWIDTH 624 0
DWIDTH 13 0
BBX 11 22 1 -5
BITMAP
0380
0320
0320
0360
07E0
07C0
0F80
FE00
FE00
FE00
1F80
0FC0
EDE0
FC60
7E20
1F20
1B80
19C0
18E0
3860
3820
3020
ENDCHAR
STARTCHAR 22E1
ENCODING 8929
SWIDTH 624 0
DWIDTH 13 0
BBX 11 22 1 -5
BITMAP
0380
8300
8300
C300
E700
7F00
3E00
1FE0
07E0
1FE0
3E00
FC00
EDE0
CFE0
9F80
BC00
7800
F800
D800
B800
B800
B000
ENDCHAR
STARTCHAR 22E2
ENCODING 8930
SWIDTH 624 0
DWIDTH 13 0
BBX 11 20 1 -3
BITMAP
0100
01C0
0180
FFE0
FFE0
C300
C700
C600
C600
CE00
CC00
FFE0
FFE0
1800
3800
FFE0
FFE0
7000
7000
2000
ENDCHAR
STARTCHAR 22E3
ENCODING 8931
SWIDTH 624 0
DWIDTH 13 0
BBX 11 20 1 -3
BITMAP
0100
01C0
0180
FFE0
FFE0
03E0
07E0
06E0
06E0
0EE0
0CE0
FFE0
FFE0
1800
3800
FFE0
FFE0
7000
7000
2000
ENDCHAR
STARTCHAR 22E4
ENCODING 8932
SWIDTH 624 0
DWIDTH 13 0
BBX 11 16 1 -2
BITMAP
FFE0
FFE0
C000
C000
C000
C000
C000
C000
FFE0
FFE0
0300
0700
FFE0
FFE0
3800
1800
ENDCHAR
STARTCHAR 22E5
ENCODING 8933
SWIDTH 624 0
DWIDTH 13 0
BBX 11 16 1 -2
BITMAP
FFE0
FFE0
00E0
00E0
00E0
00E0
00E0
00E0
FFE0
FFE0
0300
0700
FFE0
FFE0
3800
1800
ENDCHAR
STARTCHAR 22E6
ENCODING 8934
SWIDTH 624 0
DWIDTH 13 0
BBX 11 16 1 -4
BITMAP
0060
03E0
3FC0
FE00
E000
FC00
3FC0
07E0
06E0
0620
FE60
FFE0
8FC0
1C00
1800
1800
ENDCHAR
STARTCHAR 22E7
ENCODING 8935
SWIDTH 624 0
DWIDTH 13 0
BBX 11 16 1 -4
BITMAP
C000
F800
FF00
0FE0
01E0
0FE0
7F00
FF00
C600
0620
FE60
FFE0
8FC0
1C00
1800
1800
ENDCHAR
STARTCHAR 22E8
ENCODING 8936
SWIDTH 624 0
DWIDTH 13 0
BBX 11 21 1 -5
BITMAP
0020
0060
00E0
01E0
07C0
FF00
FC00
FC00
FF00
0F80
03C0
00E0
0760
0620
0620
FFE0
FFE0
8FC0
1C00
1800
0800
ENDCHAR
STARTCHAR 22E9
ENCODING 8937
SWIDTH 624 0
DWIDTH 13 0
BBX 11 21 1 -5
BITMAP
8000
8000
C000
F000
7800
3FE0
0FE0
07E0
1FE0
7E00
F800
E000
C700
8600
8600
FE60
FFE0
8FC0
1C00
1800
0800
ENDCHAR
STARTCHAR 22EF
ENCODING 8943
SWIDTH 624 0
DWIDTH 13 0
BBX 11 4 1 5
BITMAP
EEE0
EEE0
EEE0
EEE0
ENDCHAR
STARTCHAR 2304
ENCODING 8964
SWIDTH 624 0
DWIDTH 13 0
BBX 10 7 1 -3
BITMAP
E0C0
6180
3300
1B00
1E00
0C00
0400
ENDCHAR
STARTCHAR 2308
ENCODING 8968
SWIDTH 624 0
DWIDTH 13 0
BBX 5 19 4 -3
BITMAP
F8
F8
E0
E0
E0
E0
E0
E0
E0
E0
E0
E0
E0
E0
E0
E0
E0
E0
E0
ENDCHAR
STARTCHAR 2309
ENCODING 8969
SWIDTH 624 0
DWIDTH 13 0
BBX 5 19 3 -3
BITMAP
F8
F8
18
18
18
18
18
18
18
18
18
18
18
18
18
18
18
18
18
ENDCHAR
STARTCHAR 230A
ENCODING 8970
SWIDTH 624 0
DWIDTH 13 0
BBX 5 19 4 -3
BITMAP
E0
E0
E0
E0
E0
E0
E0
E0
E0
E0
E0
E0
E0
E0
E0
E0
E0
F8
F8
ENDCHAR
STARTCHAR 230B
ENCODING 8971
SWIDTH 624 0
DWIDTH 13 0
BBX 5 19 3 -3
BITMAP
18
18
18
18
18
18
18
18
18
18
18
18
18
18
18
18
18
F8
F8
ENDCHAR
STARTCHAR 2310
ENCODING 8976
SWIDTH 624 0
DWIDTH 13 0
BBX 11 5 1 4
BITMAP
FFE0
FFE0
C000
C000
C000
ENDCHAR
STARTCHAR 2320
ENCODING 8992
SWIDTH 624 0
DWIDTH 13 0
BBX 7 24 5 -5
BITMAP
1C
2E
6E
60
60
E0
E0
E0
E0
E0
E0
E0
E0
E0
E0
E0
E0
E0
E0
E0
E0
E0
E0
E0
ENDCHAR
STARTCHAR 2321
ENCODING 8993
SWIDTH 624 0
DWIDTH 13 0
BBX 7 24 1 -5
BITMAP
0E
0E
0E
0E
0E
0E
0E
0E
0E
0E
0E
0E
0E
0C
0C
0C
0C
0C
0C
0C
0C
D8
D8
F0
ENDCHAR
STARTCHAR 239B
ENCODING 9115
SWIDTH 624 0
DWIDTH 13 0
BBX 8 24 2 -5
BITMAP
07
06
0E
0E
1C
1C
18
38
38
38
70
70
70
70
70
70
60
E0
E0
E0
E0
E0
E0
E0
ENDCHAR
STARTCHAR 239C
ENCODING 9116
SWIDTH 624 0
DWIDTH 13 0
BBX 3 24 2 -5
BITMAP
E0
E0
E0
E0
E0
E0
E0
E0
E0
E0
E0
E0
E0
E0
E0
E0
E0
E0
E0
E0
E0
E0
E0
E0
ENDCHAR
STARTCHAR 239D
ENCODING 9117
SWIDTH 624 0
DWIDTH 13 0
BBX 8 24 2 -5
BITMAP
E0
E0
E0
E0
E0
E0
E0
60
70
70
70
70
70
70
30
38
38
18
1C
1C
0C
0E
06
07
ENDCHAR
STARTCHAR 239E
ENCODING 9118
SWIDTH 624 0
DWIDTH 13 0
BBX 8 24 2 -5
BITMAP
E0
70
30
38
38
1C
1C
1C
0E
0E
0E
0E
06
07
07
07
07
07
07
07
07
07
07
07
ENDCHAR
STARTCHAR 239F
ENCODING 9119
SWIDTH 624 0
DWIDTH 13 0
BBX 3 24 7 -5
BITMAP
E0
E0
E0
E0
E0
E0
E0
E0
E0
E0
E0
E0
E0
E0
E0
E0
E0
E0
E0
E0
E0
E0
E0
E0
ENDCHAR
STARTCHAR 23A0
ENCODING 9120
SWIDTH 624 0
DWIDTH 13 0
BBX 8 24 2 -5
BITMAP
07
07
07
07
07
07
07
07
07
07
07
06
0E
0E
0E
0E
0C
1C
1C
38
38
30
70
E0
ENDCHAR
STARTCHAR 23A1
ENCODING 9121
SWIDTH 624 0
DWIDTH 13 0
BBX 8 24 2 -5
BITMAP
FF
FF
E0
E0
E0
E0
E0
E0
E0
E0
E0
E0
E0
E0
E0
E0
E0
E0
E0
E0
E0
E0
E0
E0
ENDCHAR
STARTCHAR 23A2
ENCODING 9122
SWIDTH 624 0
DWIDTH 13 0
BBX 3 24 2 -5
BITMAP
E0
E0
E0
E0
E0
E0
E0
E0
E0
E0
E0
E0
E0
E0
E0
E0
E0
E0
E0
E0
E0
E0
E0
E0
ENDCHAR
STARTCHAR 23A3
ENCODING 9123
SWIDTH 624 0
DWIDTH 13 0
BBX 8 24 2 -5
BITMAP
E0
E0
E0
E0
E0
E0
E0
E0
E0
E0
E0
E0
E0
E0
E0
E0
E0
E0
E0
E0
E0
E0
FF
FF
ENDCHAR
STARTCHAR 23A4
ENCODING 9124
SWIDTH 624 0
DWIDTH 13 0
BBX 8 24 2 -5
BITMAP
FF
FF
07
07
07
07
07
07
07
07
07
07
07
07
07
07
07
07
07
07
07
07
07
07
ENDCHAR
STARTCHAR 23A5
ENCODING 9125
SWIDTH 624 0
DWIDTH 13 0
BBX 3 24 7 -5
BITMAP
E0
E0
E0
E0
E0
E0
E0
E0
E0
E0
E0
E0
E0
E0
E0
E0
E0
E0
E0
E0
E0
E0
E0
E0
ENDCHAR
STARTCHAR 23A6
ENCODING 9126
SWIDTH 624 0
DWIDTH 13 0
BBX 8 24 2 -5
BITMAP
07
07
07
07
07
07
07
07
07
07
07
07
07
07
07
07
07
07
07
07
07
07
FF
FF
ENDCHAR
STARTCHAR 23A7
ENCODING 9127
SWIDTH 624 0
DWIDTH 13 0
BBX 7 25 5 -6
BITMAP
3E
7E
F0
E0
E0
E0
E0
E0
E0
E0
E0
E0
E0
E0
E0
E0
E0
E0
E0
E0
E0
E0
E0
E0
E0
ENDCHAR
STARTCHAR 23A8
ENCODING 9128
SWIDTH 624 0
DWIDTH 13 0
BBX 8 24 0 -5
BITMAP
07
07
07
07
07
07
07
07
0F
1E
FE
FC
7E
0E
07
07
07
07
07
07
07
07
07
07
ENDCHAR
STARTCHAR 23A9
ENCODING 9129
SWIDTH 624 0
DWIDTH 13 0
BBX 7 24 5 -5
BITMAP
E0
E0
E0
E0
E0
E0
E0
E0
E0
E0
E0
E0
E0
E0
E0
E0
E0
E0
E0
E0
E0
FE
7E
3E
ENDCHAR
STARTCHAR 23AA
ENCODING 9130
SWIDTH 624 0
DWIDTH 13 0
BBX 3 24 5 -5
BITMAP
E0
E0
E0
E0
E0
E0
E0
E0
E0
E0
E0
E0
E0
E0
E0
E0
E0
E0
E0
E0
E0
E0
E0
E0
ENDCHAR
STARTCHAR 23AB
ENCODING 9131
SWIDTH 624 0
DWIDTH 13 0
BBX 8 25 0 -6
BITMAP
F8
FE
1E
06
07
07
07
07
07
07
07
07
07
07
07
07
07
07
07
07
07
07
07
07
07
ENDCHAR
STARTCHAR 23AC
ENCODING 9132
SWIDTH 624 0
DWIDTH 13 0
BBX 7 24 5 -5
BITMAP
E0
E0
E0
E0
E0
E0
E0
E0
E0
F0
7E
7E
7C
F0
E0
E0
E0
E0
E0
E0
E0
E0
E0
E0
ENDCHAR
STARTCHAR 23AD
ENCODING 9133
SWIDTH 624 0
DWIDTH 13 0
BBX 8 24 0 -5
BITMAP
07
07
07
07
07
07
07
07
07
07
07
07
07
07
07
07
07
07
07
07
07
FE
FE
F8
ENDCHAR
STARTCHAR 23AE
ENCODING 9134
SWIDTH 624 0
DWIDTH 13 0
BBX 3 24 5 -5
BITMAP
E0
E0
E0
E0
E0
E0
E0
E0
E0
E0
E0
E0
E0
E0
E0
E0
E0
E0
E0
E0
E0
E0
E0
E0
ENDCHAR
STARTCHAR 2500
ENCODING 9472
SWIDTH 624 0
DWIDTH 13 0
BBX 13 2 0 6
BITMAP
FFF8
FFF8
ENDCHAR
STARTCHAR 2501
ENCODING 9473
SWIDTH 624 0
DWIDTH 13 0
BBX 13 4 0 6
BITMAP
FFF8
FFF8
FFF8
FFF8
ENDCHAR
STARTCHAR 2502
ENCODING 9474
SWIDTH 624 0
DWIDTH 13 0
BBX 2 26 5 -5
BITMAP
C0
C0
C0
C0
C0
C0
C0
C0
C0
C0
C0
C0
C0
C0
C0
C0
C0
C0
C0
C0
C0
C0
C0
C0
C0
C0
ENDCHAR
STARTCHAR 2503
ENCODING 9475
SWIDTH 624 0
DWIDTH 13 0
BBX 3 26 5 -5
BITMAP
E0
E0
E0
E0
E0
E0
E0
E0
E0
E0
E0
E0
E0
E0
E0
E0
E0
E0
E0
E0
E0
E0
E0
E0
E0
E0
ENDCHAR
STARTCHAR 2504
ENCODING 9476
SWIDTH 624 0
DWIDTH 13 0
BBX 11 2 1 6
BITMAP
EEE0
EEE0
ENDCHAR
STARTCHAR 2505
ENCODING 9477
SWIDTH 624 0
DWIDTH 13 0
BBX 11 4 1 6
BITMAP
EEE0
EEE0
EEE0
EEE0
ENDCHAR
STARTCHAR 2506
ENCODING 9478
SWIDTH 624 0
DWIDTH 13 0
BBX 2 23 5 -4
BITMAP
C0
C0
C0
C0
C0
C0
00
00
C0
C0
C0
C0
C0
C0
00
00
00
C0
C0
C0
C0
C0
C0
ENDCHAR
STARTCHAR 2507
ENCODING 9479
SWIDTH 624 0
DWIDTH 13 0
BBX 3 23 5 -4
BITMAP
E0
E0
E0
E0
E0
E0
00
00
E0
E0
E0
E0
E0
E0
00
00
00
E0
E0
E0
E0
E0
E0
ENDCHAR
STARTCHAR 2508
ENCODING 9480
SWIDTH 624 0
DWIDTH 13 0
BBX 11 2 1 6
BITMAP
DB60
DB60
ENDCHAR
STARTCHAR 2509
ENCODING 9481
SWIDTH 624 0
DWIDTH 13 0
BBX 11 4 1 6
BITMAP
DB60
DB60
DB60
DB60
ENDCHAR
STARTCHAR 250A
ENCODING 9482
SWIDTH 624 0
DWIDTH 13 0
BBX 2 23 5 -4
BITMAP
C0
C0
C0
C0
00
00
C0
C0
C0
C0
00
00
00
C0
C0
C0
C0
00
00
C0
C0
C0
C0
ENDCHAR
STARTCHAR 250B
ENCODING 9483
SWIDTH 624 0
DWIDTH 13 0
BBX 3 23 5 -4
BITMAP
E0
E0
E0
E0
00
00
E0
E0
E0
E0
00
00
00
E0
E0
E0
E0
00
00
E0
E0
E0
E0
ENDCHAR
STARTCHAR 250C
ENCODING 9484
SWIDTH 624 0
DWIDTH 13 0
BBX 8 14 5 -5
BITMAP
FF
FF
C0
C0
C0
C0
C0
C0
C0
C0
C0
C0
C0
C0
ENDCHAR
STARTCHAR 250D
ENCODING 9485
SWIDTH 624 0
DWIDTH 13 0
BBX 8 15 5 -5
BITMAP
FF
FF
FF
FF
C0
C0
C0
C0
C0
C0
C0
C0
C0
C0
C0
ENDCHAR
STARTCHAR 250E
ENCODING 9486
SWIDTH 624 0
DWIDTH 13 0
BBX 8 14 5 -5
BITMAP
FF
FF
E0
E0
E0
E0
E0
E0
E0
E0
E0
E0
E0
E0
ENDCHAR
STARTCHAR 250F
ENCODING 9487
SWIDTH 624 0
DWIDTH 13 0
BBX 8 15 5 -5
BITMAP
FF
FF
FF
FF
E0
E0
E0
E0
E0
E0
E0
E0
E0
E0
E0
ENDCHAR
STARTCHAR 2510
ENCODING 9488
SWIDTH 624 0
DWIDTH 13 0
BBX 7 14 0 -5
BITMAP
FE
FE
06
06
06
06
06
06
06
06
06
06
06
06
ENDCHAR
STARTCHAR 2511
ENCODING 9489
SWIDTH 624 0
DWIDTH 13 0
BBX 7 15 0 -5
BITMAP
FE
FE
FE
FE
06
06
06
06
06
06
06
06
06
06
06
ENDCHAR
STARTCHAR 2512
ENCODING 9490
SWIDTH 624 0
DWIDTH 13 0
BBX 8 14 0 -5
BITMAP
FF
FF
07
07
07
07
07
07
07
07
07
07
07
07
ENDCHAR
STARTCHAR 2513
ENCODING 9491
SWIDTH 624 0
DWIDTH 13 0
BBX 8 15 0 -5
BITMAP
FF
FF
FF
FF
07
07
07
07
07
07
07
07
07
07
07
ENDCHAR
STARTCHAR 2514
ENCODING 9492
SWIDTH 624 0
DWIDTH 13 0
BBX 8 14 5 6
BITMAP
C0
C0
C0
C0
C0
C0
C0
C0
C0
C0
C0
C0
FF
FF
ENDCHAR
STARTCHAR 2515
ENCODING 9493
SWIDTH 624 0
DWIDTH 13 0
BBX 8 15 5 6
BITMAP
C0
C0
C0
C0
C0
C0
C0
C0
C0
C0
C0
FF
FF
FF
FF
ENDCHAR
STARTCHAR 2516
ENCODING 9494
SWIDTH 624 0
DWIDTH 13 0
BBX 8 14 5 6
BITMAP
E0
E0
E0
E0
E0
E0
E0
E0
E0
E0
E0
E0
FF
FF
ENDCHAR
STARTCHAR 2517
ENCODING 9495
SWIDTH 624 0
DWIDTH 13 0
BBX 8 15 5 6
BITMAP
E0
E0
E0
E0
E0
E0
E0
E0
E0
E0
E0
FF
FF
FF
FF
ENDCHAR
STARTCHAR 2518
ENCODING 9496
SWIDTH 624 0
DWIDTH 13 0
BBX 7 14 0 6
BITMAP
06
06
06
06
06
06
06
06
06
06
06
06
FE
FE
ENDCHAR
STARTCHAR 2519
ENCODING 9497
SWIDTH 624 0
DWIDTH 13 0
BBX 7 15 0 6
BITMAP
06
06
06
06
06
06
06
06
06
06
06
FE
FE
FE
FE
ENDCHAR
STARTCHAR 251A
ENCODING 9498
SWIDTH 624 0
DWIDTH 13 0
BBX 8 14 0 6
BITMAP
07
07
07
07
07
07
07
07
07
07
07
07
FF
FF
ENDCHAR
STARTCHAR 251B
ENCODING 9499
SWIDTH 624 0
DWIDTH 13 0
BBX 8 15 0 6
BITMAP
07
07
07
07
07
07
07
07
07
07
07
FF
FF
FF
FF
ENDCHAR
STARTCHAR 251C
ENCODING 9500
SWIDTH 624 0
DWIDTH 13 0
BBX 8 26 5 -5
BITMAP
C0
C0
C0
C0
C0
C0
C0
C0
C0
C0
C0
C0
FF
FF
C0
C0
C0
C0
C0
C0
C0
C0
C0
C0
C0
C0
ENDCHAR
STARTCHAR 251D
ENCODING 9501
SWIDTH 624 0
DWIDTH 13 0
BBX 8 26 5 -5
BITMAP
C0
C0
C0
C0
C0
C0
C0
C0
C0
C0
C0
FF
FF
FF
FF
C0
C0
C0
C0
C0
C0
C0
C0
C0
C0
C0
ENDCHAR
STARTCHAR 251E
ENCODING 9502
SWIDTH 624 0
DWIDTH 13 0
BBX 8 26 5 -5
BITMAP
E0
E0
E0
E0
E0
E0
E0
E0
E0
E0
E0
E0
FF
FF
C0
C0
C0
C0
C0
C0
C0
C0
C0
C0
C0
C0
ENDCHAR
STARTCHAR 251F
ENCODING 9503
SWIDTH 624 0
DWIDTH 13 0
BBX 8 26 5 -5
BITMAP
C0
C0
C0
C0
C0
C0
C0
C0
C0
C0
C0
C0
FF
FF
E0
E0
E0
E0
E0
E0
E0
E0
E0
E0
E0
E0
ENDCHAR
STARTCHAR 2520
ENCODING 9504
SWIDTH 624 0
DWIDTH 13 0
BBX 8 26 5 -5
BITMAP
E0
E0
E0
E0
E0
E0
E0
E0
E0
E0
E0
E0
FF
FF
E0
E0
E0
E0
E0
E0
E0
E0
E0
E0
E0
E0
ENDCHAR
STARTCHAR 2521
ENCODING 9505
SWIDTH 624 0
DWIDTH 13 0
BBX 8 26 5 -5
BITMAP
E0
E0
E0
E0
E0
E0
E0
E0
E0
E0
E0
FF
FF
FF
FF
C0
C0
C0
C0
C0
C0
C0
C0
C0
C0
C0
ENDCHAR
STARTCHAR 2522
ENCODING 9506
SWIDTH 624 0
DWIDTH 13 0
BBX 8 26 5 -5
BITMAP
C0
C0
C0
C0
C0
C0
C0
C0
C0
C0
C0
C0
FF
FF
FF
FF
E0
E0
E0
E0
E0
E0
E0
E0
E0
E0
ENDCHAR
STARTCHAR 2523
ENCODING 9507
SWIDTH 624 0
DWIDTH 13 0
BBX 8 26 5 -5
BITMAP
E0
E0
E0
E0
E0
E0
E0
E0
E0
E0
E0
FF
FF
FF
FF
E0
E0
E0
E0
E0
E0
E0
E0
E0
E0
E0
ENDCHAR
STARTCHAR 2524
ENCODING 9508
SWIDTH 624 0
DWIDTH 13 0
BBX 7 26 0 -5
BITMAP
06
06
06
06
06
06
06
06
06
06
06
06
FE
FE
06
06
06
06
06
06
06
06
06
06
06
06
ENDCHAR
STARTCHAR 2525
ENCODING 9509
SWIDTH 624 0
DWIDTH 13 0
BBX 7 26 0 -5
BITMAP
06
06
06
06
06
06
06
06
06
06
06
FE
FE
FE
FE
06
06
06
06
06
06
06
06
06
06
06
ENDCHAR
STARTCHAR 2526
ENCODING 9510
SWIDTH 624 0
DWIDTH 13 0
BBX 8 26 0 -5
BITMAP
07
07
07
07
07
07
07
07
07
07
07
07
FF
FF
06
06
06
06
06
06
06
06
06
06
06
06
ENDCHAR
STARTCHAR 2527
ENCODING 9511
SWIDTH 624 0
DWIDTH 13 0
BBX 8 26 0 -5
BITMAP
06
06
06
06
06
06
06
06
06
06
06
06
FF
FF
07
07
07
07
07
07
07
07
07
07
07
07
ENDCHAR
STARTCHAR 2528
ENCODING 9512
SWIDTH 624 0
DWIDTH 13 0
BBX 8 26 0 -5
BITMAP
07
07
07
07
07
07
07
07
07
07
07
07
FF
FF
07
07
07
07
07
07
07
07
07
07
07
07
ENDCHAR
STARTCHAR 2529
ENCODING 9513
SWIDTH 624 0
DWIDTH 13 0
BBX 8 26 0 -5
BITMAP
07
07
07
07
07
07
07
07
07
07
07
FF
FF
FF
FF
06
06
06
06
06
06
06
06
06
06
06
ENDCHAR
STARTCHAR 252A
ENCODING 9514
SWIDTH 624 0
DWIDTH 13 0
BBX 8 26 0 -5
BITMAP
06
06
06
06
06
06
06
06
06
06
06
FF
FF
FF
FF
07
07
07
07
07
07
07
07
07
07
07
ENDCHAR
STARTCHAR 252B
ENCODING 9515
SWIDTH 624 0
DWIDTH 13 0
BBX 8 26 0 -5
BITMAP
07
07
07
07
07
07
07
07
07
07
07
FF
FF
FF
FF
07
07
07
07
07
07
07
07
07
07
07
ENDCHAR
STARTCHAR 252C
ENCODING 9516
SWIDTH 624 0
DWIDTH 13 0
BBX 13 14 0 -5
BITMAP
FFF8
FFF8
0600
0600
0600
0600
0600
0600
0600
0600
0600
0600
0600
0600
ENDCHAR
STARTCHAR 252D
ENCODING 9517
SWIDTH 624 0
DWIDTH 13 0
BBX 13 15 0 -5
BITMAP
FE00
FFF8
FFF8
FE00
0600
0600
0600
0600
0600
0600
0600
0600
0600
0600
0600
ENDCHAR
STARTCHAR 252E
ENCODING 9518
SWIDTH 624 0
DWIDTH 13 0
BBX 13 15 0 -5
BITMAP
07F8
FFF8
FFF8
07F8
0600
0600
0600
0600
0600
0600
0600
0600
0600
0600
0600
ENDCHAR
STARTCHAR 252F
ENCODING 9519
SWIDTH 624 0
DWIDTH 13 0
BBX 13 15 0 -5
BITMAP
FFF8
FFF8
FFF8
FFF8
0600
0600
0600
0600
0600
0600
0600
0600
0600
0600
0600
ENDCHAR
STARTCHAR 2530
ENCODING 9520
SWIDTH 624 0
DWIDTH 13 0
BBX 13 14 0 -5
BITMAP
FFF8
FFF8
0700
0700
0700
0700
0700
0700
0700
0700
0700
0700
0700
0700
ENDCHAR
STARTCHAR 2531
ENCODING 9521
SWIDTH 624 0
DWIDTH 13 0
BBX 13 15 0 -5
BITMAP
FF00
FFF8
FFF8
FF00
0700
0700
0700
0700
0700
0700
0700
0700
0700
0700
0700
ENDCHAR
STARTCHAR 2532
ENCODING 9522
SWIDTH 624 0
DWIDTH 13 0
BBX 13 15 0 -5
BITMAP
07F8
FFF8
FFF8
07F8
0700
0700
0700
0700
0700
0700
0700
0700
0700
0700
0700
ENDCHAR
STARTCHAR 2533
ENCODING 9523
SWIDTH 624 0
DWIDTH 13 0
BBX 13 15 0 -5
BITMAP
FFF8
FFF8
FFF8
FFF8
0700
0700
0700
0700
0700
0700
0700
0700
0700
0700
0700
ENDCHAR
STARTCHAR 2534
ENCODING 9524
SWIDTH 624 0
DWIDTH 13 0
BBX 13 14 0 6
BITMAP
0600
0600
0600
0600
0600
0600
0600
0600
0600
0600
0600
0600
FFF8
FFF8
ENDCHAR
STARTCHAR 2535
ENCODING 9525
SWIDTH 624 0
DWIDTH 13 0
BBX 13 15 0 6
BITMAP
0600
0600
0600
0600
0600
0600
0600
0600
0600
0600
0600
FE00
FFF8
FFF8
FE00
ENDCHAR
STARTCHAR 2536
ENCODING 9526
SWIDTH 624 0
DWIDTH 13 0
BBX 13 15 0 6
BITMAP
0600
0600
0600
0600
0600
0600
0600
0600
0600
0600
0600
07F8
FFF8
FFF8
07F8
ENDCHAR
STARTCHAR 2537
ENCODING 9527
SWIDTH 624 0
DWIDTH 13 0
BBX 13 15 0 6
BITMAP
0600
0600
0600
0600
0600
0600
0600
0600
0600
0600
0600
FFF8
FFF8
FFF8
FFF8
ENDCHAR
STARTCHAR 2538
ENCODING 9528
SWIDTH 624 0
DWIDTH 13 0
BBX 13 14 0 6
BITMAP
0700
0700
0700
0700
0700
0700
0700
0700
0700
0700
0700
0700
FFF8
FFF8
ENDCHAR
STARTCHAR 2539
ENCODING 9529
SWIDTH 624 0
DWIDTH 13 0
BBX 13 15 0 6
BITMAP
0700
0700
0700
0700
0700
0700
0700
0700
0700
0700
0700
FF00
FFF8
FFF8
FF00
ENDCHAR
STARTCHAR 253A
ENCODING 9530
SWIDTH 624 0
DWIDTH 13 0
BBX 13 15 0 6
BITMAP
0700
0700
0700
0700
0700
0700
0700
0700
0700
0700
0700
07F8
FFF8
FFF8
07F8
ENDCHAR
STARTCHAR 253B
ENCODING 9531
SWIDTH 624 0
DWIDTH 13 0
BBX 13 15 0 6
BITMAP
0700
0700
0700
0700
0700
0700
0700
0700
0700
0700
0700
FFF8
FFF8
FFF8
FFF8
ENDCHAR
STARTCHAR 253C
ENCODING 9532
SWIDTH 624 0
DWIDTH 13 0
BBX 13 26 0 -5
BITMAP
0600
0600
0600
0600
0600
0600
0600
0600
0600
0600
0600
0600
FFF8
FFF8
0600
0600
0600
0600
0600
0600
0600
0600
0600
0600
0600
0600
ENDCHAR
STARTCHAR 253D
ENCODING 9533
SWIDTH 624 0
DWIDTH 13 0
BBX 13 26 0 -5
BITMAP
0600
0600
0600
0600
0600
0600
0600
0600
0600
0600
0600
FE00
FFF8
FFF8
FE00
0600
0600
0600
0600
0600
0600
0600
0600
0600
0600
0600
ENDCHAR
STARTCHAR 253E
ENCODING 9534
SWIDTH 624 0
DWIDTH 13 0
BBX 13 26 0 -5
BITMAP
0600
0600
0600
0600
0600
0600
0600
0600
0600
0600
0600
07F8
FFF8
FFF8
07F8
0600
0600
0600
0600
0600
0600
0600
0600
0600
0600
0600
ENDCHAR
STARTCHAR 253F
ENCODING 9535
SWIDTH 624 0
DWIDTH 13 0
BBX 13 26 0 -5
BITMAP
0600
0600
0600
0600
0600
0600
0600
0600
0600
0600
0600
FFF8
FFF8
FFF8
FFF8
0600
0600
0600
0600
0600
0600
0600
0600
0600
0600
0600
ENDCHAR
STARTCHAR 2540
ENCODING 9536
SWIDTH 624 0
DWIDTH 13 0
BBX 13 26 0 -5
BITMAP
0700
0700
0700
0700
0700
0700
0700
0700
0700
0700
0700
0700
FFF8
FFF8
0600
0600
0600
0600
0600
0600
0600
0600
0600
0600
0600
0600
ENDCHAR
STARTCHAR 2541
ENCODING 9537
SWIDTH 624 0
DWIDTH 13 0
BBX 13 26 0 -5
BITMAP
0600
0600
0600
0600
0600
0600
0600
0600
0600
0600
0600
0600
FFF8
FFF8
0700
0700
0700
0700
0700
0700
0700
0700
0700
0700
0700
0700
ENDCHAR
STARTCHAR 2542
ENCODING 9538
SWIDTH 624 0
DWIDTH 13 0
BBX 13 26 0 -5
BITMAP
0700
0700
0700
0700
0700
0700
0700
0700
0700
0700
0700
0700
FFF8
FFF8
0700
0700
0700
0700
0700
0700
0700
0700
0700
0700
0700
0700
ENDCHAR
STARTCHAR 2543
ENCODING 9539
SWIDTH 624 0
DWIDTH 13 0
BBX 13 26 0 -5
BITMAP
0700
0700
0700
0700
0700
0700
0700
0700
0700
0700
0700
FF00
FFF8
FFF8
FF00
0600
0600
0600
0600
0600
0600
0600
0600
0600
0600
0600
ENDCHAR
STARTCHAR 2544
ENCODING 9540
SWIDTH 624 0
DWIDTH 13 0
BBX 13 26 0 -5
BITMAP
0700
0700
0700
0700
0700
0700
0700
0700
0700
0700
0700
07F8
FFF8
FFF8
07F8
0600
0600
0600
0600
0600
0600
0600
0600
0600
0600
0600
ENDCHAR
STARTCHAR 2545
ENCODING 9541
SWIDTH 624 0
DWIDTH 13 0
BBX 13 26 0 -5
BITMAP
0600
0600
0600
0600
0600
0600
0600
0600
0600
0600
0600
FF00
FFF8
FFF8
FF00
0700
0700
0700
0700
0700
0700
0700
0700
0700
0700
0700
ENDCHAR
STARTCHAR 2546
ENCODING 9542
SWIDTH 624 0
DWIDTH 13 0
BBX 13 26 0 -5
BITMAP
0600
0600
0600
0600
0600
0600
0600
0600
0600
0600
0600
0600
FFF8
FFF8
07F8
07F8
0700
0700
0700
0700
0700
0700
0700
0700
0700
0700
ENDCHAR
STARTCHAR 2547
ENCODING 9543
SWIDTH 624 0
DWIDTH 13 0
BBX 13 26 0 -5
BITMAP
0700
0700
0700
0700
0700
0700
0700
0700
0700
0700
0700
FFF8
FFF8
FFF8
FFF8
0600
0600
0600
0600
0600
0600
0600
0600
0600
0600
0600
ENDCHAR
STARTCHAR 2548
ENCODING 9544
SWIDTH 624 0
DWIDTH 13 0
BBX 13 26 0 -5
BITMAP
0600
0600
0600
0600
0600
0600
0600
0600
0600
0600
0600
FFF8
FFF8
FFF8
FFF8
0700
0700
0700
0700
0700
0700
0700
0700
0700
0700
0700
ENDCHAR
ENDFONT
